<svg width="20" height="20" viewBox="0 0 20 20" fill="none" xmlns="http://www.w3.org/2000/svg">
<path d="M13.3333 11.668C14.4384 11.668 15.4982 12.107 16.2796 12.8884C17.061 13.6698 17.5 14.7296 17.5 15.8346V16.668C17.5 17.11 17.3244 17.5339 17.0118 17.8465C16.6993 18.159 16.2754 18.3346 15.8333 18.3346H4.16667C3.72464 18.3346 3.30072 18.159 2.98816 17.8465C2.67559 17.5339 2.5 17.11 2.5 16.668V15.8346C2.5 14.7296 2.93899 13.6698 3.72039 12.8884C4.50179 12.107 5.5616 11.668 6.66667 11.668H13.3333ZM16.6667 6.66797C16.8877 6.66797 17.0996 6.75577 17.2559 6.91205C17.4122 7.06833 17.5 7.28029 17.5 7.5013V8.33464H18.3333C18.5543 8.33464 18.7663 8.42243 18.9226 8.57871C19.0789 8.73499 19.1667 8.94695 19.1667 9.16797C19.1667 9.38898 19.0789 9.60094 18.9226 9.75722C18.7663 9.9135 18.5543 10.0013 18.3333 10.0013H17.5V10.8346C17.5 11.0556 17.4122 11.2676 17.2559 11.4239C17.0996 11.5802 16.8877 11.668 16.6667 11.668C16.4457 11.668 16.2337 11.5802 16.0774 11.4239C15.9211 11.2676 15.8333 11.0556 15.8333 10.8346V10.0013H15C14.779 10.0013 14.567 9.9135 14.4107 9.75722C14.2545 9.60094 14.1667 9.38898 14.1667 9.16797C14.1667 8.94695 14.2545 8.73499 14.4107 8.57871C14.567 8.42243 14.779 8.33464 15 8.33464H15.8333V7.5013C15.8333 7.28029 15.9211 7.06833 16.0774 6.91205C16.2337 6.75577 16.4457 6.66797 16.6667 6.66797ZM10 1.66797C11.1051 1.66797 12.1649 2.10696 12.9463 2.88836C13.7277 3.66976 14.1667 4.72957 14.1667 5.83464C14.1667 6.9397 13.7277 7.99951 12.9463 8.78091C12.1649 9.56231 11.1051 10.0013 10 10.0013C8.89493 10.0013 7.83512 9.56231 7.05372 8.78091C6.27232 7.99951 5.83333 6.9397 5.83333 5.83464C5.83333 4.72957 6.27232 3.66976 7.05372 2.88836C7.83512 2.10696 8.89493 1.66797 10 1.66797Z" fill="white"/>
</svg>
