<svg width="33" height="29" viewBox="0 0 33 29" fill="none" xmlns="http://www.w3.org/2000/svg">
<path d="M0.26373 0.732458C0.181143 1.03744 0.181143 2.08311 0.222436 3.06342C0.32567 5.11119 0.924423 6.70147 2.20452 8.24819C2.84456 9.03244 2.98909 9.40278 3.03038 10.2742C3.11297 11.7773 3.75302 13.019 5.13634 14.4133C6.18932 15.4807 6.3545 15.7421 6.47838 16.7007C6.70549 18.4217 7.53136 19.5763 9.4515 20.7962C10.36 21.3626 11.1032 21.9072 11.1239 22.0161C11.1239 22.1033 10.4632 23.2361 9.67861 24.5432C8.87339 25.8285 8.23335 27.0484 8.23335 27.2445C8.23335 27.4405 8.41917 27.702 8.66693 27.8545C9.22439 28.1594 9.74055 27.6584 10.9381 25.7195L11.7846 24.3471H16.5746H21.344L22.2318 25.8285C22.7067 26.6563 23.2641 27.4841 23.4912 27.702C24.0281 28.2248 24.9572 28.0723 25.1843 27.4623C25.3288 27.0702 25.0397 26.5038 23.7596 24.4342C22.335 22.1251 22.2111 21.8636 22.5415 21.6458C25.6591 19.6198 26.4437 18.7266 26.7121 16.766C26.836 15.8946 27.0218 15.5679 28.0335 14.5004C29.4168 13.0844 30.0362 11.8645 30.2427 10.187C30.3459 9.25029 30.5318 8.81459 31.1099 8.13927C32.328 6.70147 32.8648 5.13297 32.9681 2.82379C33.0919 -0.0735772 32.9268 -0.204286 31.1718 1.51671C30.3046 2.36631 28.5497 3.6734 26.5057 4.9587C24.6887 6.0915 22.748 7.39859 22.1698 7.87785C20.3529 9.35921 18.3296 11.5595 17.7928 12.6705C17.3385 13.6072 17.2766 13.9558 17.3592 15.4154C17.4211 17.0057 17.5037 17.2889 18.7631 19.903C19.5064 21.4497 20.1465 22.7786 20.1671 22.8657C20.2084 22.9747 18.598 23.04 16.5952 23.04C14.5925 23.04 12.9821 22.9747 13.0234 22.8657C13.0647 22.7786 13.6841 21.4497 14.4273 19.903C15.6868 17.2889 15.7694 17.0057 15.852 15.3936C15.8933 13.9776 15.8313 13.5201 15.4597 12.6923C14.4686 10.5138 10.9587 7.52929 5.26022 3.97838C4.12466 3.25949 2.61745 2.12668 1.91546 1.42957C1.21348 0.732458 0.594076 0.166055 0.51149 0.166055C0.44955 0.166055 0.32567 0.427472 0.26373 0.732458Z" fill="#2F7DEF"/>
</svg>
