<svg width="28" height="31" viewBox="0 0 28 31" fill="none" xmlns="http://www.w3.org/2000/svg">
<path d="M14.4679 8.19804C12.2267 8.57936 10.1489 10.1124 9.0905 12.1669C8.47571 13.3576 8.25781 14.2914 8.25781 15.6611C8.25781 17.7389 9.05937 19.5988 10.5535 21.0229C11.2695 21.7 11.6819 21.9801 12.5769 22.4082C16.6547 24.3381 21.573 22.1903 22.9193 17.8868C23.4251 16.2759 23.3862 14.5249 22.8103 12.9918L22.6469 12.5327L19.5963 15.5677C17.9232 17.2408 16.4679 18.665 16.359 18.735C16.1255 18.8906 15.5652 18.8984 15.2851 18.7506C15.1683 18.6883 14.2111 17.77 13.1605 16.7039C11.0672 14.5949 11.0049 14.5093 11.0983 13.77C11.215 12.7817 12.2812 12.1358 13.2228 12.4782C13.3395 12.5249 13.9699 13.0852 14.608 13.7233L15.7753 14.8906L18.25 12.4159L20.7247 9.94123L20.2345 9.57547C19.3707 8.92956 18.25 8.43928 17.1528 8.22917C16.538 8.11244 15.0905 8.09687 14.4679 8.19804Z" fill="#159640"/>
<path d="M15.0073 0.168518C10.0657 0.526495 5.92562 2.88447 3.26414 6.84556C0.205774 11.3825 -0.300062 17.367 1.97231 22.0907C3.16297 24.5654 4.96842 26.6043 7.38087 28.1996C11.1708 30.7055 16.4159 31.6549 20.2992 30.5343C22.5326 29.8961 24.8283 28.5654 26.6182 26.8611C27.4587 26.0673 27.7155 25.5926 27.7155 24.83C27.7155 23.5771 26.7583 22.5965 25.4509 22.5109C24.9373 22.4798 24.8439 22.4954 24.4003 22.7133C24.1357 22.8533 23.6066 23.2269 23.2174 23.5615C21.1241 25.3436 19.0385 26.1841 16.447 26.2775C14.5638 26.3475 13.1007 26.0518 11.4587 25.2658C8.29916 23.7483 6.17465 21.0401 5.46648 17.6316C5.2797 16.7055 5.24079 15.0712 5.38865 14.1296C5.73885 11.8572 6.73496 9.81054 8.29138 8.1763C9.20188 7.2191 10.0968 6.55762 11.3108 5.9584C13.0073 5.11793 14.6104 4.77552 16.447 4.85334C19.0385 4.97786 21.1241 5.81832 23.2564 7.62377C24.198 8.41755 24.6649 8.65101 25.3031 8.65879C26.4859 8.65879 27.3887 7.9584 27.661 6.83C27.7778 6.37863 27.7778 6.29303 27.661 5.84167C27.4898 5.17241 27.1785 4.76774 26.1513 3.88836C23.5365 1.63155 20.7194 0.433109 17.3809 0.160736C16.2992 0.0751324 16.2213 0.0751324 15.0073 0.168518Z" fill="#159696"/>
</svg>
