<svg width="9" height="12" viewBox="0 0 9 12" fill="none" xmlns="http://www.w3.org/2000/svg">
    <path d="M1.16565 6.30964C1.07629 5.14805 1.99473 4.15625 3.15975 4.15625H6.2092C7.37422 4.15625 8.29266 5.14805 8.20331 6.30964L7.98465 9.15225C7.90449 10.1942 7.03561 10.9989 5.99054 10.9989H3.37841C2.33334 10.9989 1.46446 10.1942 1.38431 9.15224L1.16565 6.30964Z" stroke="#CA0D0D" />
    <path d="M7.84359 2.58594H1.52734" stroke="#CA0D0D" stroke-linecap="round" />
    <path d="M3.63281 2C3.63281 1.44771 4.08053 1 4.63281 1H4.73823C5.29051 1 5.73823 1.44772 5.73823 2V2.57906H3.63281V2Z" stroke="#CA0D0D" />
    <path d="M5.73828 6.25781V8.88958" stroke="#CA0D0D" stroke-linecap="round" />
    <path d="M3.63281 6.25781V8.88958" stroke="#CA0D0D" stroke-linecap="round" />
</svg>