<svg width="206" height="178" viewBox="0 0 206 178" fill="none" xmlns="http://www.w3.org/2000/svg">
<g filter="url(#filter0_d_6181_74)">
<path d="M175 53.0311C175 38.1095 162.635 29.901 148.51 26.0132C130.401 21.0287 117.138 31.1151 122.02 53.0311C123.127 57.9981 125.773 63.7994 129.049 68.7617H155.044C163.727 62.996 175 64.6129 175 53.0311Z" fill="#FF783E"/>
</g>
<g filter="url(#filter1_d_6181_74)">
<path d="M162 14.4403V56.0831C162 59.7658 158.95 62.7617 155.2 62.7617H112.8C109.05 62.7617 106 59.7658 106 56.0831V14.4403C106 10.7576 109.05 7.76172 112.8 7.76172H155.2C158.95 7.76172 162 10.7576 162 14.4403ZM155.2 61.976C158.514 61.976 161.2 59.3377 161.2 56.0831V35.0885C161.2 20.4303 149.101 8.54743 134.176 8.54743H112.8C109.486 8.54743 106.8 11.1858 106.8 14.4403V56.0831C106.8 59.3377 109.486 61.976 112.8 61.976H155.2Z" fill="black"/>
</g>
<g filter="url(#filter2_d_6181_74)">
<path d="M129.372 95.7617H115.628C115.282 95.7617 115 95.313 115 94.7616C115 94.2102 115.282 93.7617 115.628 93.7617H129.372C129.718 93.7617 130 94.2102 130 94.7616C130 95.313 129.718 95.7617 129.372 95.7617V95.7617Z" fill="#3F3D56"/>
</g>
<g filter="url(#filter3_d_6181_74)">
<path d="M188.575 21.4022V7.87627C188.575 7.53527 188.853 7.25781 189.194 7.25781C189.535 7.25781 189.812 7.53527 189.812 7.87627V21.4022C189.812 21.7432 189.535 22.0205 189.194 22.0205C188.853 22.0205 188.575 21.7432 188.575 21.4022H188.575Z" fill="black"/>
<path d="M175.372 21.4022V7.87627C175.372 7.53527 175.649 7.25781 175.991 7.25781C176.332 7.25781 176.609 7.53527 176.609 7.87627V21.4022C176.609 21.7432 176.332 22.0205 175.991 22.0205C175.649 22.0205 175.372 21.7432 175.372 21.4022H175.372Z" fill="black"/>
<path d="M181.975 28.6607V0.618456C181.975 0.277457 182.253 0 182.594 0C182.935 0 183.213 0.277461 183.213 0.618456V28.6607C183.213 29.0017 182.935 29.279 182.594 29.279C182.253 29.279 181.975 29.0017 181.975 28.6607H181.975Z" fill="black"/>
</g>
<g filter="url(#filter4_d_6181_74)">
<path d="M171.594 105.762H112.406C108.874 105.762 106 102.921 106 99.43V78.0935C106 74.6021 108.874 71.7617 112.406 71.7617H171.594C175.126 71.7617 178 74.6021 178 78.0935V99.43C178 102.921 175.126 105.762 171.594 105.762ZM112.406 72.5524C109.315 72.5524 106.8 75.038 106.8 78.0935V99.43C106.8 102.485 109.315 104.971 112.406 104.971H171.594C174.685 104.971 177.2 102.485 177.2 99.43V78.0935C177.2 75.038 174.685 72.5524 171.594 72.5524H112.406Z" fill="black"/>
</g>
<g filter="url(#filter5_d_6181_74)">
<path d="M193.598 69.7617H186.582C174.682 69.7617 165 60.0799 165 48.1795V41.1637C165 38.7364 166.975 36.7617 169.402 36.7617H193.598C196.025 36.7617 198 38.7364 198 41.1637V65.3597C198 67.7871 196.025 69.7617 193.598 69.7617ZM169.402 37.5474C167.405 37.5474 165.786 39.1664 165.786 41.1635V48.1795C165.786 59.6651 175.097 68.976 186.582 68.976H193.598C195.595 68.976 197.214 67.357 197.214 65.3599V49.9487C197.214 43.0997 191.662 37.5474 184.813 37.5474H169.402Z" fill="black"/>
</g>
<g filter="url(#filter6_d_6181_74)">
<path d="M148.436 81.9052C149.954 79.1996 151.879 77.2476 154 75.7617H129C135.434 84.3532 143.968 89.8673 148.436 81.9052Z" fill="#FF783E"/>
</g>
<path d="M13.8991 142.587C12.9184 142.587 11.9356 142.627 10.9759 142.708L10.8363 142.719C4.47048 143.277 -0.185802 146.514 0.00569796 150.248L0.0427193 150.923C0.067133 151.35 0.0931449 151.809 0.114555 152.318C0.126152 152.569 0.47175 152.762 0.901778 152.762H157.485C168.525 152.695 179.524 152.612 190.177 152.513C192.175 152.517 194.171 152.415 196.158 152.206C199.118 151.859 201.173 151.17 202.44 150.101H202.441C204.016 148.775 204.066 147.106 203.971 145.22C203.777 141.412 203.584 137.411 203.392 133.423C203.222 129.908 203.053 126.402 202.885 123.045C202.78 121.053 202.548 119.295 200.759 117.952C198.819 116.498 195.282 115.762 190.245 115.762C190.185 115.762 190.124 115.762 190.062 115.762C174.278 115.818 158.638 121.198 151.145 129.15C150.282 130.066 149.478 131.046 148.7 131.995C147.551 133.395 146.364 134.844 144.946 136.139C144.179 136.85 143.349 137.491 142.466 138.055C142.405 138.097 142.335 138.142 142.262 138.184C142.093 138.293 141.917 138.398 141.746 138.491C140.74 139.067 139.681 139.544 138.583 139.917L138.472 139.954C138.388 139.983 138.298 140.013 138.207 140.04C137.573 140.242 136.914 140.416 136.254 140.557C133.398 141.181 130.15 141.331 126.601 141.002C123.342 140.691 120.125 140.041 117.003 139.063C113.716 138.033 110.64 136.749 107.666 135.508C106.359 134.963 105.007 134.399 103.658 133.864C103.404 133.764 103.154 133.666 102.901 133.567C101.253 132.93 99.758 132.404 98.332 131.959C94.7993 130.852 91.1423 130.18 87.4438 129.96C83.5181 129.747 80.0587 130.149 77.164 131.152C76.3659 131.427 75.5888 131.759 74.8387 132.145C71.4101 133.91 69.2964 136.515 67.2525 139.034C64.7099 142.168 62.0807 145.408 56.8892 147.088C50.8986 149.028 42.1543 148.222 35.9678 146.82C34.0228 146.379 32.0802 145.872 30.2014 145.382C29.4426 145.184 28.6832 144.987 27.9234 144.792C26.4302 144.409 25.2081 144.117 24.0775 143.869L23.7199 143.791C23.521 143.748 23.3219 143.705 23.1192 143.664C21.7763 143.385 20.5258 143.165 19.2944 142.992L19.003 142.949C18.4189 142.873 17.8728 142.81 17.3369 142.756L17.123 142.735C16.0735 142.636 14.9873 142.587 13.8991 142.587Z" fill="#F2F2F2"/>
<path d="M175.307 146.633C179.509 142.489 185.758 140.405 191 142.729C185.623 145.996 181.475 151.241 179.29 157.533C178.456 159.964 177.759 162.762 175.706 164.063C174.429 164.872 172.84 164.912 171.408 164.521C169.976 164.13 168.663 163.347 167.368 162.571L167 162.562C168.654 156.642 171.106 150.777 175.307 146.633Z" fill="#E6E6E6"/>
<path d="M191.878 143.024C187.048 143.651 182.537 145.792 178.986 149.143C178.209 149.851 177.548 150.677 177.027 151.592C176.548 152.499 176.319 153.519 176.365 154.545C176.389 155.503 176.523 156.48 176.315 157.427C176.201 157.91 175.987 158.363 175.686 158.757C175.386 159.151 175.006 159.477 174.572 159.713C173.504 160.33 172.28 160.524 171.076 160.672C169.74 160.837 168.349 160.987 167.192 161.74C167.052 161.832 166.92 161.608 167.059 161.516C169.072 160.206 171.619 160.683 173.783 159.808C174.793 159.4 175.687 158.683 176.003 157.6C176.28 156.652 176.142 155.645 176.11 154.675C176.05 153.675 176.236 152.675 176.649 151.763C177.122 150.825 177.751 149.974 178.508 149.248C180.186 147.585 182.114 146.198 184.221 145.137C186.619 143.913 189.208 143.11 191.875 142.763C192.04 142.742 192.042 143.002 191.878 143.024H191.878Z" fill="white"/>
<path d="M180.029 147.713C179.266 147.126 178.908 146.41 179.02 145.692C179.132 144.975 179.706 144.302 180.64 143.795C180.83 143.693 181.129 143.849 180.939 143.952C180.068 144.423 179.533 145.05 179.431 145.718C179.33 146.386 179.668 147.053 180.384 147.596C180.54 147.715 180.184 147.83 180.029 147.713V147.713Z" fill="white"/>
<path d="M176.155 154.492C177.77 154.712 179.433 154.456 180.813 153.777C180.949 153.71 181.078 153.876 180.942 153.944C179.504 154.648 177.773 154.911 176.093 154.68C175.933 154.658 175.996 154.47 176.155 154.492Z" fill="white"/>
<path d="M186.265 144.805C186.41 145.008 186.635 145.187 186.919 145.323C187.203 145.46 187.538 145.551 187.894 145.589C188.076 145.608 188.005 145.779 187.823 145.76C187.431 145.718 187.061 145.617 186.747 145.466C186.432 145.315 186.182 145.119 186.019 144.895C186 144.875 185.995 144.851 186.005 144.829C186.014 144.806 186.037 144.787 186.068 144.774C186.101 144.762 186.14 144.759 186.177 144.764C186.214 144.77 186.245 144.785 186.265 144.805Z" fill="white"/>
<path d="M198 161.933C197.894 161.919 197.788 161.904 197.681 161.891C196.258 161.7 194.822 161.626 193.387 161.67C193.276 161.672 193.163 161.675 193.053 161.68C189.596 161.824 186.197 162.615 183.026 164.013C181.765 164.571 180.548 165.224 179.385 165.969C177.779 166.997 176.119 168.24 174.323 168.66C174.136 168.705 173.947 168.74 173.756 168.762L166.338 162.269C166.329 162.246 166.318 162.224 166.308 162.201L166 161.955C166.057 161.912 166.118 161.869 166.175 161.827C166.208 161.802 166.243 161.779 166.276 161.754C166.299 161.738 166.321 161.721 166.341 161.706C166.348 161.7 166.356 161.695 166.362 161.691C166.382 161.675 166.401 161.663 166.419 161.649C166.756 161.408 167.095 161.168 167.437 160.931C167.438 160.93 167.438 160.93 167.441 160.929C170.025 159.097 172.814 157.582 175.75 156.414C175.839 156.38 175.928 156.345 176.02 156.314C177.342 155.817 178.703 155.43 180.087 155.157C180.846 155.01 181.612 154.902 182.381 154.833C184.37 154.659 186.374 154.803 188.319 155.258C192.196 156.167 195.742 158.319 197.842 161.675C197.896 161.761 197.948 161.846 198 161.933Z" fill="#E6E6E6"/>
<path d="M197.783 161.967C193.448 159.627 188.446 158.642 183.487 159.151C182.417 159.243 181.369 159.493 180.382 159.894C179.434 160.314 178.621 160.967 178.029 161.786C177.461 162.538 176.972 163.37 176.22 163.979C175.831 164.285 175.378 164.509 174.89 164.638C174.403 164.766 173.892 164.795 173.392 164.723C172.141 164.575 171.021 164.009 169.946 163.42C168.752 162.766 167.523 162.068 166.114 161.973C165.944 161.962 165.973 161.711 166.143 161.723C168.593 161.888 170.383 163.745 172.69 164.335C173.766 164.611 174.936 164.581 175.859 163.93C176.667 163.361 177.172 162.503 177.741 161.736C178.306 160.93 179.071 160.267 179.969 159.806C180.931 159.359 181.967 159.07 183.032 158.952C185.424 158.651 187.852 158.708 190.225 159.121C192.937 159.579 195.547 160.473 197.941 161.765C198.089 161.845 197.93 162.047 197.783 161.967V161.967Z" fill="white"/>
<path d="M185 158.642C185.021 157.933 185.321 157.255 185.845 156.728C186.368 156.2 187.083 155.858 187.86 155.763C188.018 155.744 188.057 155.964 187.9 155.983C187.176 156.071 186.51 156.389 186.024 156.881C185.537 157.373 185.261 158.006 185.245 158.666C185.242 158.809 184.997 158.784 185 158.642V158.642Z" fill="white"/>
<path d="M178.248 161.815C179.457 163.346 181.112 164.284 182.882 164.441C183.058 164.457 183.028 164.777 182.853 164.761C181.011 164.593 179.291 163.613 178.035 162.017C177.916 161.865 178.129 161.664 178.248 161.815H178.248Z" fill="white"/>
<path d="M192.377 159.895C192.286 160.19 192.292 160.497 192.394 160.79C192.495 161.082 192.689 161.351 192.959 161.571C193.097 161.684 192.853 161.834 192.715 161.722C192.419 161.478 192.205 161.181 192.092 160.858C191.979 160.535 191.97 160.195 192.066 159.869C192.072 159.838 192.093 159.809 192.125 159.789C192.157 159.769 192.197 159.76 192.238 159.762C192.279 159.766 192.317 159.782 192.343 159.806C192.369 159.831 192.381 159.863 192.377 159.895Z" fill="white"/>
<path d="M60.1577 150.714C63.8269 145.08 70.3906 141.004 77 141.881C71.7521 146.944 68.4422 153.724 67.6559 161.02C67.3628 163.835 67.3262 166.997 65.3375 168.986C64.1001 170.224 62.2983 170.743 60.5589 170.761C58.8194 170.779 57.1097 170.347 55.4226 169.917L55 170.018C55.2816 163.275 56.4885 156.349 60.1577 150.714Z" fill="#E6E6E6"/>
<path d="M76.902 142.059C71.8077 144.136 67.4896 147.784 64.561 152.486C63.9128 153.486 63.4245 154.584 63.1142 155.739C62.8478 156.874 62.8866 158.06 63.2264 159.174C63.5227 160.22 63.9454 161.255 63.9853 162.355C63.9975 162.918 63.8918 163.478 63.6753 163.997C63.4587 164.517 63.1361 164.984 62.7286 165.368C61.7379 166.352 60.4569 166.917 59.1852 167.426C57.7731 167.991 56.2976 168.555 55.2479 169.715C55.1207 169.856 54.9126 169.648 55.0396 169.507C56.866 167.489 59.7802 167.281 61.895 165.698C62.8819 164.96 63.6547 163.916 63.6939 162.634C63.7281 161.514 63.2931 160.447 62.9841 159.391C62.6368 158.308 62.5567 157.156 62.7507 156.036C63.002 154.869 63.4476 153.754 64.0686 152.738C65.4305 150.429 67.1428 148.351 69.1427 146.58C71.4141 144.546 74.0126 142.92 76.8257 141.773C76.9998 141.702 77.0749 141.988 76.9019 142.059L76.902 142.059Z" fill="white"/>
<path d="M65.6928 151.72C64.8326 151.019 64.2566 150.043 64.0676 148.967C63.8786 147.891 64.0889 146.784 64.661 145.845C64.7775 145.656 65.0858 145.823 64.9693 146.013C64.4349 146.886 64.239 147.917 64.4171 148.918C64.5952 149.92 65.1355 150.827 65.9405 151.475C66.1152 151.616 65.8665 151.86 65.6928 151.72Z" fill="white"/>
<path d="M63.1306 158.441C64.9046 158.277 66.5603 157.338 67.7677 155.812C67.8872 155.661 68.0821 155.885 67.9627 156.036C66.7037 157.622 64.9789 158.595 63.1326 158.761C62.9567 158.777 62.9556 158.457 63.1306 158.441H63.1306Z" fill="white"/>
<path d="M71.3192 144.797C71.6135 145.042 71.9958 145.235 72.4318 145.359C72.8678 145.483 73.3439 145.533 73.8172 145.507C74.0599 145.492 74.0611 145.741 73.82 145.755C73.2968 145.783 72.7712 145.726 72.289 145.59C71.8068 145.454 71.3827 145.242 71.0539 144.974C71.0196 144.95 71.0004 144.919 71 144.886C70.9996 144.854 71.0182 144.822 71.0519 144.798C71.0872 144.775 71.1351 144.762 71.1851 144.762C71.2352 144.761 71.2834 144.774 71.3192 144.797H71.3192Z" fill="white"/>
<path d="M89 161.055C88.8836 161.069 88.7671 161.083 88.6495 161.098C87.0849 161.288 85.5385 161.604 84.0256 162.041C83.9081 162.073 83.7895 162.108 83.6732 162.143C80.0397 163.235 76.6433 164.985 73.6564 167.302C72.4688 168.225 71.3539 169.236 70.3216 170.326C68.8959 171.831 67.4715 173.576 65.6783 174.501C65.4923 174.599 65.3003 174.687 65.1034 174.762L55.4452 170.046C55.4286 170.025 55.411 170.005 55.3943 169.984L55 169.813C55.0493 169.753 55.1017 169.692 55.1509 169.632C55.1794 169.597 55.2099 169.563 55.2384 169.528C55.258 169.505 55.2778 169.483 55.2942 169.461C55.3007 169.453 55.3073 169.446 55.3127 169.44C55.3291 169.418 55.3467 169.4 55.362 169.38C55.6539 169.038 55.9488 168.697 56.2467 168.358C56.2478 168.356 56.2478 168.356 56.251 168.355C58.5271 165.775 61.0412 163.36 63.8466 161.399C63.931 161.34 64.0164 161.279 64.1052 161.222C65.3747 160.345 66.7147 159.572 68.1117 158.911C68.8779 158.551 69.662 158.23 70.461 157.948C72.5271 157.225 74.6955 156.827 76.8867 156.769C81.255 156.654 85.6119 157.92 88.7616 160.831C88.8421 160.905 88.9206 160.979 89 161.055Z" fill="#E6E6E6"/>
<path d="M88.7988 160.937C83.5124 159.521 77.9118 159.798 72.7924 161.728C71.6829 162.124 70.6431 162.691 69.7113 163.409C68.8263 164.138 68.1536 165.089 67.7631 166.163C67.3788 167.158 67.1016 168.22 66.4808 169.104C66.1563 169.552 65.7403 169.927 65.2599 170.204C64.7796 170.481 64.2458 170.654 63.6936 170.711C62.3215 170.89 60.9666 170.567 59.6527 170.206C58.1939 169.805 56.685 169.365 55.1615 169.646C54.9769 169.68 54.9345 169.393 55.1189 169.36C57.7696 168.871 60.2122 170.448 62.8342 170.472C64.0577 170.483 65.292 170.128 66.0831 169.149C66.7749 168.293 67.0618 167.198 67.4421 166.188C67.8076 165.134 68.4269 164.185 69.2461 163.424C70.1381 162.661 71.1542 162.055 72.2508 161.631C74.7044 160.638 77.2997 160.034 79.9417 159.843C82.9558 159.607 85.9881 159.887 88.9076 160.668C89.0882 160.717 88.9783 160.985 88.7988 160.937Z" fill="white"/>
<path d="M74.1149 161.635C73.8762 160.659 74.012 159.634 74.498 158.744C74.9839 157.853 75.7885 157.155 76.7678 156.774C76.9663 156.698 77.101 156.986 76.9023 157.063C75.9896 157.416 75.2403 158.066 74.7895 158.896C74.3388 159.726 74.2164 160.681 74.4443 161.589C74.4936 161.787 74.1639 161.831 74.1149 161.635H74.1149Z" fill="white"/>
<path d="M67.2858 165.795C69.2202 167.157 71.5478 167.663 73.8045 167.212C74.028 167.167 74.0793 167.553 73.856 167.598C71.5069 168.063 69.0856 167.531 67.0754 166.108C66.8839 165.972 67.0953 165.66 67.2858 165.795V165.795Z" fill="white"/>
<path d="M86.2709 110.089C86.5284 109.856 86.7266 109.574 86.8515 109.264C86.9764 108.953 87.025 108.621 86.9939 108.292C86.9628 107.962 86.8528 107.643 86.6715 107.356C86.4902 107.07 86.2421 106.823 85.9447 106.633L90 88.7617L85.6248 90.0186L82.3621 107.308C82.045 107.784 81.9307 108.349 82.0409 108.897C82.151 109.445 82.478 109.937 82.9598 110.279C83.4416 110.622 84.0448 110.792 84.655 110.757C85.2653 110.722 85.8403 110.484 86.2709 110.089Z" fill="#FFB6B6"/>
<path d="M94.3268 61.6522L91.9184 59.7625C91.9184 59.7625 89.7939 59.6062 89.4176 63.5887C89.0413 67.5711 86.6853 82.8558 86.6853 82.8558L83 100.598L88.1015 101.762L92.0487 82.615L96 69.4057L94.3268 61.6522Z" fill="#E6E6E6"/>
<path d="M92.9344 94.5706L80.3612 85.0751C80.1654 84.9268 80.0381 84.7092 80.0073 84.4699C79.9764 84.2306 80.0446 83.9892 80.1968 83.7987L88.7514 73.1126C88.9041 72.9223 89.1281 72.7987 89.3745 72.7688C89.6209 72.7388 89.8694 72.805 90.0656 72.9528L102.639 82.4484C102.835 82.5966 102.962 82.8143 102.993 83.0535C103.024 83.2928 102.955 83.5342 102.803 83.7248L94.2486 94.4109C94.0959 94.6011 93.8718 94.7247 93.6255 94.7547C93.3791 94.7846 93.1306 94.7184 92.9344 94.5706Z" fill="#3F3D56"/>
<path d="M92.305 92.6005L81.3066 84.3416C81.1404 84.2165 81.0323 84.0329 81.0062 83.8309C80.98 83.629 81.0378 83.4253 81.167 83.2645L88.5797 74.0578C88.7092 73.8973 88.8994 73.7929 89.1085 73.7677C89.3176 73.7424 89.5285 73.7983 89.695 73.923L100.693 82.1818C100.86 82.3069 100.968 82.4906 100.994 82.6925C101.02 82.8944 100.962 83.0981 100.833 83.2589L93.4203 92.4657C93.2908 92.6262 93.1006 92.7305 92.8915 92.7558C92.6824 92.781 92.4715 92.7252 92.305 92.6005Z" fill="white"/>
<path d="M83.0741 83.7296C83.0339 83.7048 83.0078 83.6682 83.0015 83.6281C82.9952 83.5879 83.0091 83.5474 83.0404 83.5155L86.6562 79.8207C86.6875 79.7887 86.7335 79.7679 86.784 79.7629C86.8091 79.7604 86.8345 79.7619 86.8588 79.7672C86.8831 79.7725 86.9059 79.7816 86.9258 79.7939C86.9457 79.8062 86.9624 79.8215 86.9749 79.8389C86.9874 79.8563 86.9954 79.8755 86.9985 79.8954C87.0016 79.9153 86.9998 79.9355 86.9931 79.9548C86.9865 79.9741 86.975 79.9922 86.9595 80.0081L83.3437 83.7028C83.3124 83.7348 83.2664 83.7555 83.2159 83.7605C83.1653 83.7656 83.1143 83.7545 83.0741 83.7296Z" fill="#E4E4E4"/>
<path d="M83.0926 84.7216C83.0424 84.6905 83.0098 84.6449 83.0019 84.5947C82.994 84.5445 83.0114 84.4938 83.0505 84.4539L87.5703 79.8354C87.6094 79.7955 87.6668 79.7695 87.73 79.7632C87.7932 79.7569 87.857 79.7708 87.9073 79.8019C87.9576 79.833 87.9902 79.8786 87.9981 79.9288C88.006 79.979 87.9885 80.0297 87.9494 80.0696L83.4296 84.6881C83.3905 84.728 83.333 84.754 83.2699 84.7602C83.2067 84.7665 83.1429 84.7526 83.0926 84.7216Z" fill="#E4E4E4"/>
<path d="M87.038 82.7113C87.0174 82.6721 87.004 82.6147 87.0008 82.5515C86.9975 82.4883 87.0047 82.4246 87.0207 82.3743L87.8237 79.8548C87.8317 79.8298 87.8415 79.8089 87.8528 79.7933C87.864 79.7776 87.8764 79.7675 87.8893 79.7636C87.9021 79.7597 87.9151 79.7619 87.9276 79.7703C87.9401 79.7786 87.9518 79.7929 87.962 79.8123C87.9722 79.8317 87.9808 79.8558 87.9871 79.8832C87.9935 79.9107 87.9977 79.9409 87.9992 79.9722C88.0008 80.0036 87.9999 80.0353 87.9964 80.0658C87.993 80.0962 87.9871 80.1247 87.9792 80.1496L87.1761 82.6691C87.1601 82.7193 87.1365 82.7519 87.1106 82.7599C87.0847 82.7678 87.0586 82.7503 87.038 82.7113Z" fill="#E4E4E4"/>
<path d="M87.073 86.7251C87.0334 86.6968 87.0077 86.6551 87.0015 86.6093C86.9952 86.5635 87.009 86.5173 87.0398 86.4809L92.6614 79.8289C92.6767 79.8109 92.6957 79.7958 92.7173 79.7845C92.7388 79.7732 92.7627 79.7659 92.7873 79.7631C92.812 79.7602 92.837 79.7619 92.8609 79.7679C92.8849 79.774 92.9073 79.7843 92.9269 79.7984C92.9465 79.8124 92.963 79.8299 92.9753 79.8497C92.9875 79.8696 92.9955 79.8915 92.9985 79.9142C93.0016 79.9369 92.9998 79.9599 92.9932 79.9819C92.9866 80.004 92.9754 80.0246 92.9602 80.0426L87.3385 86.6946C87.3076 86.731 87.2624 86.7546 87.2126 86.7604C87.1628 86.7661 87.1126 86.7534 87.073 86.7251Z" fill="#E4E4E4"/>
<path d="M88.073 86.7251C88.0334 86.6968 88.0077 86.6551 88.0015 86.6093C87.9952 86.5635 88.009 86.5173 88.0398 86.4809L93.6614 79.8289C93.6767 79.8109 93.6956 79.7958 93.7172 79.7845C93.7388 79.7732 93.7626 79.7659 93.7873 79.7631C93.812 79.7602 93.837 79.7619 93.8609 79.7679C93.8849 79.774 93.9073 79.7843 93.9269 79.7984C93.9465 79.8124 93.963 79.8299 93.9752 79.8497C93.9875 79.8696 93.9955 79.8915 93.9985 79.9142C94.0016 79.9369 93.9998 79.9599 93.9932 79.9819C93.9866 80.004 93.9754 80.0246 93.9602 80.0427L88.3385 86.6946C88.3077 86.731 88.2624 86.7546 88.2126 86.7604C88.1628 86.7661 88.1126 86.7534 88.073 86.7251Z" fill="#E4E4E4"/>
<path d="M90.073 88.7147C90.0334 88.6782 90.0077 88.6247 90.0015 88.5658C89.9952 88.5069 90.009 88.4475 90.0398 88.4006L95.6614 79.8481C95.6767 79.8249 95.6957 79.8055 95.7173 79.791C95.7388 79.7765 95.7627 79.7671 95.7873 79.7635C95.812 79.7598 95.837 79.7619 95.8609 79.7697C95.8849 79.7775 95.9073 79.7908 95.9269 79.8088C95.9465 79.8269 95.963 79.8493 95.9752 79.8749C95.9875 79.9004 95.9955 79.9286 95.9985 79.9577C96.0016 79.9869 95.9998 80.0165 95.9932 80.0448C95.9866 80.0732 95.9754 80.0997 95.9602 80.1229L90.3385 88.6754C90.3076 88.7222 90.2624 88.7526 90.2126 88.76C90.1628 88.7674 90.1126 88.7511 90.073 88.7147Z" fill="#E4E4E4"/>
<path d="M90.073 88.7199C90.0334 88.6875 90.0077 88.6399 90.0015 88.5876C89.9952 88.5352 90.009 88.4824 90.0398 88.4407L95.6614 80.8385C95.6767 80.8179 95.6956 80.8007 95.7172 80.7877C95.7388 80.7748 95.7626 80.7665 95.7873 80.7633C95.812 80.76 95.837 80.7619 95.8609 80.7688C95.8849 80.7758 95.9073 80.7876 95.9269 80.8036C95.9465 80.8196 95.963 80.8396 95.9752 80.8623C95.9875 80.885 95.9955 80.91 95.9985 80.936C96.0016 80.9619 95.9998 80.9882 95.9932 81.0134C95.9866 81.0386 95.9754 81.0622 95.9602 81.0828L90.3385 88.685C90.3077 88.7266 90.2624 88.7536 90.2126 88.7602C90.1628 88.7667 90.1126 88.7523 90.073 88.7199Z" fill="#E4E4E4"/>
<path d="M91.073 89.7199C91.0334 89.6875 91.0077 89.6399 91.0015 89.5876C90.9952 89.5352 91.009 89.4824 91.0398 89.4408L96.6614 81.8385C96.6767 81.8179 96.6957 81.8007 96.7173 81.7877C96.7388 81.7748 96.7627 81.7665 96.7873 81.7633C96.812 81.76 96.837 81.7619 96.8609 81.7688C96.8849 81.7758 96.9073 81.7876 96.9269 81.8036C96.9465 81.8196 96.963 81.8396 96.9752 81.8623C96.9875 81.885 96.9955 81.91 96.9985 81.936C97.0016 81.9619 96.9998 81.9882 96.9932 82.0134C96.9866 82.0386 96.9754 82.0622 96.9602 82.0828L91.3385 89.685C91.3076 89.7266 91.2624 89.7536 91.2126 89.7602C91.1628 89.7667 91.1126 89.7522 91.073 89.7199Z" fill="#E4E4E4"/>
<path d="M92.073 90.7199C92.0334 90.6875 92.0077 90.6399 92.0015 90.5875C91.9952 90.5352 92.009 90.4824 92.0398 90.4407L97.6618 82.8381C97.6926 82.7966 97.7379 82.7697 97.7876 82.7632C97.8373 82.7568 97.8874 82.7713 97.9269 82.8036C97.9665 82.8359 97.9922 82.8834 97.9985 82.9357C98.0048 82.9879 97.9911 83.0406 97.9605 83.0823L92.3385 90.685C92.3077 90.7266 92.2624 90.7536 92.2126 90.7602C92.1628 90.7667 92.1126 90.7522 92.073 90.7199Z" fill="#E4E4E4"/>
<path d="M94.1939 43.1403C93.9044 44.757 93.4297 46.3319 92.7799 47.8314C89.0591 56.0133 99.6553 53.3464 103.442 53.3464C107.582 53.3464 111.544 55.6094 110.939 45.5541C110.68 41.2589 107.582 37.7617 103.442 37.7617C99.9056 37.7617 94.9334 39.3956 94.1939 43.1403Z" fill="#2F2E41"/>
<path d="M107 157.762H103.612L102 143.762H107V157.762Z" fill="#FFB6B6"/>
<path d="M109 163.762H106.338L105.863 161.337L104.646 163.762H97.587C97.2486 163.762 96.9191 163.657 96.6465 163.464C96.3739 163.27 96.1726 162.998 96.0719 162.686C95.9712 162.374 95.9764 162.04 96.0867 161.731C96.1971 161.422 96.4068 161.156 96.6853 160.97L102.323 157.213V154.762L108.252 155.103L109 163.762Z" fill="#2F2E41"/>
<path d="M128 152.66L125.238 154.762L116 144.863L120.077 141.762L128 152.66Z" fill="#FFB6B6"/>
<path d="M133 157.089L130.991 158.576L129.221 156.953L129.713 159.522L124.384 163.468C124.128 163.657 123.819 163.76 123.501 163.762C123.182 163.763 122.872 163.664 122.614 163.477C122.357 163.29 122.166 163.027 122.07 162.725C121.974 162.423 121.977 162.098 122.079 161.798L124.149 155.72L122.723 153.81L127.398 150.762L133 157.089Z" fill="#2F2E41"/>
<path d="M96 95.7617L112 93.0764L108.818 82.7617H96V95.7617Z" fill="#FFB6B6"/>
<path d="M110.794 87.7617C110.794 87.7617 117.553 93.5344 114.434 109.991L110.627 126.115L121 143.918L115.726 146.762L102.943 129.199L97.094 115.635L94 91.8637L110.794 87.7617Z" fill="#121212"/>
<path d="M100.445 118.762L100 125.064L101.303 143.726L107.775 145.762L109 126.641L100.445 118.762Z" fill="#121212"/>
<path d="M98.7592 53.7617L105.363 54.0219L107.995 58.4343L114 59.6182L110.415 77.9336L111.074 88.3586L105.095 88.3217C100.786 88.2952 96.6189 89.8763 93.393 92.7617L93.5719 79.2293L91 69.1276L91.578 58.5352L96.4087 57.9254L98.7592 53.7617Z" fill="#1B403A"/>
<path d="M102.5 52.7617C106.09 52.7617 109 50.0754 109 46.7617C109 43.448 106.09 40.7617 102.5 40.7617C98.9101 40.7617 96 43.448 96 46.7617C96 50.0754 98.9101 52.7617 102.5 52.7617Z" fill="#FFB6B6"/>
<path d="M98.3538 40.6576C99.4249 40.086 100.652 39.7767 101.906 39.7623C103.16 39.7478 104.396 40.0286 105.484 40.5753C106.572 41.122 107.472 41.9146 108.09 42.8701C108.709 43.8256 109.022 44.909 108.999 46.007C105.884 46.6915 102.612 47.2154 99.2905 46.1707L98.5061 44.4901L98.0437 46.172C97.0322 46.5339 96.018 46.8401 95.0039 46.1685C94.9625 45.0736 95.2501 43.9884 95.838 43.0213C96.4258 42.0542 97.2933 41.2391 98.3538 40.6576Z" fill="#2F2E41"/>
<path d="M113.04 100.031L113.856 108.069C113.913 108.27 114.028 108.445 114.183 108.57C114.339 108.694 114.527 108.762 114.72 108.762H118.482C118.676 108.762 118.864 108.694 119.02 108.57C119.175 108.445 119.29 108.27 119.347 108.069L120.023 101.909C120.218 102.012 120.433 102.065 120.65 102.061C120.867 102.057 121.081 101.997 121.272 101.886C121.464 101.775 121.629 101.616 121.753 101.423C121.878 101.229 121.958 101.007 121.987 100.773C122.017 100.54 121.995 100.302 121.923 100.079C121.851 99.8564 121.732 99.6555 121.575 99.4927C121.417 99.3299 121.227 99.21 121.019 99.1427C120.81 99.0755 120.59 99.0628 120.377 99.1058C120.292 98.9977 120.187 98.9109 120.069 98.8515C119.95 98.792 119.821 98.7614 119.691 98.7617H113.904C113.763 98.7617 113.623 98.7978 113.497 98.8669C113.371 98.9361 113.261 99.0365 113.177 99.16C113.093 99.2835 113.037 99.4267 113.013 99.578C112.989 99.7294 112.998 99.8847 113.04 100.031ZM120.141 101.492L120.555 100.031C120.603 99.8629 120.607 99.6834 120.568 99.5121C120.586 99.5111 120.603 99.5064 120.621 99.5064C120.881 99.5064 121.13 99.6185 121.314 99.818C121.498 100.017 121.601 100.288 121.601 100.57C121.601 100.852 121.498 101.123 121.314 101.322C121.13 101.522 120.881 101.634 120.621 101.634C120.452 101.633 120.287 101.584 120.141 101.492Z" fill="#FF783E"/>
<path d="M118.66 108.082C118.401 107.848 118.201 107.565 118.076 107.254C117.952 106.944 117.904 106.612 117.938 106.283C117.971 105.954 118.084 105.636 118.27 105.35C118.455 105.065 118.708 104.819 119.011 104.631L115 86.7617L119.429 88.0373L122.639 105.322C122.958 105.799 123.071 106.364 122.956 106.91C122.841 107.457 122.507 107.947 122.017 108.287C121.526 108.627 120.914 108.794 120.295 108.756C119.676 108.719 119.095 108.479 118.66 108.082Z" fill="#FFB6B6"/>
<path d="M111.673 61.6972L114.082 59.7626C114.082 59.7626 116.206 59.6025 116.582 63.6798C116.959 67.7571 119.315 83.4057 119.315 83.4057L123 101.57L117.899 102.762L113.951 83.1591L110 69.6353L111.673 61.6972Z" fill="#E6E6E6"/>
<path d="M89.5 78.7617C90.3284 78.7617 91 78.314 91 77.7617C91 77.2094 90.3284 76.7617 89.5 76.7617C88.6716 76.7617 88 77.2094 88 77.7617C88 78.314 88.6716 78.7617 89.5 78.7617Z" fill="#FF783E"/>
<path d="M44.0005 174.762L47.3883 174.761L49 162.762L44 162.762L44.0005 174.762Z" fill="#FFB6B6"/>
<path d="M44 173.3L44.7856 173.3L47.8529 171.762L49.4968 173.3H49.497C50.426 173.3 51.317 173.755 51.9739 174.566C52.6308 175.376 52.9999 176.475 53 177.621V177.761L44.0002 177.762L44 173.3Z" fill="#2F2E41"/>
<path d="M56 172.153L58.9829 172.762L63 162.66L58.5976 161.762L56 172.153Z" fill="#FFB6B6"/>
<path d="M54.896 171.2L55.758 171.406L59.4326 170.762L60.9274 172.642L60.9276 172.642C61.947 172.885 62.8331 173.548 63.3911 174.483C63.9492 175.419 64.1334 176.55 63.9033 177.629L63.875 177.762L54 175.401L54.896 171.2Z" fill="#2F2E41"/>
<path d="M39 114.896L41.6726 145.131C41.6726 145.131 40.6712 163.282 43.9025 169.669H48.5888L50.9091 143.473L51.2004 125.89L61.2473 140.724L54.8481 169.241L60.6158 169.762L71 138.814L59.5917 109.762L39 114.896Z" fill="#121212"/>
<path d="M41 67.7617C44.866 67.7617 48 64.6277 48 60.7617C48 56.8957 44.866 53.7617 41 53.7617C37.134 53.7617 34 56.8957 34 60.7617C34 64.6277 37.134 67.7617 41 67.7617Z" fill="#FFB8B8"/>
<path d="M53.7051 74.0764L48.1266 71.6644L45.4109 68.7617L38.6268 69.8643L36.8268 72.9743L31 78.4342L37.8268 109.54L37.6201 116.333C37.6201 116.333 41.9895 118.316 60.9385 113.752C61.1657 113.697 60.6901 113.457 60.6901 113.457L53.7051 74.0764Z" fill="#1B403A"/>
<path d="M48.4688 55.0571C48.0069 54.0592 47.1834 53.2701 46.1618 52.8467C45.1493 52.4416 44.0177 52.4426 43.0059 52.8494C42.0924 52.277 41.0774 51.8232 40.0085 51.767C38.9396 51.7108 37.8094 52.1041 37.1507 52.9699C37.0036 53.1984 36.8365 53.4137 36.6514 53.6132C36.1219 54.0996 35.3172 54.0294 34.6134 53.93C34.9291 54.1983 35.2448 54.4667 35.5606 54.735C35.1785 54.834 34.7964 54.933 34.4142 55.032C34.8601 55.3003 35.3061 55.5685 35.7519 55.8368C34.4574 56.6075 33.869 58.2895 34.0244 59.8172C34.1714 61.2636 34.8755 62.5862 35.7171 63.7617C36.0528 63.059 35.9805 62.2182 35.975 61.4268C35.9692 60.5905 36.1183 59.6409 36.7939 59.1736C37.2497 58.8583 37.8357 58.8443 38.3853 58.8472C41.1574 58.8623 43.9264 59.0338 46.6789 59.3608C47.0524 59.3768 47.4166 59.4816 47.7408 59.6662C48.3495 60.0781 48.4681 60.9281 48.5292 61.6737C48.8508 60.4425 49.0082 59.1748 48.9973 57.903C49.0244 56.9281 48.8443 55.9585 48.4688 55.0571Z" fill="#2F2E41"/>
<path d="M50.5 136.762C56.299 136.762 61 131.837 61 125.762C61 119.687 56.299 114.762 50.5 114.762C44.701 114.762 40 119.687 40 125.762C40 131.837 44.701 136.762 50.5 136.762Z" fill="white"/>
<path d="M51 113.762C50.4469 113.762 49.8945 113.803 49.3476 113.886C49.0678 113.927 48.7953 113.979 48.525 114.044C46.5398 114.502 44.7208 115.502 43.2709 116.934C41.821 118.365 40.7973 120.171 40.3139 122.151C39.8306 124.13 39.9066 126.205 40.5335 128.144C41.1605 130.083 42.3136 131.809 43.8644 133.131C44.0485 133.286 44.235 133.437 44.4287 133.58C45.8248 134.621 47.448 135.316 49.1649 135.607C50.8818 135.898 52.6433 135.777 54.3043 135.254C55.9654 134.731 57.4785 133.821 58.7192 132.599C59.9599 131.377 60.8928 129.878 61.4409 128.224C61.9891 126.571 62.1369 124.811 61.8722 123.09C61.6076 121.368 60.938 119.734 59.9185 118.322C58.8991 116.91 57.559 115.76 56.0085 114.967C54.458 114.175 52.7414 113.761 51 113.762V113.762ZM51 135.288C48.7627 135.291 46.5836 134.575 44.7826 133.248C44.5866 133.104 44.3976 132.956 44.2135 132.798C42.7026 131.523 41.5816 129.849 40.9789 127.966C40.3763 126.083 40.3164 124.068 40.8062 122.153C41.296 120.237 42.3156 118.499 43.7481 117.136C45.1806 115.774 46.968 114.843 48.9053 114.451C49.173 114.396 49.4409 114.352 49.7135 114.319C50.1403 114.266 50.57 114.24 51 114.24C53.7905 114.24 56.4668 115.349 58.44 117.322C60.4132 119.296 61.5218 121.973 61.5218 124.764C61.5218 127.555 60.4132 130.232 58.44 132.206C56.4668 134.179 53.7905 135.288 51 135.288Z" fill="#3F3D56"/>
<path d="M44.7613 123.762H56.2387C56.6592 123.762 57 123.325 57 122.786V122.738C57 122.199 56.6592 121.762 56.2387 121.762H44.7613C44.3408 121.762 44 122.199 44 122.738V122.786C44 123.325 44.3408 123.762 44.7613 123.762Z" fill="#FF783E"/>
<path d="M44.7613 128.762H56.2387C56.6592 128.762 57 128.543 57 128.274V128.25C57 127.98 56.6592 127.762 56.2387 127.762H44.7613C44.3408 127.762 44 127.98 44 128.25V128.274C44 128.543 44.3408 128.762 44.7613 128.762Z" fill="#FF783E"/>
<path d="M172 173.762L169.289 173.761L168 161.762L172 161.762L172 173.762Z" fill="#9E616A"/>
<path d="M157.999 173.762L154.612 173.761L153 161.762L158 161.762L157.999 173.762Z" fill="#9E616A"/>
<path d="M158 177.762L149 177.761V177.621C149 176.475 149.369 175.376 150.026 174.566C150.683 173.755 151.574 173.3 152.503 173.3H152.503L154.147 171.762L157.214 173.3L158 173.3L158 177.762Z" fill="#2F2E41"/>
<path d="M173 177.762L163 177.761V177.621C163 176.475 163.41 175.376 164.14 174.566C164.87 173.755 165.86 173.3 166.892 173.3H166.892L168.719 171.762L172.127 173.3L173 173.3L173 177.762Z" fill="#2F2E41"/>
<path d="M154.309 102.74L149.416 131.42L150.747 135.693L149 138.72L151.566 165.302L150.524 167.51L153.435 169.237H159.356L159.671 145.172L161.134 141.639V139.692L164.111 125.018L164.66 145.568L165.526 149.107L164.798 151.626L165.749 153.392L168.274 169.762H174.915L174.401 165.953C174.979 165.671 175.444 165.212 175.722 164.649C176 164.085 176.075 163.448 175.936 162.838L175.556 161.169L176.422 156.233L178 128.698L177.555 106.48L169.787 100.762L154.309 102.74Z" fill="#121212"/>
<path d="M165.5 65.7617C169.09 65.7617 172 63.0754 172 59.7617C172 56.448 169.09 53.7617 165.5 53.7617C161.91 53.7617 159 56.448 159 59.7617C159 63.0754 161.91 65.7617 165.5 65.7617Z" fill="#9E616A"/>
<path d="M152.888 114.936C153.175 114.657 153.394 114.322 153.528 113.955C153.663 113.588 153.71 113.198 153.667 112.812C153.624 112.426 153.491 112.053 153.279 111.72C153.066 111.388 152.779 111.103 152.437 110.886L155 101.762L150.061 103.325L148.384 111.75C148.035 112.315 147.919 112.981 148.057 113.622C148.195 114.263 148.577 114.833 149.133 115.226C149.688 115.619 150.377 115.806 151.069 115.753C151.761 115.699 152.409 115.409 152.888 114.936H152.888Z" fill="#9E616A"/>
<path d="M154.75 71.9593L153.806 71.7617L153 72.2113C153 72.2113 150.75 75.2355 150.75 78.0077C150.75 80.7799 148 107.494 148 107.494L153 109.762L157 88.8444L154.75 71.9593Z" fill="#E6E6E6"/>
<path d="M170.358 55.6076C170.358 55.6076 171.802 52.4598 168.625 52.1736C168.625 52.1736 165.918 49.3722 163.158 51.6615C163.158 51.6615 161.652 51.6615 160.829 53.6045C160.829 53.6045 159.645 53.0923 159.385 54.463C159.385 54.463 158.519 57.3246 159.385 59.9001C160.251 62.4756 160.539 62.7617 160.539 62.7617C160.539 62.7617 159.116 57.3621 162.581 57.0759C166.046 56.7898 169.924 54.3199 170.212 57.4677C170.501 60.6155 170.936 61.3911 170.936 61.3911C170.936 61.3911 173.679 56.8954 170.358 55.6076Z" fill="#2F2E41"/>
<path d="M192.31 138.762C191.85 138.762 191.406 138.595 191.064 138.292L172.628 122.094C172.257 121.767 172.032 121.308 172.003 120.817C171.974 120.327 172.144 119.845 172.474 119.478L184.284 106.382C184.616 106.015 185.081 105.793 185.578 105.765C186.075 105.736 186.563 105.904 186.935 106.23L205.371 122.428C205.743 122.755 205.968 123.214 205.997 123.705C206.026 124.196 205.856 124.678 205.525 125.045L193.715 138.14C193.551 138.323 193.353 138.471 193.131 138.577C192.909 138.683 192.668 138.745 192.421 138.758C192.384 138.761 192.347 138.762 192.31 138.762Z" fill="white"/>
<path d="M192.286 138.762C191.8 138.762 191.331 138.586 190.969 138.266L172.664 122.184C172.271 121.838 172.034 121.353 172.003 120.835C171.973 120.316 172.152 119.807 172.501 119.419L184.228 106.417C184.578 106.03 185.07 105.795 185.595 105.765C186.12 105.735 186.636 105.912 187.03 106.256L205.335 122.339C205.728 122.684 205.966 123.169 205.997 123.688C206.027 124.206 205.848 124.716 205.498 125.104L193.771 138.105C193.598 138.298 193.389 138.455 193.154 138.567C192.919 138.679 192.664 138.744 192.404 138.758C192.365 138.761 192.325 138.762 192.286 138.762ZM185.711 106.234C185.498 106.234 185.288 106.278 185.094 106.364C184.9 106.45 184.727 106.575 184.586 106.732L172.859 119.733C172.594 120.028 172.458 120.414 172.482 120.807C172.505 121.2 172.685 121.568 172.983 121.831L191.288 137.913C191.436 138.042 191.608 138.142 191.795 138.206C191.981 138.27 192.179 138.297 192.376 138.286C192.574 138.275 192.767 138.225 192.945 138.14C193.123 138.055 193.282 137.936 193.413 137.791L205.14 124.789C205.405 124.495 205.541 124.109 205.518 123.715C205.495 123.322 205.315 122.954 205.016 122.692L186.711 106.61C186.436 106.367 186.08 106.234 185.711 106.234H185.711Z" fill="#3F3D56"/>
<path d="M199.192 126.762C198.994 126.762 198.803 126.691 198.655 126.564L184.273 114.133C184.193 114.065 184.128 113.982 184.082 113.889C184.035 113.796 184.008 113.696 184.001 113.593C183.995 113.49 184.01 113.386 184.045 113.289C184.079 113.191 184.134 113.102 184.204 113.024C184.275 112.947 184.361 112.885 184.456 112.84C184.552 112.795 184.656 112.769 184.762 112.763C184.868 112.757 184.974 112.772 185.075 112.806C185.175 112.84 185.267 112.893 185.347 112.962L199.729 125.392C199.852 125.498 199.938 125.637 199.977 125.792C200.016 125.946 200.005 126.108 199.947 126.257C199.889 126.406 199.785 126.533 199.65 126.624C199.516 126.714 199.356 126.762 199.192 126.762Z" fill="#FF783E"/>
<path d="M196.192 128.762C195.994 128.762 195.803 128.696 195.655 128.578L181.271 117.034C181.191 116.97 181.127 116.893 181.081 116.807C181.034 116.721 181.007 116.627 181.001 116.532C180.995 116.437 181.01 116.341 181.045 116.251C181.08 116.16 181.134 116.077 181.204 116.006C181.275 115.934 181.36 115.876 181.456 115.834C181.551 115.793 181.655 115.768 181.761 115.763C181.867 115.757 181.973 115.771 182.073 115.802C182.173 115.834 182.265 115.882 182.345 115.946L196.729 127.49C196.852 127.588 196.938 127.718 196.977 127.861C197.016 128.004 197.005 128.155 196.947 128.293C196.889 128.431 196.785 128.55 196.65 128.633C196.515 128.717 196.355 128.762 196.192 128.762H196.192Z" fill="#FF783E"/>
<path d="M194.141 132.762C193.931 132.762 193.728 132.691 193.571 132.563L178.288 120.132C178.204 120.064 178.135 119.981 178.086 119.888C178.037 119.795 178.008 119.695 178.001 119.592C177.995 119.489 178.011 119.386 178.048 119.289C178.085 119.191 178.142 119.101 178.217 119.024C178.292 118.948 178.383 118.885 178.485 118.84C178.586 118.795 178.696 118.769 178.809 118.763C178.922 118.757 179.034 118.772 179.141 118.805C179.247 118.839 179.345 118.892 179.43 118.961L194.712 131.392C194.842 131.498 194.934 131.637 194.975 131.792C195.017 131.946 195.006 132.108 194.944 132.257C194.882 132.405 194.772 132.533 194.629 132.623C194.485 132.714 194.315 132.762 194.141 132.762H194.141Z" fill="#FF783E"/>
<path d="M177.342 114.437C177.15 114.112 177.035 113.752 177.007 113.381C176.979 113.01 177.037 112.638 177.178 112.291C177.319 111.944 177.539 111.63 177.823 111.372C178.107 111.113 178.448 110.916 178.821 110.795L178.838 101.762L183 104.353L182.346 112.534C182.521 113.137 182.455 113.78 182.159 114.341C181.864 114.902 181.36 115.341 180.743 115.575C180.126 115.81 179.439 115.824 178.813 115.614C178.186 115.404 177.663 114.985 177.342 114.437H177.342Z" fill="#9E616A"/>
<path d="M177.881 74.4671L179.739 72.7617L181.104 73.6998C181.104 73.6998 182.448 75.2344 183.522 79.838C184.597 84.4417 183.522 109.762 183.522 109.762L177.612 108.994L178.418 95.695L176 84.4417L177.881 74.4671Z" fill="#E6E6E6"/>
<path d="M181 73.4124L175.071 70.5675L171.046 66.8169L163.706 66.7617L161.339 69.8539L155.088 71.987L156.13 93.6399L155.42 95.3049C155.42 95.3049 155.914 95.754 156.141 96.0052C156.367 96.2564 155.828 98.3592 155.828 98.3592L155.524 100.647L156.367 101.251L155.272 102.551L155 104.599C155 104.599 174.111 99.8266 177.722 107.732C177.913 108.149 177.443 104.068 177.443 104.068L176.973 101.079L177.439 98.3971L178.149 97.6835L176.958 96.4868L177.722 90.8081L181 73.4124Z" fill="#1B403A"/>
<path d="M46.7918 121.011C46.9521 120.641 47.0213 120.244 46.9943 119.846C46.9674 119.449 46.8449 119.062 46.6357 118.713C46.4265 118.363 46.1356 118.06 45.7834 117.824C45.4312 117.587 45.0263 117.424 44.5973 117.346L43.1619 107.762L39 111.07L41.0011 119.664C40.9038 120.328 41.0778 121.001 41.4901 121.556C41.9024 122.112 42.5243 122.51 43.2381 122.676C43.9519 122.842 44.7079 122.765 45.3628 122.458C46.0178 122.151 46.5262 121.636 46.7918 121.011V121.011Z" fill="#FFB8B8"/>
<path d="M31.0678 78.7617L30.0346 78.9571L29.4101 79.7332C29.4101 79.7332 28.3998 83.6449 29.5507 86.3785C30.7016 89.1122 39.023 116.591 39.023 116.591L45 116.762L40.344 94.4826L31.0678 78.7617Z" fill="#1B403A"/>
<path d="M54.9869 119.856C54.6977 119.554 54.4791 119.194 54.3464 118.801C54.2138 118.407 54.1704 117.99 54.2193 117.578C54.2682 117.166 54.4082 116.77 54.6295 116.417C54.8507 116.064 55.1478 115.763 55.4998 115.536L53 105.762L58.0209 107.49L59.625 116.507C59.9739 117.114 60.0843 117.827 59.9353 118.509C59.7863 119.192 59.3882 119.797 58.8165 120.21C58.2448 120.623 57.5392 120.815 56.8334 120.749C56.1275 120.684 55.4706 120.366 54.9869 119.856Z" fill="#FFB8B8"/>
<path d="M53.5081 73.9676L54.4785 73.7617L55.2986 74.2691C55.2986 74.2691 57.5682 77.6403 57.535 80.7035C57.5018 83.7667 60 113.321 60 113.321L54.8487 115.762L51 92.5959L53.5081 73.9676Z" fill="#1B403A"/>
<defs>
<filter id="filter0_d_6181_74" x="117" y="24.7617" width="62" height="52" filterUnits="userSpaceOnUse" color-interpolation-filters="sRGB">
<feFlood flood-opacity="0" result="BackgroundImageFix"/>
<feColorMatrix in="SourceAlpha" type="matrix" values="0 0 0 0 0 0 0 0 0 0 0 0 0 0 0 0 0 0 127 0" result="hardAlpha"/>
<feOffset dy="4"/>
<feGaussianBlur stdDeviation="2"/>
<feComposite in2="hardAlpha" operator="out"/>
<feColorMatrix type="matrix" values="0 0 0 0 0 0 0 0 0 0 0 0 0 0 0 0 0 0 0.25 0"/>
<feBlend mode="normal" in2="BackgroundImageFix" result="effect1_dropShadow_6181_74"/>
<feBlend mode="normal" in="SourceGraphic" in2="effect1_dropShadow_6181_74" result="shape"/>
</filter>
<filter id="filter1_d_6181_74" x="102" y="7.76172" width="64" height="63" filterUnits="userSpaceOnUse" color-interpolation-filters="sRGB">
<feFlood flood-opacity="0" result="BackgroundImageFix"/>
<feColorMatrix in="SourceAlpha" type="matrix" values="0 0 0 0 0 0 0 0 0 0 0 0 0 0 0 0 0 0 127 0" result="hardAlpha"/>
<feOffset dy="4"/>
<feGaussianBlur stdDeviation="2"/>
<feComposite in2="hardAlpha" operator="out"/>
<feColorMatrix type="matrix" values="0 0 0 0 0 0 0 0 0 0 0 0 0 0 0 0 0 0 0.25 0"/>
<feBlend mode="normal" in2="BackgroundImageFix" result="effect1_dropShadow_6181_74"/>
<feBlend mode="normal" in="SourceGraphic" in2="effect1_dropShadow_6181_74" result="shape"/>
</filter>
<filter id="filter2_d_6181_74" x="111" y="93.7617" width="23" height="10" filterUnits="userSpaceOnUse" color-interpolation-filters="sRGB">
<feFlood flood-opacity="0" result="BackgroundImageFix"/>
<feColorMatrix in="SourceAlpha" type="matrix" values="0 0 0 0 0 0 0 0 0 0 0 0 0 0 0 0 0 0 127 0" result="hardAlpha"/>
<feOffset dy="4"/>
<feGaussianBlur stdDeviation="2"/>
<feComposite in2="hardAlpha" operator="out"/>
<feColorMatrix type="matrix" values="0 0 0 0 0 0 0 0 0 0 0 0 0 0 0 0 0 0 0.25 0"/>
<feBlend mode="normal" in2="BackgroundImageFix" result="effect1_dropShadow_6181_74"/>
<feBlend mode="normal" in="SourceGraphic" in2="effect1_dropShadow_6181_74" result="shape"/>
</filter>
<filter id="filter3_d_6181_74" x="171.371" y="0" width="22.4414" height="37.2793" filterUnits="userSpaceOnUse" color-interpolation-filters="sRGB">
<feFlood flood-opacity="0" result="BackgroundImageFix"/>
<feColorMatrix in="SourceAlpha" type="matrix" values="0 0 0 0 0 0 0 0 0 0 0 0 0 0 0 0 0 0 127 0" result="hardAlpha"/>
<feOffset dy="4"/>
<feGaussianBlur stdDeviation="2"/>
<feComposite in2="hardAlpha" operator="out"/>
<feColorMatrix type="matrix" values="0 0 0 0 0 0 0 0 0 0 0 0 0 0 0 0 0 0 0.25 0"/>
<feBlend mode="normal" in2="BackgroundImageFix" result="effect1_dropShadow_6181_74"/>
<feBlend mode="normal" in="SourceGraphic" in2="effect1_dropShadow_6181_74" result="shape"/>
</filter>
<filter id="filter4_d_6181_74" x="102" y="71.7617" width="80" height="42" filterUnits="userSpaceOnUse" color-interpolation-filters="sRGB">
<feFlood flood-opacity="0" result="BackgroundImageFix"/>
<feColorMatrix in="SourceAlpha" type="matrix" values="0 0 0 0 0 0 0 0 0 0 0 0 0 0 0 0 0 0 127 0" result="hardAlpha"/>
<feOffset dy="4"/>
<feGaussianBlur stdDeviation="2"/>
<feComposite in2="hardAlpha" operator="out"/>
<feColorMatrix type="matrix" values="0 0 0 0 0 0 0 0 0 0 0 0 0 0 0 0 0 0 0.25 0"/>
<feBlend mode="normal" in2="BackgroundImageFix" result="effect1_dropShadow_6181_74"/>
<feBlend mode="normal" in="SourceGraphic" in2="effect1_dropShadow_6181_74" result="shape"/>
</filter>
<filter id="filter5_d_6181_74" x="161" y="36.7617" width="41" height="41" filterUnits="userSpaceOnUse" color-interpolation-filters="sRGB">
<feFlood flood-opacity="0" result="BackgroundImageFix"/>
<feColorMatrix in="SourceAlpha" type="matrix" values="0 0 0 0 0 0 0 0 0 0 0 0 0 0 0 0 0 0 127 0" result="hardAlpha"/>
<feOffset dy="4"/>
<feGaussianBlur stdDeviation="2"/>
<feComposite in2="hardAlpha" operator="out"/>
<feColorMatrix type="matrix" values="0 0 0 0 0 0 0 0 0 0 0 0 0 0 0 0 0 0 0.25 0"/>
<feBlend mode="normal" in2="BackgroundImageFix" result="effect1_dropShadow_6181_74"/>
<feBlend mode="normal" in="SourceGraphic" in2="effect1_dropShadow_6181_74" result="shape"/>
</filter>
<filter id="filter6_d_6181_74" x="125" y="75.7617" width="33" height="18" filterUnits="userSpaceOnUse" color-interpolation-filters="sRGB">
<feFlood flood-opacity="0" result="BackgroundImageFix"/>
<feColorMatrix in="SourceAlpha" type="matrix" values="0 0 0 0 0 0 0 0 0 0 0 0 0 0 0 0 0 0 127 0" result="hardAlpha"/>
<feOffset dy="4"/>
<feGaussianBlur stdDeviation="2"/>
<feComposite in2="hardAlpha" operator="out"/>
<feColorMatrix type="matrix" values="0 0 0 0 0 0 0 0 0 0 0 0 0 0 0 0 0 0 0.25 0"/>
<feBlend mode="normal" in2="BackgroundImageFix" result="effect1_dropShadow_6181_74"/>
<feBlend mode="normal" in="SourceGraphic" in2="effect1_dropShadow_6181_74" result="shape"/>
</filter>
</defs>
</svg>
