<svg width="34" height="8" viewBox="0 0 34 8" fill="none" xmlns="http://www.w3.org/2000/svg">
<path d="M8.42105 1C8.42105 0.447715 7.97334 0 7.42105 0H4.21053C1.88512 0 0 1.79086 0 4C0 6.20914 1.88512 8 4.21053 8H7.42105C7.97334 8 8.42105 7.55228 8.42105 7V7C8.42105 6.44772 7.97334 6 7.42105 6H4.21053C3.04782 6 2.10526 5.10457 2.10526 4C2.10526 2.89543 3.04782 2 4.21053 2H7.42105C7.97334 2 8.42105 1.55228 8.42105 1V1Z" fill="#CA0D0D"/>
<path d="M25.5789 7C25.5789 6.44772 26.0267 6 26.5789 6H29.7895C30.9522 6 31.8947 5.10457 31.8947 4C31.8947 2.89543 30.9522 2 29.7895 2H26.5789C26.0267 2 25.5789 1.55228 25.5789 1V1C25.5789 0.447715 26.0267 0 26.5789 0H29.7895C32.1149 0 34 1.79086 34 4C34 6.20914 32.1149 8 29.7895 8H26.5789C26.0267 8 25.5789 7.55228 25.5789 7V7Z" fill="#CA0D0D"/>
<path d="M20 4L14 4" stroke="#CA0D0D" stroke-width="2" stroke-linecap="round"/>
</svg>
