<svg  viewBox="0 0 180 140" fill="none" xmlns="http://www.w3.org/2000/svg">
<g clip-path="url(#clip0_5155_2646)">
<path d="M129.851 25.9202H116.668V4.875L129.851 9.08403V25.9202Z" fill="#2F2E41"/>
<path d="M132.194 132.774L129.474 132.838L127.957 120.611L131.972 120.516L132.194 132.774Z" fill="#A0616A"/>
<path d="M122.859 138.452C122.859 138.912 123.186 139.285 123.588 139.285H128.988C128.988 139.285 129.52 137.148 131.686 136.228L131.836 139.285H134.622L134.284 134.37C134.284 134.37 135.029 131.74 133.482 130.396C131.934 129.052 133.188 129.239 133.188 129.239L132.579 126.197L128.369 126.692L128.338 131.468L126.295 136.207L123.299 137.688C123.032 137.82 122.859 138.12 122.859 138.452L122.859 138.452L122.859 138.452Z" fill="#2F2E41"/>
<path d="M118.249 132.774L115.528 132.838L114.012 120.611L118.027 120.516L118.249 132.774Z" fill="#A0616A"/>
<path d="M108.914 138.452C108.914 138.912 109.24 139.285 109.643 139.285H115.043C115.043 139.285 115.574 137.148 117.741 136.228L117.891 139.285H120.676L120.339 134.37C120.339 134.37 121.084 131.74 119.536 130.396C117.989 129.052 119.242 129.239 119.242 129.239L118.633 126.197L114.424 126.692L114.393 131.468L112.35 136.207L109.353 137.688C109.087 137.82 108.914 138.12 108.914 138.452L108.914 138.452L108.914 138.452Z" fill="#2F2E41"/>
<path d="M130.693 48.9297L113.302 59.312L109.375 75.3063L111.339 124.692H119.95L121.857 77.1302L125.675 124.692H134.421L136.633 71.2819C137.243 67.4003 136.762 63.4258 135.245 59.8017L130.693 48.9297V48.9297V48.9297Z" fill="#2F2E41"/>
<path d="M126.765 17.2214L119.472 16.6602L117.509 20.5886L111.899 21.9916L110.496 39.3889C113.271 46.6 115.012 53.4909 113.301 59.3117L134.619 58.1893L131.06 48.5615C131.06 48.5615 130.973 45.001 132.936 40.2307C134.9 35.4605 131.814 23.114 131.814 23.114L127.326 21.9916L126.765 17.2214H126.765V17.2214Z" fill="#1B403A"/>
<path d="M77.6613 23.9883C78.3715 24.0103 79.0277 23.87 79.5439 23.6187L86.2956 24.2559L86.5047 21.0331L79.6332 20.7338C79.1336 20.451 78.4873 20.2704 77.7772 20.2483C76.1549 20.1981 74.8138 20.9945 74.7818 22.0272C74.7498 23.06 76.039 23.938 77.6613 23.9883H77.6613Z" fill="#A0616A"/>
<path d="M117.599 33.8274C117.599 33.8274 117.361 23.5606 115.11 22.0196C114.181 21.3841 99.9075 21.2397 99.3875 21.1858C96.1806 20.8534 93.8987 19.5797 91.1986 19.4401C84.6185 19.0999 81.2919 20.6973 81.2919 20.6973L81.1758 23.9935L117.599 33.8274V33.8274Z" fill="#1B403A"/>
<path d="M122.499 16.3952C125.715 16.3952 128.323 13.787 128.323 10.5696C128.323 7.35231 125.715 4.74414 122.499 4.74414C119.283 4.74414 116.676 7.35231 116.676 10.5696C116.676 13.787 119.283 16.3952 122.499 16.3952Z" fill="#A0616A"/>
<path d="M120.733 1.89429C119.481 2.68415 118.563 2.11865 117.669 2.51701C115.921 3.29532 112.969 8.76191 113.236 11.0505C113.612 14.2919 114.803 14.4253 114.768 16.7508C114.711 20.4851 114.414 20.4696 115.179 21.7734C116.029 23.2236 120.845 22.8299 121.739 20.8633C121.915 20.4753 119.956 20.6279 117.791 15.5379C116.705 12.9837 117.418 10.6563 117.791 9.64527C117.879 9.40855 117.919 7.72807 118.105 7.91457C119.74 9.54987 120.656 8.35448 121.643 8.21729C123.669 7.93576 125.194 9.57067 125.809 8.98372C126.266 8.54696 125.683 7.39216 125.905 7.30717C126.141 7.21655 126.924 8.4834 127.437 9.84595C127.768 10.7246 127.933 11.164 127.916 11.6662C127.863 13.2172 127.468 17.6148 126.767 18.9051C125.255 21.6916 127.159 22.743 128.347 22.5399C129.306 22.3758 133.548 23.0219 133.78 22.553C133.987 22.1352 133.514 17.8382 133.018 13.8434C132.421 9.04183 130.03 4.62948 126.281 1.57289C126.061 1.39365 125.897 1.27066 125.809 1.22367C125.601 1.11237 123.46 0.000155628 121.882 0.888362C121.302 1.21535 121.396 1.47621 120.733 1.89429L120.733 1.89429Z" fill="#2F2E41"/>
<path d="M47.9907 137.321L44.7597 137.321L43.2227 124.854L47.9913 124.854L47.9907 137.321Z" fill="#FFB6B6"/>
<path d="M36.9193 137.248C36.8187 137.418 36.7656 137.965 36.7656 138.162C36.7656 138.768 37.2566 139.259 37.8622 139.259H47.8684C48.2815 139.259 48.6165 138.924 48.6165 138.511V138.094C48.6165 138.094 49.1115 136.841 48.0924 135.298C48.0924 135.298 46.8258 136.506 44.9331 134.613L44.375 133.602L40.335 136.557L38.0956 136.833C37.6057 136.893 37.1714 136.824 36.9193 137.248H36.9193H36.9193Z" fill="#2F2E41"/>
<path d="M61.6118 137.321L58.3808 137.321L56.8438 124.854L61.6124 124.854L61.6118 137.321Z" fill="#FFB6B6"/>
<path d="M50.5404 137.248C50.4398 137.418 50.3867 137.965 50.3867 138.162C50.3867 138.768 50.8777 139.259 51.4833 139.259H61.4895C61.9026 139.259 62.2376 138.924 62.2376 138.511V138.094C62.2376 138.094 62.7326 136.841 61.7135 135.298C61.7135 135.298 60.4469 136.506 58.5542 134.613L57.9961 133.602L53.9561 136.557L51.7167 136.833C51.2268 136.893 50.7925 136.824 50.5404 137.248H50.5404H50.5404Z" fill="#2F2E41"/>
<path d="M62.2529 58.6085L38.5497 58.3359L36.0977 73.8713L42.0916 127.564H49.9497L51.7636 77.5507L55.033 128.517H63.0789L66.7484 70.4644L62.2529 58.6085Z" fill="#2F2E41"/>
<path d="M162.739 135.179C163.301 135.214 163.612 134.514 163.187 134.107L163.144 133.938C163.15 133.925 163.155 133.911 163.161 133.898C163.73 132.54 165.659 132.549 166.224 133.909C166.725 135.116 167.362 136.325 167.52 137.601C167.59 138.164 167.558 138.738 167.433 139.291C168.607 136.726 169.225 133.925 169.225 131.109C169.225 130.401 169.186 129.693 169.107 128.987C169.042 128.41 168.952 127.836 168.836 127.268C168.208 124.194 166.847 121.267 164.885 118.821C163.942 118.306 163.155 117.499 162.68 116.533C162.51 116.184 162.376 115.809 162.312 115.427C162.42 115.442 162.717 113.806 162.636 113.706C162.786 113.479 163.054 113.366 163.217 113.144C164.03 112.042 165.149 112.235 165.733 113.732C166.982 114.363 166.994 115.408 166.228 116.413C165.741 117.053 165.674 117.918 165.246 118.603C165.29 118.659 165.336 118.714 165.38 118.77C166.186 119.805 166.884 120.918 167.472 122.087C167.306 120.788 167.552 119.223 167.97 118.214C168.446 117.065 169.339 116.097 170.125 115.103C171.07 113.909 173.006 114.43 173.172 115.943C173.174 115.958 173.176 115.973 173.177 115.987C173.06 116.053 172.946 116.123 172.834 116.197C172.197 116.619 172.417 117.607 173.172 117.724L173.189 117.726C173.147 118.147 173.075 118.564 172.969 118.975C173.978 122.876 171.801 124.297 168.692 124.361C168.623 124.396 168.556 124.432 168.487 124.465C168.802 125.352 169.054 126.262 169.241 127.185C169.408 128 169.524 128.824 169.589 129.651C169.67 130.695 169.663 131.744 169.575 132.786L169.58 132.749C169.804 131.602 170.427 130.53 171.331 129.787C172.679 128.679 174.582 128.272 176.036 127.382C176.736 126.953 177.632 127.507 177.51 128.318L177.504 128.357C177.288 128.445 177.077 128.547 176.872 128.662C176.756 128.728 176.641 128.798 176.53 128.872C175.892 129.293 176.112 130.282 176.868 130.398L176.885 130.401C176.897 130.403 176.908 130.405 176.92 130.406C176.549 131.288 176.031 132.107 175.384 132.813C174.753 136.219 172.045 136.542 169.147 135.55H169.146C168.829 136.93 168.366 138.279 167.771 139.564H162.862C162.844 139.509 162.828 139.453 162.812 139.398C163.266 139.426 163.724 139.4 164.171 139.317C163.807 138.87 163.442 138.42 163.078 137.972C163.069 137.964 163.062 137.955 163.055 137.946C162.87 137.717 162.684 137.49 162.499 137.261L162.499 137.261C162.487 136.558 162.572 135.858 162.738 135.179L162.739 135.179V135.179L162.739 135.179Z" fill="#F2F2F2"/>
<path d="M0 139.674C0 139.854 0.144407 139.998 0.324233 139.998H179.676C179.856 139.998 180 139.854 180 139.674C180 139.494 179.856 139.35 179.676 139.35H0.324233C0.144407 139.35 0 139.494 0 139.674Z" fill="#CCCCCC"/>
<path d="M54.2156 17.8633H45.7793L44.135 21.1339L36.0977 24.8262L38.9584 45.9359L36.7788 59.8359H64.0056L61.5718 43.7555L64.8412 24.4045L55.8503 20.8613L54.2156 17.8633Z" fill="#E6E6E6"/>
<path d="M82.4541 69.015C82.0861 68.2641 81.9183 67.4923 81.9373 66.8169L77.9805 59.8846L81.333 58.0977L84.9858 65.3221C85.5311 65.7208 86.0381 66.3264 86.406 67.0773C87.2466 68.7928 87.0433 70.6173 85.952 71.1524C84.8607 71.6875 83.2946 70.7306 82.4541 69.015V69.015H82.4541Z" fill="#FFB6B6"/>
<path d="M56.3725 23.473C56.3725 23.473 59.0418 20.7256 62.0362 22.6375C65.0305 24.5494 75.9538 44.1141 75.9538 44.1141L84.3799 60.9337L78.4323 63.7056L71.2568 47.5994L56.1875 31.3768L56.3725 23.473L56.3725 23.473H56.3725Z" fill="#E6E6E6"/>
<path d="M49.6374 16.2686C53.8446 16.2686 57.2553 12.8567 57.2553 8.64798C57.2553 4.43922 53.8446 1.02734 49.6374 1.02734C45.4302 1.02734 42.0195 4.43922 42.0195 8.64798C42.0195 12.8567 45.4302 16.2686 49.6374 16.2686Z" fill="#FFB6B6"/>
<path d="M47.2475 14.7809C47.2827 15.5275 47.3003 15.9008 47.1857 15.946C46.8406 16.0818 42.3962 13.456 41.8728 11.7082C41.6287 10.8929 41.8348 10.8767 41.6567 8.55741C41.4863 6.3392 41.2952 6.32152 41.5211 5.77273C41.7721 5.16276 42.5387 4.41124 44.072 2.90819C44.6517 2.33988 44.9416 2.05572 45.1246 1.9088C45.6791 1.46352 47.7451 -0.1953 49.6396 0.0190135C50.4337 0.108849 50.298 0.426009 53.2645 2.03532C53.52 2.17393 53.8627 2.35691 54.3359 2.567C55.4867 3.07795 56.2007 3.21041 56.5766 3.3529C58.8545 4.21646 58.186 9.02691 57.9903 9.05448C57.9189 9.06453 57.8996 8.44074 57.5258 8.38917C57.1893 8.34275 56.975 8.81642 56.6692 8.83366C55.8341 8.88074 56.7615 8.08098 54.7175 7.19271C53.9229 6.8474 56.1339 8.40435 54.0291 8.37908C50.7376 8.33955 52.8428 8.54912 51.5928 9.20598C50.6812 9.68501 47.0139 7.04876 47.1629 7.89115C47.268 8.4853 47.699 8.65637 47.6368 9.32199C47.5766 9.96685 47.0921 10.6619 46.6648 10.6874C46.2709 10.711 46.0551 10.1581 45.9237 10.211C45.7808 10.2685 45.9378 10.9624 46.2459 11.6752C46.6371 12.5802 46.8706 12.5873 47.077 13.2833C47.1956 13.6836 47.2129 14.0494 47.2475 14.7809H47.2475V14.7809Z" fill="#2F2E41"/>
<path d="M107.29 66.7779L58.2058 54.285C55.0682 53.4865 53.1649 50.2831 53.9632 47.1443L60.0696 23.1351C60.8679 19.9964 64.0701 18.0924 67.2077 18.891L116.292 31.3839C119.429 32.1824 121.333 35.3858 120.534 38.5246L114.428 62.5338C113.63 65.6726 110.428 67.5765 107.29 66.7779Z" fill="white"/>
<path d="M107.288 66.7769L58.2037 54.2841C56.6349 53.8848 55.3747 52.8843 54.4744 51.5577C53.1646 49.6276 52.8228 47.1975 53.3978 44.9366L58.5184 24.8033C59.0934 22.5424 60.5546 20.5713 62.6273 19.502C64.0518 18.7671 65.6368 18.4908 67.2056 18.8901L116.29 31.3829C119.432 32.1828 121.332 35.3798 120.532 38.5236L114.426 62.5328C113.628 65.6716 110.425 67.5755 107.288 66.7769H107.288ZM67.0713 19.4183C64.2202 18.6927 64.9654 21.2757 64.24 24.1278L64.24 24.1278C60.7009 38.0427 68.0208 52.4287 81.3521 57.749C88.5484 60.6209 94.5342 62.9684 94.5342 62.9684C104.503 65.5057 114.641 59.4782 117.177 49.5057L120.004 38.3892C120.73 35.5371 119.006 32.6368 116.155 31.9112L67.0713 19.4183V19.4183Z" fill="#3F3D56"/>
<path d="M90.0373 38.3397L90.0373 38.3397C89.6952 35.5269 87.1386 33.524 84.3268 33.8662L84.3268 33.8662C81.5416 34.2051 79.5523 36.7178 79.8472 39.499L79.7656 39.5089L81.0043 49.695L90.3739 48.5548C90.67 48.5708 90.9713 48.5629 91.2759 48.5258L91.2759 48.5258C94.0877 48.1837 96.0899 45.626 95.7478 42.8132V42.8132C95.4058 40.0004 92.8491 37.9975 90.0373 38.3397L90.0373 38.3397V38.3397Z" fill="#1B403A"/>
<path d="M72.0798 134.563H72.0798C71.6829 133.54 70.5323 133.033 69.5097 133.43H69.5097C68.4969 133.823 67.9902 134.956 68.3663 135.972L68.3366 135.983L69.7737 139.688L73.1811 138.365C73.2938 138.343 73.4061 138.311 73.5168 138.268H73.5169C74.5394 137.871 75.0467 136.72 74.6498 135.697V135.697C74.253 134.674 73.1023 134.166 72.0798 134.563L72.0798 134.563Z" fill="#E6E6E6"/>
<path d="M148.365 134.563C147.968 133.54 146.817 133.033 145.795 133.43C144.782 133.823 144.275 134.956 144.651 135.972L144.622 135.983L146.059 139.688L149.466 138.365C149.579 138.343 149.691 138.311 149.802 138.268C150.825 137.871 151.332 136.72 150.935 135.697V135.697C150.538 134.674 149.388 134.166 148.365 134.563L148.365 134.563H148.365Z" fill="#E6E6E6"/>
<path d="M86.0154 67.6976C89.6267 67.6976 92.5542 64.769 92.5542 61.1564C92.5542 57.5438 89.6267 54.6152 86.0154 54.6152C82.4041 54.6152 79.4766 57.5438 79.4766 61.1564C79.4766 64.769 82.4041 67.6976 86.0154 67.6976Z" fill="#1B403A"/>
<path d="M56.2927 34.6286C55.591 35.0833 54.8449 35.3418 54.1723 35.4032L47.762 40.1573L45.5898 37.0397L52.3263 32.5528C52.6573 31.9638 53.198 31.3882 53.8997 30.9335C55.5025 29.8947 57.3375 29.8798 57.9984 30.9001C58.6592 31.9205 57.8955 33.5898 56.2927 34.6286H56.2927V34.6286L56.2927 34.6286Z" fill="#FFB6B6"/>
<path d="M41.279 23.535C41.279 23.535 36.3749 22.9899 35.5575 24.8977C34.7402 26.8056 33.1055 45.884 33.1055 45.884L35.83 50.5174L53.697 36.9901L50.0787 33.3706L42.4214 36.9901L41.279 23.535H41.279V23.535Z" fill="#E6E6E6"/>
<path d="M112.307 29.6996C112.89 30.2992 113.56 30.7174 114.202 30.9271L119.393 36.9899L122.205 34.4346L116.636 28.5596C116.445 27.9116 116.046 27.2301 115.463 26.6305C114.132 25.2607 112.346 24.8373 111.475 25.6848C110.603 26.5323 110.976 28.3298 112.307 29.6996V29.6996Z" fill="#A0616A"/>
<path d="M129.414 22.2285C129.414 22.2285 134.316 22.7897 134.688 24.8317C135.061 26.8737 132.407 45.8372 132.407 45.8372L128.719 49.7472L114.312 32.5793L118.646 29.8567L125.305 35.0913L129.414 22.2285Z" fill="#1B403A"/>
<path d="M63.3145 44.2473C65.5723 44.2473 67.4025 42.4164 67.4025 40.1578C67.4025 37.8993 65.5723 36.0684 63.3145 36.0684C61.0568 36.0684 59.2266 37.8993 59.2266 40.1578C59.2266 42.4164 61.0568 44.2473 63.3145 44.2473Z" fill="#E6E6E6"/>
</g>
<defs>
<clipPath id="clip0_5155_2646">
<rect width="180" height="140" fill="white"/>
</clipPath>
</defs>
</svg>
