<svg  viewBox="0 0 294 220" fill="none" xmlns="http://www.w3.org/2000/svg">
    <g clip-path="url(#clip0_5120_1430)">
        <path d="M214.677 209.034H208.827L206.043 186.443H214.677V209.034Z" fill="#9E616A" />
        <path
            d="M217.765 219.18H213.57L212.821 215.215L210.903 219.18H199.777C199.243 219.18 198.724 219.01 198.294 218.693C197.865 218.377 197.547 217.931 197.389 217.421C197.23 216.912 197.238 216.364 197.412 215.86C197.586 215.355 197.917 214.919 198.355 214.616L207.241 208.472V204.463L216.586 205.021L217.765 219.18Z"
            fill="#2F2E41" />
        <path d="M249.431 201.642L244.737 205.136L229.039 188.672L235.967 183.514L249.431 201.642Z"
            fill="#9E616A" />
        <path
            d="M257.958 207.941L254.591 210.447L251.627 207.713L252.451 212.041L243.523 218.688C243.095 219.006 242.577 219.18 242.043 219.183C241.51 219.185 240.99 219.017 240.558 218.703C240.127 218.389 239.808 217.945 239.646 217.436C239.485 216.927 239.491 216.38 239.662 215.874L243.13 205.635L240.741 202.418L248.573 197.283L257.958 207.941Z"
            fill="#2F2E41" />
        <path
            d="M221.487 92.4785C221.487 92.4785 232.587 102.079 227.466 129.448L221.214 156.265L241.603 190.131L235.102 198.05L208.595 161.393L198.99 138.836L196.295 98.6869L221.487 92.4785Z"
            fill="black" />
        <path
            d="M204.285 145.264L203.617 155.615L205.66 199.725L215.274 198.049L217.111 166.643L204.285 145.264Z"
            fill="black" />
        <path d="M80.9187 214.345L86.1501 214.345L88.6385 194.143L80.918 194.143L80.9187 214.345Z"
            fill="#FFB6B6" />
        <path
            d="M79.584 212.634L81.0564 212.634L86.8052 210.293L89.8863 212.633H89.8867C91.6279 212.633 93.2978 213.326 94.5291 214.559C95.7603 215.791 96.4521 217.463 96.4522 219.207V219.42L79.5843 219.421L79.584 212.634Z"
            fill="#2F2E41" />
        <path d="M101.191 211.044L106.294 212.197L113.166 193.04L105.635 191.338L101.191 211.044Z"
            fill="#FFB6B6" />
        <path
            d="M100.266 209.081L101.703 209.406L107.825 208.391L110.316 211.353L110.316 211.353C112.015 211.737 113.491 212.781 114.421 214.255C115.351 215.729 115.658 217.512 115.274 219.213L115.227 219.421L98.7734 215.702L100.266 209.081Z"
            fill="#2F2E41" />
        <path
            d="M74.2928 90.8398C71.8401 98.246 72.0994 106.285 74.8823 114.913L76.072 163.493C76.072 163.493 74.2995 195.35 80.019 206.56H88.3138L92.4207 160.583L92.9364 129.723L110.72 155.759L99.393 205.809L109.602 206.722L127.982 152.407L105.305 99.711L74.2928 90.8398Z"
            fill="black" />
        <path
            d="M169.951 69.7441C176.295 64.02 185.732 61.1418 193.648 64.3515C185.528 68.8651 179.264 76.1089 175.965 84.8012C174.705 88.158 173.653 92.0231 170.553 93.8202C168.624 94.9385 166.225 94.9932 164.062 94.4534C161.9 93.9135 159.918 92.8312 157.962 91.7599L157.406 91.7473C159.903 83.5702 163.606 75.4683 169.951 69.7441Z"
            fill="#E6E6E6" />
        <path
            d="M193.605 64.5252C186.594 65.4323 180.047 68.528 174.893 73.3727C173.765 74.3959 172.806 75.5907 172.049 76.9132C171.354 78.2252 171.023 79.6997 171.089 81.1835C171.123 82.5682 171.319 83.9806 171.016 85.3495C170.851 86.0479 170.54 86.7035 170.104 87.2732C169.668 87.8429 169.116 88.3139 168.486 88.6553C166.937 89.5468 165.16 89.8279 163.413 90.0423C161.473 90.2803 159.455 90.4968 157.775 91.5861C157.572 91.7181 157.379 91.3943 157.582 91.2626C160.504 89.3673 164.2 90.0569 167.342 88.7921C168.807 88.2018 170.104 87.1658 170.564 85.5994C170.965 84.2297 170.765 82.773 170.718 81.3712C170.632 79.9248 170.901 78.4792 171.502 77.1608C172.188 75.804 173.1 74.5742 174.199 73.5238C176.635 71.1197 179.433 69.114 182.492 67.5802C185.972 65.8104 189.73 64.6496 193.601 64.1483C193.841 64.1174 193.843 64.4945 193.605 64.5252H193.605Z"
            fill="white" />
        <path
            d="M176.46 71.7143C175.765 70.7382 175.44 69.5468 175.542 68.3528C175.644 67.1588 176.166 66.0399 177.016 65.196C177.189 65.0259 177.461 65.2863 177.288 65.4567C176.495 66.2411 176.009 67.2834 175.916 68.3954C175.823 69.5075 176.131 70.6161 176.783 71.5211C176.924 71.7179 176.6 71.91 176.46 71.7143V71.7143Z"
            fill="white" />
        <path
            d="M170.979 80.4826C173.389 80.91 175.87 80.4125 177.929 79.0893C178.133 78.9581 178.326 79.2818 178.122 79.4129C175.977 80.7858 173.393 81.2982 170.887 80.848C170.648 80.8049 170.742 80.4397 170.979 80.4826V80.4826Z"
            fill="white" />
        <path
            d="M186.002 66.3083C186.192 66.742 186.487 67.1216 186.86 67.4131C187.232 67.7046 187.672 67.8988 188.138 67.9782C188.377 68.0183 188.284 68.3834 188.046 68.3437C187.531 68.2535 187.046 68.0384 186.634 67.7173C186.221 67.3962 185.893 66.9787 185.679 66.5015C185.655 66.4582 185.648 66.4074 185.66 66.3594C185.672 66.3114 185.702 66.2698 185.744 66.2431C185.787 66.2177 185.838 66.2103 185.886 66.2226C185.935 66.2348 185.976 66.2656 186.002 66.3083Z"
            fill="white" />
        <path
            d="M202.366 91.9565C202.216 91.9357 202.065 91.915 201.913 91.8966C199.894 91.6282 197.856 91.5246 195.819 91.5866C195.662 91.5889 195.502 91.5936 195.345 91.6005C190.44 91.8024 185.616 92.9142 181.117 94.8794C179.327 95.6631 177.6 96.5819 175.95 97.6279C173.67 99.0727 171.314 100.821 168.766 101.41C168.501 101.474 168.232 101.522 167.961 101.554L157.435 92.4281C157.421 92.3953 157.406 92.3648 157.392 92.332L156.955 91.9869C157.036 91.927 157.122 91.8666 157.203 91.8067C157.25 91.7718 157.3 91.7388 157.347 91.7039C157.379 91.6812 157.411 91.6587 157.439 91.6364C157.45 91.6288 157.46 91.6213 157.469 91.6162C157.497 91.5939 157.525 91.5761 157.55 91.5563C158.028 91.2174 158.509 90.8814 158.994 90.5481C158.996 90.5458 158.996 90.5458 159 90.5454C162.666 87.9706 166.624 85.8404 170.792 84.1993C170.917 84.152 171.044 84.1022 171.174 84.0591C173.05 83.3604 174.981 82.8165 176.946 82.4328C178.023 82.2261 179.11 82.0741 180.202 81.9775C183.024 81.7332 185.867 81.9348 188.627 82.5751C194.129 83.8523 199.161 86.8769 202.141 91.5939C202.218 91.7146 202.292 91.8334 202.366 91.9565Z"
            fill="#E6E6E6" />
        <path
            d="M202.227 92.0689C196.083 88.5671 188.994 87.0923 181.966 87.854C180.45 87.991 178.965 88.3665 177.566 88.9665C176.222 89.5951 175.071 90.5726 174.232 91.7974C173.426 92.9236 172.733 94.169 171.668 95.0797C171.116 95.5377 170.474 95.8738 169.783 96.0658C169.092 96.2578 168.369 96.3015 167.66 96.1939C165.887 95.972 164.299 95.1254 162.775 94.2434C161.083 93.2642 159.342 92.2203 157.346 92.0779C157.104 92.0607 157.145 91.686 157.386 91.7032C160.859 91.951 163.395 94.7299 166.664 95.6135C168.189 96.0258 169.848 95.9804 171.157 95.0064C172.301 94.1547 173.017 92.871 173.823 91.7236C174.624 90.5168 175.708 89.5247 176.98 88.8341C178.344 88.1647 179.812 87.7326 181.321 87.5563C184.712 87.1051 188.152 87.1905 191.516 87.8093C195.36 88.4942 199.058 89.8324 202.45 91.7659C202.66 91.8856 202.435 92.1879 202.227 92.0689L202.227 92.0689Z"
            fill="white" />
        <path
            d="M184.213 87.4745C184.245 86.2766 184.702 85.1292 185.501 84.2373C186.301 83.3454 187.391 82.767 188.577 82.6054C188.817 82.5736 188.878 82.9456 188.637 82.9775C187.533 83.1259 186.517 83.6648 185.775 84.4969C185.032 85.329 184.611 86.3994 184.587 87.5151C184.582 87.7575 184.208 87.7156 184.213 87.4745Z"
            fill="white" />
        <path
            d="M174.564 91.1724C176.231 92.9659 178.512 94.0645 180.951 94.2493C181.193 94.2674 181.152 94.6421 180.911 94.624C178.372 94.427 176.001 93.2788 174.271 91.4086C174.106 91.2303 174.401 90.995 174.564 91.1724Z"
            fill="white" />
        <path
            d="M195.083 88.9113C194.974 89.3722 194.981 89.853 195.103 90.3105C195.226 90.768 195.46 91.1878 195.784 91.5324C195.951 91.7086 195.657 91.9437 195.491 91.7687C195.134 91.3863 194.876 90.9223 194.74 90.4171C194.603 89.9119 194.593 89.381 194.708 88.8707C194.715 88.8217 194.741 88.7772 194.779 88.7461C194.818 88.7151 194.867 88.6999 194.916 88.7037C194.965 88.7093 195.011 88.7343 195.042 88.7731C195.073 88.812 195.088 88.8617 195.083 88.9113Z"
            fill="white" />
        <path
            d="M17.4734 213.978C16.9792 215.834 15.6808 217.38 14.1132 218.506C13.8576 218.69 13.5952 218.861 13.3294 219.021C13.2476 219.069 13.1658 219.12 13.0806 219.164C12.9886 219.219 12.8966 219.27 12.8045 219.318H5.43327C5.30037 219.048 5.17087 218.775 5.04137 218.506C1.88225 211.859 -0.336285 204.687 0.0419907 197.382C0.192067 194.549 0.786634 191.757 1.80387 189.108C3.82816 183.83 7.52232 179.261 12.6035 176.962C12.7296 176.904 12.8625 176.846 12.992 176.791C12.9511 176.938 12.9102 177.081 12.8693 177.228C12.3242 179.194 11.939 181.201 11.7174 183.229C11.697 183.386 11.6799 183.543 11.6663 183.704C11.1822 188.596 11.6121 193.535 12.934 198.269C12.9375 198.28 12.9408 198.293 12.9443 198.304C13.234 199.351 13.5702 200.383 13.953 201.398C14.2529 202.2 14.5767 202.992 14.9311 203.77C16.4101 207.035 18.3935 210.515 17.4734 213.978Z"
            fill="#E6E6E6" />
        <path
            d="M13.0844 176.944C13.0128 177.039 12.9412 177.132 12.8697 177.227C11.3729 179.213 10.1018 181.36 9.08009 183.628C9.02556 183.741 8.97444 183.853 8.93014 183.969C7.53017 187.136 6.63108 190.502 6.26517 193.946C6.26121 193.97 6.25893 193.994 6.25835 194.018C6.17316 194.823 6.12204 195.635 6.10159 196.447C6.02581 197.969 6.19027 199.494 6.58891 200.964C6.9524 202.165 7.58935 203.266 8.44963 204.178C8.53482 204.271 8.62002 204.363 8.71204 204.451C8.78019 204.523 8.85516 204.595 8.92673 204.663C9.61512 205.321 10.3683 205.932 11.0158 206.638C11.3125 206.955 11.5806 207.298 11.8166 207.662C12.1934 208.273 12.4367 208.956 12.5307 209.668C12.6247 210.379 12.5672 211.103 12.3619 211.791C11.8984 213.517 10.8386 214.974 9.75485 216.363C9.21299 217.059 8.6541 217.762 8.17018 218.505C7.99298 218.771 7.82939 219.041 7.67947 219.317H7.25007C7.3932 219.041 7.54996 218.771 7.72036 218.505C8.96424 216.543 10.7329 214.858 11.6497 212.698C12.2699 211.241 12.4573 209.59 11.6735 208.16C11.4438 207.744 11.1658 207.357 10.8454 207.007C10.2218 206.301 9.47542 205.697 8.79725 205.059C8.62686 204.898 8.45987 204.735 8.2997 204.564C7.45052 203.7 6.79524 202.665 6.37765 201.527C5.90473 200.082 5.68115 198.567 5.71652 197.047C5.71652 196.078 5.76764 195.103 5.86306 194.134C5.87328 194.011 5.88691 193.884 5.90054 193.758C6.59747 187.66 8.91202 181.861 12.6039 176.961C12.672 176.865 12.7436 176.773 12.8152 176.681C12.9617 176.49 13.2309 176.756 13.0844 176.944Z"
            fill="white" />
        <path
            d="M6.03835 194.166C4.85796 193.967 3.78647 193.355 3.01525 192.439C2.24403 191.522 1.82329 190.361 1.82817 189.163C1.82882 189.114 1.84839 189.067 1.88276 189.032C1.91712 188.998 1.96361 188.978 2.0124 188.977C2.0612 188.976 2.10851 188.993 2.14436 189.027C2.18021 189.06 2.2018 189.106 2.20459 189.154C2.19799 190.27 2.59001 191.352 3.30992 192.204C4.02982 193.056 5.03017 193.622 6.13043 193.8C6.36948 193.839 6.27603 194.204 6.03835 194.166V194.166Z"
            fill="white" />
        <path
            d="M8.35489 204.247C10.3603 202.843 11.7637 200.735 12.2853 198.341C12.3367 198.104 12.7017 198.197 12.6502 198.434C12.1029 200.923 10.638 203.115 8.54786 204.57C8.34855 204.709 8.15667 204.385 8.3549 204.247L8.35489 204.247Z"
            fill="white" />
        <path
            d="M8.9674 183.589C9.40813 183.761 9.88465 183.821 10.3542 183.763C10.8237 183.705 11.2715 183.531 11.6574 183.257C11.8549 183.116 12.0465 183.441 11.8504 183.581C11.4226 183.882 10.9278 184.073 10.4092 184.138C9.89059 184.203 9.36396 184.14 8.87531 183.954C8.82778 183.941 8.78723 183.909 8.76188 183.867C8.73654 183.824 8.72831 183.774 8.73886 183.726C8.7513 183.677 8.78228 183.636 8.82507 183.61C8.86786 183.585 8.91901 183.577 8.9674 183.589Z"
            fill="white" />
        <path
            d="M38.6508 190.138C38.5316 190.23 38.4089 190.322 38.2896 190.418C36.6716 191.657 35.1569 193.027 33.7605 194.512C33.6515 194.625 33.5424 194.741 33.4368 194.857L33.4334 194.86C30.1222 198.459 27.5042 202.639 25.7111 207.191L25.7008 207.222C25.6974 207.232 25.694 207.239 25.6906 207.249C24.9799 209.071 24.4069 210.944 23.9765 212.851C23.5607 214.714 23.2199 216.71 22.569 218.505C22.4702 218.781 22.3611 219.054 22.2452 219.317H7.09375C7.14487 219.048 7.1994 218.775 7.25392 218.505C8.02467 214.552 9.22928 210.695 10.8458 207.007C10.9004 206.884 10.9549 206.761 11.0162 206.638C11.8508 204.816 12.8321 203.064 13.9504 201.401C13.9504 201.4 13.9505 201.4 13.9507 201.399C13.9508 201.399 13.9511 201.399 13.9514 201.398C13.9517 201.398 13.9521 201.398 13.9525 201.398C13.9529 201.397 13.9534 201.397 13.9538 201.397C14.5679 200.49 15.2276 199.614 15.9304 198.774C17.753 196.602 19.906 194.733 22.31 193.232C22.3236 193.222 22.3407 193.215 22.3543 193.205C27.139 190.233 32.8097 188.817 38.2317 190.042H38.2351C38.3748 190.073 38.5111 190.104 38.6508 190.138Z"
            fill="#E6E6E6" />
        <path
            d="M38.6338 190.32C38.5179 190.35 38.4021 190.384 38.2896 190.419C35.9012 191.102 33.5959 192.048 31.4159 193.24C31.3068 193.298 31.1978 193.36 31.0887 193.421C28.076 195.105 25.3413 197.244 22.9813 199.764C22.9795 199.766 22.9783 199.768 22.9779 199.771C22.9507 199.798 22.92 199.829 22.8961 199.856C22.3509 200.443 21.8261 201.054 21.3285 201.682C20.3553 202.852 19.571 204.168 19.0043 205.581C18.5713 206.759 18.4184 208.022 18.5579 209.27C18.5681 209.396 18.5852 209.519 18.6022 209.645C18.6158 209.744 18.6295 209.843 18.6465 209.945C18.8714 211.314 19.2599 212.685 19.1509 214.081C19.0845 214.796 18.8677 215.489 18.5147 216.114C18.1617 216.739 17.6805 217.282 17.1027 217.708C16.71 218.012 16.2902 218.279 15.8486 218.506C15.2173 218.832 14.5595 219.104 13.8823 219.318H12.543C12.7236 219.267 12.9008 219.216 13.0814 219.165C13.7224 218.984 14.3517 218.764 14.966 218.506C15.3169 218.359 15.6583 218.19 15.9883 218.001C17.3583 217.213 18.5 216.005 18.7385 214.391C18.9464 212.979 18.5443 211.566 18.3057 210.184C18.2648 209.945 18.2273 209.71 18.2069 209.475C18.0442 208.278 18.143 207.06 18.4966 205.906C18.9869 204.465 19.72 203.12 20.664 201.927C21.2479 201.151 21.8713 200.405 22.5315 199.692C22.6133 199.6 22.6985 199.508 22.7871 199.416C25.1967 196.878 27.9788 194.723 31.0376 193.025H31.041C33.3154 191.758 35.7282 190.757 38.2317 190.043H38.2351C38.3475 190.009 38.4634 189.975 38.5759 189.944C38.811 189.883 38.8655 190.255 38.6338 190.32Z"
            fill="white" />
        <path
            d="M22.6521 199.822C21.829 198.952 21.3416 197.817 21.2769 196.62C21.2122 195.424 21.5745 194.243 22.299 193.289C22.4463 193.097 22.752 193.317 22.6045 193.51C21.9282 194.397 21.5909 195.496 21.6534 196.611C21.7159 197.725 22.1741 198.78 22.9454 199.585C23.1128 199.761 22.8186 199.996 22.6521 199.822H22.6521Z"
            fill="white" />
        <path
            d="M18.4393 209.266C20.8844 209.355 23.273 208.517 25.1287 206.92C25.3124 206.762 25.5482 207.056 25.3647 207.214C23.4305 208.872 20.9431 209.739 18.3988 209.641C18.1563 209.632 18.1981 209.257 18.4393 209.266Z"
            fill="white" />
        <path
            d="M31.3519 193.142C31.6004 193.545 31.9449 193.88 32.3546 194.117C32.7643 194.354 33.2263 194.485 33.6991 194.499C33.9416 194.505 33.8995 194.88 33.6586 194.874C33.1363 194.856 32.6262 194.71 32.173 194.45C31.7197 194.189 31.3372 193.821 31.0587 193.378C31.0289 193.339 31.0153 193.29 31.0207 193.24C31.026 193.191 31.0498 193.146 31.0873 193.114C31.1263 193.082 31.176 193.068 31.2255 193.073C31.2751 193.079 31.3205 193.103 31.3519 193.142Z"
            fill="white" />
        <path
            d="M155.53 59.0719C155.181 59.5325 154.734 59.9107 154.223 60.1799C153.711 60.4491 153.147 60.6028 152.57 60.63C151.992 60.6573 151.416 60.5575 150.882 60.3376C150.347 60.1178 149.867 59.7833 149.476 59.3577L136.594 64.967L137.849 57.7672L149.889 53.5443C150.647 52.9332 151.602 52.6217 152.574 52.6687C153.546 52.7157 154.467 53.118 155.162 53.7994C155.857 54.4807 156.279 55.3938 156.347 56.3656C156.415 57.3373 156.124 58.3003 155.53 59.0719Z"
            fill="#FFB8B8" />
        <path
            d="M146.935 61.3203L117.014 74.664L116.95 74.641L82.8481 62.4742C80.3079 61.1451 78.3714 58.8941 77.4349 56.182C76.4984 53.47 76.6328 50.5021 77.8106 47.8861C78.4635 46.4407 79.4147 45.1501 80.6017 44.0993C81.7886 43.0485 83.1844 42.2613 84.6971 41.7896C86.2098 41.3178 87.8052 41.1721 89.3782 41.3621C90.9512 41.5522 92.4662 42.0736 93.8234 42.8921L119.201 58.198L143.81 55.0047L146.935 61.3203Z"
            fill="#1B403A" />
        <path
            d="M294 219.594C294.001 219.647 293.99 219.7 293.97 219.749C293.949 219.798 293.92 219.843 293.882 219.881C293.844 219.919 293.799 219.949 293.75 219.969C293.701 219.989 293.648 220 293.595 220H0.417254C0.309698 220 0.206551 219.957 0.130498 219.881C0.0544445 219.804 0.0117188 219.701 0.0117188 219.594C0.0117188 219.486 0.0544445 219.383 0.130498 219.306C0.206551 219.23 0.309698 219.188 0.417254 219.188H293.595C293.648 219.187 293.701 219.198 293.75 219.218C293.799 219.238 293.844 219.268 293.882 219.306C293.92 219.344 293.949 219.389 293.97 219.438C293.99 219.487 294.001 219.54 294 219.594Z"
            fill="#CCCCCC" />
        <path
            d="M106.784 101.266L76.6221 96.4362C75.8311 96.1826 75.1042 95.7605 74.4914 95.1991C73.8787 94.6376 73.3945 93.95 73.0722 93.1836C72.7499 92.4171 72.597 91.5899 72.6242 90.7587C72.6513 89.9275 72.8578 89.112 73.2294 88.3682L74.5972 85.629L74.0659 56.85C74.0018 53.1066 74.9236 49.4123 76.7384 46.1387C78.5533 42.8652 81.1972 40.1279 84.4042 38.2023L87.3455 36.4414L88.832 32.6621L102.539 32.9968L102.579 37.9535L107.487 45.7903L107.487 45.8228L107.179 88.4772L105.826 92.8792L107.872 97.9991L106.784 101.266Z"
            fill="#1B403A" />
        <path
            d="M96.9402 27.963C103.818 27.963 109.394 22.3805 109.394 15.4942C109.394 8.60786 103.818 3.02539 96.9402 3.02539C90.0621 3.02539 84.4863 8.60786 84.4863 15.4942C84.4863 22.3805 90.0621 27.963 96.9402 27.963Z"
            fill="#FFB8B8" />
        <path
            d="M83.9724 18.2119C83.601 16.6452 83.7715 14.4405 83.9814 12.8629C84.5317 8.72718 86.8258 4.79539 90.311 2.46646C90.9718 1.96393 91.7571 1.65149 92.5822 1.56281C93.4067 1.52835 94.3004 1.97026 94.5536 2.75666C94.7613 2.23764 95.073 1.76674 95.4696 1.37303C95.8661 0.97932 96.339 0.671157 96.8592 0.467564C97.904 0.0667771 99.0277 -0.0847909 100.141 0.0248741C102.3 0.202993 104.369 0.962815 106.131 2.2237C107.893 3.48459 109.281 5.1995 110.148 7.18645C110.48 7.97762 111.41 5.05525 111.831 5.80279C112.218 6.57982 112.894 7.17422 113.714 7.45878C114.539 7.68949 114.875 11.0961 115.2 10.3017C115.452 10.8888 115.552 11.5302 115.49 12.1661C115.427 12.8021 115.206 13.4121 114.845 13.9391C114.484 14.4662 113.995 14.8932 113.425 15.1804C112.855 15.4676 112.222 15.6057 111.584 15.5818C110.743 15.5504 109.94 15.2408 109.109 15.1076C106.139 14.6311 102.988 16.7874 102.354 19.731C102.126 18.8797 101.763 18.0708 101.278 17.3355C101.032 16.9697 100.702 16.6681 100.316 16.4557C99.9299 16.2434 99.4988 16.1264 99.0585 16.1144C98.2135 16.1461 97.4707 16.6992 96.9224 17.3438C96.3742 17.9883 95.9624 18.7403 95.4101 19.3813C93.7894 21.2624 91.5975 25.6491 89.2879 25.3291C87.4653 25.0766 84.4796 20.3511 83.9724 18.2119Z"
            fill="#2F2E41" />
        <path
            d="M172.222 73.2017C172.309 72.6333 172.192 72.0523 171.892 71.5618C171.592 71.0713 171.129 70.7029 170.584 70.5221L137.045 59.3386C136.724 59.2309 136.383 59.1918 136.046 59.2237L127.64 60.0196L122.816 60.4777L113.915 61.3198C113.378 61.3713 112.873 61.5999 112.479 61.9697C112.085 62.3396 111.825 62.8298 111.74 63.3635L107.22 91.6276C107.135 92.1789 107.24 92.7429 107.518 93.2265C107.795 93.7101 108.23 94.0844 108.749 94.2875L142.637 107.384C142.796 107.446 142.961 107.491 143.13 107.517C143.375 107.557 143.625 107.558 143.871 107.522L165.769 104.273C166.285 104.198 166.764 103.959 167.134 103.59C167.503 103.221 167.745 102.743 167.821 102.226L172.222 73.2017Z"
            fill="white" />
        <path
            d="M109.517 92.2956L143.405 105.392C143.454 105.411 143.508 105.418 143.561 105.41L165.455 102.161C165.52 102.152 165.581 102.122 165.627 102.076C165.673 102.03 165.703 101.969 165.713 101.905L170.116 72.8799C170.126 72.809 170.111 72.7368 170.073 72.6757C170.036 72.6147 169.979 72.5684 169.911 72.545L169.686 72.4686L136.371 61.364C136.356 61.3586 136.34 61.3548 136.324 61.3526C136.298 61.3479 136.272 61.3465 136.246 61.3486L115.742 63.2911L114.115 63.4439C114.049 63.4511 113.986 63.4799 113.937 63.5259C113.888 63.572 113.856 63.6328 113.845 63.6991L109.326 91.9621C109.315 92.0311 109.328 92.1018 109.363 92.1625C109.397 92.2232 109.452 92.2702 109.517 92.2956Z"
            fill="#6C63FF" />
        <path
            d="M115.744 63.2911L136.247 61.3486C136.274 61.3465 136.3 61.3479 136.326 61.3526C136.342 61.3548 136.358 61.3586 136.373 61.364L169.687 72.4686L160.9 73.3999L157.611 73.7468L148.253 74.7367C148.225 74.7381 148.198 74.7378 148.171 74.7357C148.154 74.7307 148.137 74.7257 148.117 74.7203L115.744 63.2911Z"
            fill="#2F2E41" />
        <path
            d="M108.75 94.2875L142.638 107.384C142.797 107.445 142.963 107.488 143.132 107.513C143.378 107.554 143.628 107.557 143.874 107.522L165.769 104.273C166.286 104.198 166.765 103.958 167.135 103.589C167.505 103.22 167.746 102.742 167.823 102.225L172.223 73.1999C172.288 72.772 172.239 72.3345 172.08 71.9318C172.058 71.8782 172.036 71.8247 172.01 71.7742C171.835 71.4066 171.57 71.0897 171.238 70.8538C171.039 70.7104 170.819 70.598 170.586 70.5206L170.546 70.5065L137.049 59.3365C136.912 59.2928 136.772 59.2588 136.631 59.2348C136.437 59.2074 136.241 59.2036 136.046 59.2235L127.642 60.0167L122.819 60.4773L113.916 61.3188C113.552 61.3529 113.2 61.4692 112.887 61.6592C112.863 61.6709 112.84 61.6847 112.818 61.7005C112.803 61.7107 112.788 61.7219 112.774 61.734C112.501 61.9207 112.269 62.161 112.091 62.4405C111.914 62.7199 111.795 63.0325 111.743 63.3594L107.22 91.6254C107.135 92.1772 107.24 92.7416 107.518 93.2256C107.796 93.7095 108.231 94.0841 108.75 94.2875ZM112.343 63.4579C112.398 63.1191 112.548 62.803 112.775 62.5465C112.844 62.4639 112.921 62.3886 113.006 62.3217C113.235 62.1356 113.507 62.0086 113.797 61.9519C113.855 61.94 113.913 61.9318 113.971 61.9273L128.96 60.5096L136.105 59.8289C136.154 59.8232 136.198 59.8241 136.243 59.8215C136.351 59.8192 136.459 59.8273 136.566 59.8455C136.664 59.8583 136.76 59.8813 136.853 59.9142L170.39 71.0983C170.417 71.1077 170.44 71.1167 170.466 71.1261C170.771 71.2397 171.039 71.4349 171.241 71.6904C171.4 71.886 171.517 72.113 171.582 72.3568C171.648 72.6005 171.662 72.8554 171.623 73.1048L167.219 102.133C167.162 102.52 166.981 102.878 166.704 103.155C166.428 103.431 166.07 103.612 165.683 103.669L143.785 106.917C143.472 106.962 143.152 106.926 142.857 106.812L108.969 93.7189C108.58 93.5657 108.255 93.2848 108.047 92.9223C107.839 92.5599 107.76 92.1374 107.824 91.7243L112.343 63.4579Z"
            fill="#3F3D56" />
        <path
            d="M112.7 61.8888C112.718 61.8374 112.749 61.7918 112.791 61.757C112.805 61.7459 112.82 61.7359 112.835 61.7269C112.849 61.7215 112.864 61.7126 112.878 61.7071C112.946 61.6797 113.022 61.6784 113.091 61.7034L113.796 61.9526L148.255 74.1229L156.32 73.2698L160.833 72.7932L170.385 71.7807L171.239 71.6911L171.406 71.6727C171.477 71.6661 171.549 71.6848 171.608 71.7256C171.667 71.7663 171.71 71.8265 171.73 71.8957C171.735 71.9116 171.738 71.928 171.739 71.9445C171.746 72.0102 171.732 72.0764 171.698 72.1331C171.664 72.1899 171.613 72.2341 171.552 72.259C171.525 72.2703 171.496 72.2779 171.467 72.2818L170.305 72.4037L160.899 73.3993L157.61 73.7462L148.252 74.7361C148.224 74.7374 148.197 74.7371 148.17 74.7351C148.153 74.7301 148.136 74.725 148.116 74.7197L113.004 62.3224L112.885 62.2801C112.858 62.2712 112.832 62.2571 112.81 62.2387C112.757 62.1997 112.718 62.1447 112.698 62.0818C112.678 62.0189 112.679 61.9513 112.7 61.8888Z"
            fill="#3F3D56" />
        <path
            d="M143.223 107.602C143.144 107.589 143.073 107.546 143.026 107.481C142.978 107.416 142.958 107.335 142.97 107.256L147.917 74.3864C147.929 74.3065 147.973 74.2346 148.038 74.1866C148.103 74.1385 148.184 74.1183 148.264 74.1303L148.267 74.1308C148.346 74.1435 148.417 74.187 148.464 74.2519C148.512 74.3169 148.532 74.3979 148.52 74.4774L143.573 107.346C143.56 107.426 143.517 107.498 143.452 107.546C143.387 107.594 143.306 107.615 143.226 107.603L143.223 107.602Z"
            fill="#3F3D56" />
        <path
            d="M155.763 105.518L152.473 105.866L156.321 73.2695C156.321 73.2695 160.716 72.4729 160.833 72.7924C160.906 72.9831 155.794 105.309 155.763 105.518Z"
            fill="#3F3D56" />
        <path d="M112.885 62.2793L112.797 77.1443L139.081 87.1714L148.519 74.4775L112.885 62.2793Z"
            fill="#3F3D56" />
        <path
            d="M171.242 71.6921C171.022 71.4157 170.726 71.2097 170.391 71.0996L136.855 59.9159C136.761 59.8842 136.664 59.8606 136.566 59.8454C136.459 59.827 136.351 59.8189 136.242 59.8211L136.297 59.4809L136.632 59.2375L144.596 53.4648L171.191 61.6253L171.237 70.8552L171.242 71.6921Z"
            fill="#3F3D56" />
        <path
            d="M114.225 86.1429C114.263 86.1466 114.3 86.1544 114.337 86.1662L124.626 89.5499C124.755 89.5922 124.862 89.684 124.923 89.8052C124.984 89.9263 124.995 90.0668 124.953 90.1958C124.91 90.3248 124.819 90.4317 124.698 90.4929C124.577 90.5542 124.436 90.5648 124.307 90.5225L114.018 87.1389C113.898 87.0996 113.797 87.0176 113.735 86.9086C113.672 86.7996 113.651 86.6712 113.677 86.5479C113.703 86.4247 113.773 86.3153 113.874 86.2405C113.975 86.1658 114.1 86.1311 114.225 86.1429H114.225Z"
            fill="white" />
        <path
            d="M155.742 148.501C158 148.501 159.831 146.668 159.831 144.407C159.831 142.146 158 140.312 155.742 140.312C153.483 140.312 151.652 142.146 151.652 144.407C151.652 146.668 153.483 148.501 155.742 148.501Z"
            fill="#F2F2F2" />
        <path
            d="M51.4606 163.515C53.7191 163.515 55.55 161.682 55.55 159.421C55.55 157.159 53.7191 155.326 51.4606 155.326C49.202 155.326 47.3711 157.159 47.3711 159.421C47.3711 161.682 49.202 163.515 51.4606 163.515Z"
            fill="#F2F2F2" />
        <path
            d="M136.658 28.0579C138.916 28.0579 140.747 26.2248 140.747 23.9635C140.747 21.7023 138.916 19.8691 136.658 19.8691C134.399 19.8691 132.568 21.7023 132.568 23.9635C132.568 26.2248 134.399 28.0579 136.658 28.0579Z"
            fill="#F2F2F2" />
        <path
            d="M143.368 92.1658C142.838 92.3964 142.264 92.5078 141.686 92.4922C141.109 92.4766 140.541 92.3343 140.025 92.0755C139.508 91.8166 139.054 91.4475 138.695 90.994C138.336 90.5405 138.081 90.0138 137.947 89.4509L123.971 88.0371L128.582 82.3711L141.147 84.5823C142.106 84.4202 143.092 84.6162 143.917 85.133C144.741 85.6498 145.348 86.4515 145.622 87.3863C145.896 88.3211 145.817 89.3239 145.402 90.2048C144.987 91.0857 144.263 91.7835 143.368 92.1658Z"
            fill="#FFB8B8" />
        <path
            d="M134.77 89.9168L102.154 86.908L102.109 86.8565L78.3049 59.5482C76.7383 57.1452 76.1485 54.2335 76.6562 51.4094C77.1638 48.5852 78.7306 46.0622 81.0357 44.3568C82.3111 43.4157 83.7712 42.7556 85.3198 42.4201C86.8683 42.0846 88.4703 42.0813 90.0203 42.4104C91.5702 42.7394 93.033 43.3934 94.3123 44.3293C95.5916 45.2652 96.6584 46.4617 97.4425 47.8401L112.104 73.6158L135.13 82.8783L134.77 89.9168Z"
            fill="#1B403A" />
        <path
            d="M216.636 37.4011C215.826 31.4527 214.81 25.0662 210.62 20.7721C209.29 19.4096 207.699 18.3308 205.941 17.6008C204.184 16.8707 202.297 16.5045 200.395 16.5242C198.492 16.5439 196.613 16.9491 194.871 17.7155C193.13 18.4818 191.561 19.5934 190.26 20.9831C187.209 24.2411 185.862 28.8159 185.739 33.2799C185.616 37.7438 186.609 42.1581 187.71 46.4854C193.54 46.602 199.326 45.4617 204.677 43.1419C206.015 42.5605 207.331 41.9031 208.745 41.5429C210.158 41.1827 211.166 42.0891 212.481 42.7212L213.202 41.3375C213.793 42.4384 215.623 42.1121 216.287 41.0535C216.95 39.995 216.805 38.6394 216.636 37.4011Z"
            fill="#2F2E41" />
        <path
            d="M193.529 70.6028L169.716 71.1127C169.35 70.4798 168.809 69.967 168.157 69.6366C167.506 69.3062 166.772 69.1725 166.046 69.2518C165.32 69.331 164.633 69.6199 164.068 70.0831C163.503 70.5463 163.085 71.164 162.864 71.861C162.643 72.5579 162.629 73.3041 162.824 74.0087C163.019 74.7133 163.415 75.3459 163.962 75.8297C164.51 76.3134 165.186 76.6273 165.909 76.7333C166.631 76.8393 167.369 76.7327 168.032 76.4265C171.191 76.6062 195.899 80.1173 197.373 77.8546C198.87 75.5579 206.856 67.4527 206.856 67.4527L200.717 58.7031L193.529 70.6028Z"
            fill="#9E616A" />
        <path
            d="M199.331 43.286C205.51 43.286 210.519 38.2709 210.519 32.0844C210.519 25.8979 205.51 20.8828 199.331 20.8828C193.152 20.8828 188.143 25.8979 188.143 32.0844C188.143 38.2709 193.152 43.286 199.331 43.286Z"
            fill="#9E616A" />
        <path
            d="M217.251 53.638C215.933 51.0109 215.292 47.7653 212.481 46.9136C210.583 46.3385 202.906 47.2004 201.176 48.1712C198.299 49.7862 200.906 52.8123 199.209 55.6442C197.363 58.7228 192.348 64.9009 190.503 67.9794C189.234 70.0958 193.507 76.3078 192.821 78.6787C192.135 81.0495 192.102 83.7104 193.271 85.8838C194.317 87.8291 192.804 89.55 193.855 91.4921C194.949 93.5119 196.292 101.064 195.274 103.123L194.592 105.17C201.356 105.568 207.043 97.478 213.764 96.6258C215.434 96.4141 217.167 96.1376 218.543 95.1674C220.569 93.7382 221.37 91.1449 221.871 88.7144C224.281 76.8336 222.655 64.4873 217.251 53.638Z"
            fill="#1B403A" />
        <path
            d="M227.392 81.3768C226.45 78.8023 224.744 67.5458 224.744 67.5458L214.069 67.2324L219.288 80.1202L205.047 100.081C205.047 100.081 205.073 100.125 205.121 100.203C204.372 100.083 203.605 100.192 202.919 100.516C202.233 100.839 201.66 101.363 201.276 102.017C200.892 102.672 200.715 103.428 200.767 104.185C200.819 104.943 201.098 105.667 201.568 106.263C202.038 106.859 202.676 107.299 203.4 107.526C204.124 107.752 204.899 107.755 205.624 107.533C206.35 107.311 206.991 106.876 207.465 106.283C207.939 105.69 208.223 104.968 208.28 104.211C208.332 104.241 208.394 104.252 208.453 104.241C208.513 104.231 208.567 104.2 208.606 104.155C210.191 102.164 228.334 83.9514 227.392 81.3768Z"
            fill="#9E616A" />
        <path
            d="M228.476 74.2688C227.496 70.1284 226.509 65.9655 224.857 62.0451C223.205 58.1247 220.84 54.4217 217.514 51.7732C216.451 50.9264 215.262 50.179 213.929 49.9157C212.596 49.6524 211.094 49.9471 210.158 50.933C208.659 52.5105 209.11 55.0427 209.66 57.1489C211.28 63.3588 212.9 69.5688 214.52 75.7787C219.199 75.2822 223.878 74.7856 228.557 74.2891L228.476 74.2688Z"
            fill="#1B403A" />
        <path
            d="M213.04 33.6386C212.628 30.9288 212.197 28.1964 211.229 25.6448C210.261 23.0933 208.701 20.7034 206.463 19.258C202.919 16.9695 198.331 17.4109 194.358 18.7273C191.285 19.7453 188.286 21.2926 186.119 23.7802C183.952 26.2678 182.735 29.8173 183.541 33.0699C187.779 32.0674 192.017 31.0648 196.256 30.0623L195.792 30.3905C197.183 31.0852 198.398 32.0883 199.345 33.3234C200.292 34.5586 200.945 35.9935 201.255 37.5191C201.558 39.0632 201.514 40.6555 201.127 42.1808C200.74 43.706 200.02 45.1261 199.017 46.3383C201.908 45.3117 204.798 44.2851 207.689 43.2585C209.473 42.6249 211.382 41.8947 212.44 40.2695C213.667 38.3851 213.382 35.8874 213.04 33.6386Z"
            fill="#2F2E41" />
    </g>
    <defs>
        <clipPath id="clip0_5120_1430">
            <rect width="294" height="220" fill="white" />
        </clipPath>
    </defs>
</svg>