<svg width="100%" viewBox="0 0 15 14" fill="none" xmlns="http://www.w3.org/2000/svg">
<path d="M12.8739 0.6009C13.409 0.744476 13.8247 1.13692 13.9623 1.62508C13.9987 1.75191 14.0039 2.00795 14.0039 3.52029V5.26953H13.4844H12.9674L12.9596 3.57533L12.9518 1.88352L12.8791 1.77105C12.8323 1.69687 12.7648 1.63465 12.6843 1.59158L12.5622 1.52458L10.697 1.5174L8.83447 1.51022V1.03402V0.555434L10.775 0.557827C12.5466 0.557827 12.731 0.562613 12.8739 0.6009Z" fill="#FF783E"/>
<path d="M5.22266 1.03402V1.51022L3.3575 1.5174L1.49495 1.52458L1.37286 1.59158C1.29233 1.63465 1.22479 1.69687 1.17803 1.77105L1.10529 1.88352L1.0975 3.57533L1.08971 5.26953H0.572764H0.0532227V3.52029C0.0532227 1.57961 0.0480275 1.63944 0.227269 1.3116C0.351959 1.08188 0.624718 0.830623 0.874098 0.715762C1.22998 0.550649 1.15985 0.555434 3.29776 0.555434H5.22266V1.03402Z" fill="#FF783E"/>
<path d="M10.9445 4.73505L11.3263 5.0892L10.6327 5.72812L9.93655 6.36943H11.8407H13.7422V6.84802V7.3266H11.8277H9.91057L10.6249 7.98466L11.3367 8.64033L10.9626 8.97056C10.7574 9.15242 10.5782 9.30078 10.5626 9.30078C10.5444 9.30078 9.93655 8.74801 9.20919 8.0732L7.88696 6.84562L9.22478 5.61326L10.56 4.38328L10.9445 4.73505Z" fill="#FF783E"/>
<path d="M4.95906 5.61326L6.29688 6.84562L4.97464 8.0732C4.24729 8.74801 3.63942 9.30078 3.62124 9.30078C3.60565 9.30078 3.42641 9.15242 3.22119 8.97056L2.84712 8.64033L3.55889 7.98466L4.27326 7.3266H2.35616H0.441647V6.84802V6.36943H2.34317H4.24729L3.5511 5.72812L2.85751 5.0892L3.24197 4.73505L3.62384 4.38328L4.95906 5.61326Z" fill="#FF783E"/>
<path d="M14.0039 10.1997C14.0039 12.114 14.0091 12.0566 13.8298 12.3844C13.7052 12.6142 13.4324 12.8654 13.183 12.9803C12.8271 13.1454 12.8973 13.1406 10.7594 13.1406H8.83446V12.662V12.1858L10.697 12.1786L12.5622 12.1715L12.6843 12.1045C12.7648 12.0614 12.8323 11.9992 12.8791 11.925L12.9518 11.8125L12.9596 10.1423L12.9674 8.47437H13.4843H14.0039V10.1997Z" fill="#FF783E"/>
<path d="M1.04281 10.1423L1.05061 11.8125L1.12334 11.925C1.1701 11.9992 1.23764 12.0614 1.31817 12.1045L1.44026 12.1715L3.30282 12.1786L5.16797 12.1858V12.662V13.1406H3.24307C1.10516 13.1406 1.1753 13.1454 0.81941 12.9803C0.570031 12.8654 0.297271 12.6142 0.172582 12.3844C-0.00665998 12.0566 -0.00146484 12.114 -0.00146484 10.1997V8.47437H0.518076H1.03502L1.04281 10.1423Z" fill="#FF783E"/>
</svg>
