<svg width="100%" viewBox="0 0 29 18" fill="none" xmlns="http://www.w3.org/2000/svg">
    <path d="M0 2.22381V4.4559L2.7413 4.47683C5.76858 4.51171 5.82438 4.51868 6.82883 4.993C7.61006 5.36269 8.16111 5.78121 9.34691 6.93911C9.93981 7.51806 10.6583 8.20164 10.9443 8.45973L11.4535 8.92708L10.9443 9.39442C10.6583 9.65251 9.93981 10.3361 9.34691 10.915C8.16111 12.0729 7.61006 12.4915 6.82883 12.8611C5.82438 13.3355 5.76858 13.3424 2.7413 13.3773L0 13.3982V15.6303V17.8555H2.51111C3.8992 17.8555 5.32914 17.8206 5.7058 17.7857C7.12179 17.6323 8.46802 17.1928 9.59105 16.5023C10.456 15.9791 11.1744 15.3792 12.6951 13.9005C14.1669 12.4775 14.69 12.066 15.4922 11.6893C16.4617 11.2289 16.6152 11.208 19.0426 11.1801L21.2398 11.1522L19.9564 12.4426C18.8194 13.5796 18.6729 13.754 18.6729 13.9563C18.6729 14.1167 18.7287 14.2283 18.8612 14.3469L19.0565 14.5143L20.9189 14.4934C22.7116 14.4724 22.7883 14.4655 23.0952 14.305C23.3185 14.1934 24.1555 13.4052 25.7598 11.7939C28.0407 9.50603 28.1035 9.44325 28.1454 9.12238C28.2291 8.55041 28.1035 8.38998 25.6831 5.97652C23.7928 4.10016 23.4022 3.73745 23.0464 3.57702C22.6349 3.38171 22.6279 3.38171 20.8492 3.36078L19.0635 3.33288L18.8682 3.50029C18.7287 3.62584 18.6729 3.73745 18.6729 3.89788C18.6729 4.10016 18.8194 4.27455 19.9564 5.41152L21.2398 6.70195L19.0426 6.67405C16.6152 6.64615 16.4617 6.62522 15.4922 6.16485C14.69 5.78819 14.1669 5.37664 12.6951 3.95368C11.1744 2.47492 10.456 1.87504 9.59105 1.35189C8.46802 0.661337 7.12179 0.221892 5.7058 0.0684356C5.32914 0.033559 3.8992 -0.0013175 2.51111 -0.0013175H0V2.22381Z" fill="#FF783E" />
</svg>