<svg width="100%" viewBox="0 0 152 120" fill="none" xmlns="http://www.w3.org/2000/svg">
    <g filter="url(#filter0_d_2912_2391)">
        <path d="M63.6147 111.345C33.1619 111.345 8.38658 86.3707 8.38658 55.6726C8.38658 24.9744 33.1619 0 63.6147 0C94.0675 0 118.843 24.9747 118.843 55.6726C118.843 86.3705 94.0675 111.345 63.6147 111.345V111.345ZM63.6147 0.935673C33.6736 0.935673 24.6301 39.7661 9.31478 55.6726C-11.5383 77.3305 33.6736 110.409 63.6147 110.409C93.5558 110.409 117.915 85.8544 117.915 55.6726C117.915 25.4907 93.5558 0.935673 63.6147 0.935673V0.935673Z" fill="#F2F2F2" />
    </g>
    <g filter="url(#filter1_d_2912_2391)">
        <path d="M67.2372 69.0871C67.2372 69.9872 66.6363 70.7169 65.8952 70.7169C65.154 70.7169 64.5532 69.9872 64.5532 69.0871V56.7233L61.4774 60.4621C60.9527 61.0994 60.1019 61.0994 59.5771 60.4621C59.0524 59.8248 59.0524 58.7916 59.5771 58.1543L64.9451 51.6351C65.4685 50.9978 66.3182 50.9965 66.8429 51.6322L66.8453 51.6351L72.2132 58.1543C72.738 58.7916 72.738 59.8248 72.2132 60.4621C71.6885 61.0994 70.8377 61.0994 70.313 60.4621L67.2372 56.7233V69.0871V69.0871Z" fill="#FF783E" />
    </g>
    <g filter="url(#filter2_d_2912_2391)">
        <path d="M84.5405 76.3653V45.9899L70.558 31.6016H53.4683C50.0362 31.6016 47.2539 34.4646 47.2539 37.9964V76.3653C47.2539 79.8971 50.0362 82.7601 53.4683 82.7601H78.3261C81.7582 82.7601 84.5405 79.8971 84.5405 76.3653ZM70.558 41.1938C70.558 43.8426 72.6448 45.9899 75.2189 45.9899H81.4333V76.3653C81.4333 78.1312 80.0422 79.5627 78.3261 79.5627H53.4683C51.7523 79.5627 50.3611 78.1312 50.3611 76.3653V37.9964C50.3611 36.2305 51.7523 34.799 53.4683 34.799H70.558V41.1938V41.1938Z" fill="#FF783E" />
    </g>
    <g filter="url(#filter3_d_2912_2391)">
        <path d="M142.226 86.0819C142.301 85.2521 140.386 84.796 140.492 84.0709C140.597 83.3484 142.536 83.5498 144.622 82.2944C144.998 82.068 147.37 80.6413 147.171 79.5191C146.793 77.392 137.514 78.23 136.692 75.1286C136.512 74.4479 136.719 73.5052 136.229 71.3679C136.033 70.5177 135.864 70.0747 135.5 69.9267C134.984 69.7168 134.526 70.2844 133.223 71.1066C131.271 72.3396 130.93 71.9291 129.523 73.0238C128.479 73.8365 128.118 74.4895 127.676 74.3445C127.051 74.1392 127.369 72.6989 126.657 72.3267C125.93 71.9469 124.62 72.9356 123.811 73.8016C122.292 75.4265 122.096 77.0898 121.567 78.6013C120.991 80.2439 119.752 82.4753 116.761 84.7283L89.5 103.754C95.2336 99.9522 111.256 89.7548 117.489 86.1696C119.289 85.1346 121.176 84.1306 123.195 84.6679C125.139 85.1851 126.971 87.0686 130.093 88.368C130.457 88.5198 131.478 88.9291 131.953 88.4953C132.346 88.1367 132.008 87.5285 132.37 87.1882C132.855 86.7316 133.856 87.4554 135.521 87.7378C136.694 87.9369 137.601 87.8154 138.38 87.7109C138.615 87.6794 142.127 87.1865 142.226 86.0819L142.226 86.0819L142.226 86.0819V86.0819Z" fill="#F2F2F2" />
        <path d="M97.3005 73.6942C96.9199 73.4176 96.1463 74.2379 95.8255 73.9759C95.5058 73.715 96.1626 72.8097 96.1563 71.4104C96.1551 71.158 96.1478 69.5678 95.5465 69.343C94.4068 68.9168 92.1355 73.7707 90.3952 73.2844C90.0133 73.1777 89.6163 72.8024 88.4389 72.4297C87.9705 72.2814 87.707 72.2375 87.5303 72.3758C87.2795 72.572 87.4223 72.9635 87.4451 73.848C87.4793 75.1744 87.182 75.2253 87.3067 76.2403C87.3993 76.9938 87.6117 77.3615 87.4139 77.5393C87.1339 77.7908 86.5278 77.217 86.1418 77.4638C85.748 77.7156 85.8492 78.6519 86.0354 79.304C86.3847 80.5277 87.1344 81.1048 87.7141 81.8042C88.3442 82.5642 89.068 83.8241 89.2971 85.9606L90.6521 105C90.464 101.053 90.1449 90.1469 90.2057 86.0145C90.2232 84.8216 90.2812 83.5937 91.1242 82.7452C91.9358 81.9282 93.377 81.5614 94.9077 80.3845C95.0864 80.247 95.5792 79.858 95.5061 79.4967C95.4456 79.198 95.0534 79.1903 94.9929 78.9123C94.9116 78.5393 95.5513 78.2504 96.1684 77.5047C96.6035 76.9789 96.8061 76.4933 96.9804 76.0757C97.033 75.9498 97.8072 74.0623 97.3006 73.6941L97.3005 73.6941L97.3005 73.6942V73.6942Z" fill="#F2F2F2" />
        <path d="M103.641 80.9678L104.889 78.7332L105.105 78.6531C106.106 78.2827 106.858 77.7556 107.341 77.086C107.418 76.9796 107.489 76.8692 107.562 76.7568C107.851 76.3111 108.209 75.7571 108.931 75.3345C109.335 75.0996 110.346 74.6116 110.928 75.1901C111.086 75.344 111.16 75.5233 111.193 75.6932C111.225 75.6801 111.257 75.6673 111.292 75.6533C111.72 75.488 111.978 75.4713 112.226 75.4553C112.416 75.4429 112.613 75.4303 112.98 75.3283C113.141 75.2836 113.274 75.2382 113.386 75.2001C113.726 75.0855 114.149 74.9628 114.535 75.253C114.937 75.5777 114.906 76.0856 114.886 76.422C114.849 77.022 114.754 77.404 114.691 77.6573C114.668 77.7498 114.642 77.8541 114.641 77.891C114.632 78.1888 115.855 78.8005 116.314 79.0334C117.347 79.5532 118.241 80.0031 118.149 80.8328C118.084 81.4266 117.511 81.8553 116.399 82.1401C116.053 82.2285 115.734 82.2544 115.463 82.2596C115.545 82.454 115.579 82.684 115.481 82.9343C115.247 83.5263 114.463 83.7167 113.15 83.5026C112.823 83.4503 112.384 83.3782 111.877 83.1267C111.638 83.008 111.441 82.8769 111.273 82.762C111.201 82.8553 111.105 82.9428 110.971 83.0074C110.577 83.1979 110.119 83.0898 109.614 82.6654C109.053 82.2069 108.653 81.7421 108.3 81.3328C107.991 80.9758 107.724 80.6693 107.462 80.5028C106.97 80.2006 106.344 80.3148 105.575 80.4952L103.641 80.9679L103.641 80.9678L103.641 80.9678V80.9678Z" fill="#F2F2F2" />
        <path d="M113.483 69.4386L111.032 68.7828L110.9 68.5911C110.293 67.7043 109.599 67.1014 108.837 66.7983C108.715 66.75 108.592 66.7081 108.466 66.6653C107.967 66.4959 107.347 66.2855 106.76 65.6851C106.433 65.3493 105.711 64.4829 106.116 63.7659C106.223 63.572 106.375 63.4535 106.529 63.3785C106.508 63.3506 106.488 63.3221 106.466 63.2915C106.199 62.9141 106.118 62.6661 106.04 62.4273C105.98 62.2438 105.918 62.0543 105.727 61.7206C105.644 61.5741 105.567 61.4553 105.502 61.3552C105.306 61.0518 105.082 60.6676 105.261 60.2161C105.469 59.7403 105.962 59.6419 106.289 59.5765C106.871 59.4596 107.26 59.4558 107.518 59.4533C107.612 59.4527 107.718 59.4514 107.754 59.4436C108.041 59.3764 108.315 58.0233 108.421 57.5147C108.655 56.3707 108.858 55.3807 109.674 55.2604C110.258 55.1738 110.812 55.6262 111.366 56.6431C111.539 56.9599 111.644 57.2663 111.718 57.5305C111.883 57.4002 112.094 57.3087 112.358 57.3417C112.983 57.4206 113.364 58.1402 113.492 59.4809C113.525 59.8143 113.567 60.2623 113.456 60.823C113.403 61.087 113.328 61.3138 113.261 61.5068C113.368 61.5535 113.476 61.6257 113.572 61.7405C113.854 62.0778 113.867 62.5547 113.589 63.1566C113.294 63.8228 112.951 64.3324 112.65 64.7822C112.387 65.1752 112.162 65.5143 112.07 65.8136C111.906 66.3715 112.174 66.9564 112.541 67.6635L113.483 69.4386L113.483 69.4386L113.483 69.4386V69.4386Z" fill="#F2F2F2" />
        <path d="M116.781 62.5694L118.029 60.3348L118.246 60.2546C119.247 59.8842 119.999 59.3571 120.482 58.6876C120.559 58.5811 120.63 58.4707 120.703 58.3583C120.991 57.9127 121.349 57.3587 122.072 56.9361C122.475 56.7011 123.486 56.2131 124.068 56.7917C124.226 56.9456 124.301 57.1249 124.334 57.2947C124.365 57.2816 124.398 57.2688 124.433 57.2548C124.861 57.0895 125.118 57.0729 125.366 57.0568C125.557 57.0444 125.753 57.0319 126.121 56.9299C126.282 56.8852 126.415 56.8398 126.527 56.8017C126.866 56.687 127.29 56.5643 127.676 56.8545C128.078 57.1793 128.046 57.6872 128.026 58.0235C127.99 58.6236 127.895 59.0056 127.832 59.2589C127.809 59.3514 127.783 59.4557 127.781 59.4925C127.773 59.7904 128.996 60.4021 129.455 60.6349C130.488 61.1548 131.382 61.6046 131.29 62.4344C131.225 63.0281 130.652 63.4569 129.54 63.7416C129.194 63.8301 128.874 63.856 128.603 63.8612C128.686 64.0555 128.72 64.2856 128.621 64.5358C128.387 65.1279 127.603 65.3183 126.29 65.1042C125.964 65.0518 125.525 64.9798 125.018 64.7282C124.779 64.6095 124.581 64.4784 124.414 64.3635C124.342 64.4568 124.246 64.5444 124.112 64.6089C123.718 64.7995 123.259 64.6914 122.755 64.2669C122.193 63.8085 121.793 63.3437 121.44 62.9343C121.131 62.5773 120.865 62.2709 120.602 62.1044C120.111 61.8022 119.484 61.9163 118.716 62.0968L116.781 62.5694L116.781 62.5694L116.781 62.5694V62.5694Z" fill="#F2F2F2" />
        <path d="M90.2035 104.219L89.9697 103.634L90.2235 103.058L89.9697 103.634L89.4297 103.326C89.4553 103.274 89.5052 103.146 89.5848 102.947C90.0219 101.86 91.3509 98.5483 93.9479 93.7028C95.7608 90.3204 97.8078 86.9772 100.033 83.7643C102.261 80.5464 104.132 78.2451 105.635 76.3951C106.769 75 107.873 73.6888 108.949 72.4121C111.822 69.0004 114.535 65.7775 117.04 61.8438C117.599 60.9659 118.764 59.138 119.086 56.5218C119.273 55.0044 119.151 53.4459 118.721 51.8905L119.922 51.5508C120.395 53.2689 120.529 54.9944 120.322 56.6792C119.964 59.5799 118.696 61.5717 118.087 62.5286C115.537 66.5318 112.798 69.7855 109.897 73.2299C108.825 74.5024 107.726 75.8076 106.597 77.1971C105.107 79.0297 103.253 81.3112 101.053 84.4878C98.8545 87.662 96.8329 90.9645 95.0423 94.304C92.4784 99.0886 91.1695 102.351 90.7395 103.422C90.5095 103.994 90.4614 104.114 90.2035 104.219V104.219V104.219Z" fill="#F2F2F2" />
        <path d="M115.726 52.1589C115.685 52.1286 115.644 52.0969 115.604 52.0628C114.778 51.3862 114.354 50.2821 114.344 48.7813C114.34 48.0761 114.545 47.4251 114.955 46.127C115.018 45.9267 115.348 44.9185 115.998 43.6755C116.423 42.8632 116.656 42.5642 116.996 42.3975C117.372 42.2114 117.783 42.1898 118.177 42.2608C118.234 42.1536 118.316 42.0603 118.431 41.9882C118.908 41.6881 119.325 42.079 119.553 42.2872C119.667 42.3949 119.808 42.5303 119.983 42.6448C120.258 42.8261 120.457 42.8506 120.759 42.889C121.047 42.9255 121.406 42.9709 121.843 43.1712C122.707 43.5627 123.183 44.2394 123.339 44.4623C124.168 45.6303 124.092 46.884 124.004 48.3355C123.986 48.6261 123.893 49.665 123.462 50.8673C123.152 51.7347 122.895 52.0331 122.664 52.2259C122.192 52.623 121.699 52.6876 120.513 52.7589C119.274 52.8349 118.653 52.8723 118.177 52.8234C117.071 52.7079 116.377 52.6355 115.727 52.1589L115.726 52.1589H115.726V52.1589Z" fill="#F2F2F2" />
    </g>
    <defs>
        <filter id="filter0_d_2912_2391" x="0" y="0" width="122.844" height="119.344" filterUnits="userSpaceOnUse" color-interpolation-filters="sRGB">
            <feFlood flood-opacity="0" result="BackgroundImageFix" />
            <feColorMatrix in="SourceAlpha" type="matrix" values="0 0 0 0 0 0 0 0 0 0 0 0 0 0 0 0 0 0 127 0" result="hardAlpha" />
            <feOffset dy="4" />
            <feGaussianBlur stdDeviation="2" />
            <feComposite in2="hardAlpha" operator="out" />
            <feColorMatrix type="matrix" values="0 0 0 0 0 0 0 0 0 0 0 0 0 0 0 0 0 0 0.25 0" />
            <feBlend mode="normal" in2="BackgroundImageFix" result="effect1_dropShadow_2912_2391" />
            <feBlend mode="normal" in="SourceGraphic" in2="effect1_dropShadow_2912_2391" result="shape" />
        </filter>
        <filter id="filter1_d_2912_2391" x="55.1836" y="51.1562" width="21.4219" height="27.5625" filterUnits="userSpaceOnUse" color-interpolation-filters="sRGB">
            <feFlood flood-opacity="0" result="BackgroundImageFix" />
            <feColorMatrix in="SourceAlpha" type="matrix" values="0 0 0 0 0 0 0 0 0 0 0 0 0 0 0 0 0 0 127 0" result="hardAlpha" />
            <feOffset dy="4" />
            <feGaussianBlur stdDeviation="2" />
            <feComposite in2="hardAlpha" operator="out" />
            <feColorMatrix type="matrix" values="0 0 0 0 0 0 0 0 0 0 0 0 0 0 0 0 0 0 0.25 0" />
            <feBlend mode="normal" in2="BackgroundImageFix" result="effect1_dropShadow_2912_2391" />
            <feBlend mode="normal" in="SourceGraphic" in2="effect1_dropShadow_2912_2391" result="shape" />
        </filter>
        <filter id="filter2_d_2912_2391" x="43.2539" y="31.6016" width="45.2852" height="59.1602" filterUnits="userSpaceOnUse" color-interpolation-filters="sRGB">
            <feFlood flood-opacity="0" result="BackgroundImageFix" />
            <feColorMatrix in="SourceAlpha" type="matrix" values="0 0 0 0 0 0 0 0 0 0 0 0 0 0 0 0 0 0 127 0" result="hardAlpha" />
            <feOffset dy="4" />
            <feGaussianBlur stdDeviation="2" />
            <feComposite in2="hardAlpha" operator="out" />
            <feColorMatrix type="matrix" values="0 0 0 0 0 0 0 0 0 0 0 0 0 0 0 0 0 0 0.25 0" />
            <feBlend mode="normal" in2="BackgroundImageFix" result="effect1_dropShadow_2912_2391" />
            <feBlend mode="normal" in="SourceGraphic" in2="effect1_dropShadow_2912_2391" result="shape" />
        </filter>
        <filter id="filter3_d_2912_2391" x="81.8711" y="41.8789" width="69.3125" height="71.1211" filterUnits="userSpaceOnUse" color-interpolation-filters="sRGB">
            <feFlood flood-opacity="0" result="BackgroundImageFix" />
            <feColorMatrix in="SourceAlpha" type="matrix" values="0 0 0 0 0 0 0 0 0 0 0 0 0 0 0 0 0 0 127 0" result="hardAlpha" />
            <feOffset dy="4" />
            <feGaussianBlur stdDeviation="2" />
            <feComposite in2="hardAlpha" operator="out" />
            <feColorMatrix type="matrix" values="0 0 0 0 0 0 0 0 0 0 0 0 0 0 0 0 0 0 0.25 0" />
            <feBlend mode="normal" in2="BackgroundImageFix" result="effect1_dropShadow_2912_2391" />
            <feBlend mode="normal" in="SourceGraphic" in2="effect1_dropShadow_2912_2391" result="shape" />
        </filter>
    </defs>
</svg>