<svg width="100%" viewBox="0 0 153 141" fill="none" xmlns="http://www.w3.org/2000/svg">
    <g filter="url(#filter0_d_2884_714)">
        <path d="M106.771 121.974H40.6322C39.0615 121.972 37.5556 121.349 36.4451 120.242C35.3346 119.135 34.7103 117.633 34.7091 116.067V90.7239C34.5721 90.8796 34.4288 91.0331 34.2812 91.1824V116.067C34.2828 117.746 34.9523 119.356 36.143 120.543C37.3336 121.731 38.9481 122.399 40.6322 122.401H106.957C106.893 122.26 106.831 122.117 106.771 121.974ZM34.7091 28.2981C34.7103 26.7322 35.3346 25.2309 36.4451 24.1234C37.5556 23.016 39.0615 22.3931 40.6322 22.3913H62.6691C62.6285 22.2485 62.59 22.1077 62.5536 21.9648H40.6322C38.9481 21.9669 37.3336 22.6349 36.143 23.8222C34.9523 25.0096 34.2828 26.6192 34.2812 28.2981V67.1503C34.4288 67.2996 34.57 67.4531 34.7091 67.6088V28.2981ZM123.516 33.2793L109.697 22.3679C109.367 22.1071 108.959 21.9651 108.538 21.9648H96.24C96.2058 22.1077 96.1673 22.2506 96.1267 22.3913H108.538C108.862 22.3921 109.177 22.5009 109.432 22.7005L123.25 33.6141C123.382 33.7172 123.488 33.8488 123.56 33.9988C123.633 34.1488 123.67 34.3133 123.67 34.4799V97.989C123.813 97.9933 123.956 98.0039 124.097 98.0146V34.4799C124.098 34.2489 124.046 34.0207 123.945 33.8127C123.845 33.6047 123.698 33.4223 123.516 33.2793Z" fill="#1B403A" />
    </g>
    <g filter="url(#filter1_d_2884_714)">
        <path d="M123.333 33.8432H112.182C111.779 33.8432 111.38 33.764 111.008 33.6103C110.636 33.4565 110.297 33.2311 110.012 32.947C109.727 32.6629 109.501 32.3256 109.347 31.9544C109.193 31.5832 109.113 31.1854 109.113 30.7836V22.574C109.113 22.5381 109.123 22.5029 109.143 22.4724C109.162 22.442 109.189 22.4175 109.222 22.4019C109.254 22.3862 109.29 22.38 109.326 22.384C109.362 22.3879 109.396 22.4018 109.424 22.4241L123.452 33.5021C123.483 33.5267 123.506 33.5604 123.517 33.5986C123.528 33.6367 123.527 33.6773 123.514 33.7148C123.501 33.7523 123.476 33.7848 123.444 33.8078C123.411 33.8308 123.372 33.8432 123.333 33.8432Z" fill="#DAEBE8" />
    </g>
    <g filter="url(#filter2_d_2884_714)">
        <path d="M123.332 34.0548H112.182C111.311 34.0538 110.477 33.7087 109.861 33.0951C109.246 32.4816 108.899 31.6497 108.898 30.782V22.5725C108.898 22.4965 108.92 22.422 108.96 22.3576C109.001 22.2932 109.059 22.2414 109.128 22.2083C109.196 22.1752 109.273 22.1621 109.349 22.1704C109.424 22.1787 109.496 22.2081 109.556 22.2553L123.584 33.3334C123.65 33.3855 123.698 33.4568 123.721 33.5375C123.745 33.6181 123.743 33.7041 123.715 33.7834C123.687 33.8627 123.635 33.9314 123.567 33.9801C123.498 34.0287 123.416 34.0548 123.332 34.0548ZM109.326 22.618V30.782C109.327 31.5366 109.628 32.2601 110.163 32.7937C110.699 33.3273 111.425 33.6275 112.182 33.6283H123.268L109.326 22.618Z" fill="#3F3D56" />
    </g>
    <g filter="url(#filter3_d_2884_714)">
        <path d="M101.2 47.9932H68.3979C67.9909 47.9932 67.6005 47.832 67.3127 47.5451C67.025 47.2582 66.8633 46.8691 66.8633 46.4634C66.8633 46.0577 67.025 45.6685 67.3127 45.3817C67.6005 45.0948 67.9909 44.9336 68.3979 44.9336H101.2C101.607 44.9336 101.997 45.0948 102.285 45.3817C102.573 45.6685 102.734 46.0577 102.734 46.4634C102.734 46.8691 102.573 47.2582 102.285 47.5451C101.997 47.832 101.607 47.9932 101.2 47.9932Z" fill="#68837E" />
    </g>
    <g filter="url(#filter4_d_2884_714)">
        <path d="M107.53 53.1533H68.3979C67.9909 53.1533 67.6005 52.9921 67.3127 52.7053C67.025 52.4184 66.8633 52.0293 66.8633 51.6235C66.8633 51.2178 67.025 50.8287 67.3127 50.5418C67.6005 50.2549 67.9909 50.0938 68.3979 50.0938H107.53C107.937 50.0938 108.327 50.2549 108.615 50.5418C108.903 50.8287 109.064 51.2178 109.064 51.6235C109.064 52.0293 108.903 52.4184 108.615 52.7053C108.327 52.9921 107.937 53.1533 107.53 53.1533H107.53Z" fill="#68837E" />
    </g>
    <g filter="url(#filter5_d_2884_714)">
        <path d="M101.2 71.1299H68.3979C67.9909 71.1299 67.6005 70.9687 67.3127 70.6818C67.025 70.3949 66.8633 70.0058 66.8633 69.6001C66.8633 69.1944 67.025 68.8053 67.3127 68.5184C67.6005 68.2315 67.9909 68.0703 68.3979 68.0703H101.2C101.607 68.0703 101.997 68.2315 102.285 68.5184C102.573 68.8053 102.734 69.1944 102.734 69.6001C102.734 70.0058 102.573 70.3949 102.285 70.6818C101.997 70.9687 101.607 71.1299 101.2 71.1299Z" fill="#68837E" />
    </g>
    <g filter="url(#filter6_d_2884_714)">
        <path d="M107.53 76.2939H68.3979C67.9909 76.2939 67.6005 76.1328 67.3127 75.8459C67.025 75.559 66.8633 75.1699 66.8633 74.7642C66.8633 74.3584 67.025 73.9693 67.3127 73.6824C67.6005 73.3956 67.9909 73.2344 68.3979 73.2344H107.53C107.937 73.2344 108.327 73.3956 108.615 73.6824C108.903 73.9693 109.064 74.3584 109.064 74.7642C109.064 75.1699 108.903 75.559 108.615 75.8459C108.327 76.1328 107.937 76.2939 107.53 76.2939H107.53Z" fill="#68837E" />
    </g>
    <g filter="url(#filter7_d_2884_714)">
        <path d="M101.2 94.2666H68.3979C68.1963 94.2666 67.9968 94.227 67.8106 94.1501C67.6244 94.0733 67.4552 93.9606 67.3127 93.8185C67.1702 93.6765 67.0572 93.5078 66.9801 93.3222C66.903 93.1366 66.8633 92.9377 66.8633 92.7368C66.8633 92.5359 66.903 92.337 66.9801 92.1514C67.0572 91.9658 67.1702 91.7971 67.3127 91.6551C67.4552 91.513 67.6244 91.4004 67.8106 91.3235C67.9968 91.2466 68.1963 91.207 68.3979 91.207H101.2C101.607 91.207 101.997 91.3682 102.285 91.6551C102.573 91.942 102.734 92.3311 102.734 92.7368C102.734 93.1425 102.573 93.5316 102.285 93.8185C101.997 94.1054 101.607 94.2666 101.2 94.2666Z" fill="#68837E" />
    </g>
    <g filter="url(#filter8_d_2884_714)">
        <path d="M107.53 99.4307H68.3979C68.1963 99.4307 67.9968 99.3911 67.8106 99.3142C67.6244 99.2373 67.4552 99.1246 67.3127 98.9826C67.1702 98.8405 67.0572 98.6719 66.9801 98.4863C66.903 98.3007 66.8633 98.1018 66.8633 97.9009C66.8633 97.7 66.903 97.5011 66.9801 97.3155C67.0572 97.1299 67.1702 96.9612 67.3127 96.8192C67.4552 96.6771 67.6244 96.5644 67.8106 96.4875C67.9968 96.4107 68.1963 96.3711 68.3979 96.3711H107.53C107.731 96.3711 107.931 96.4107 108.117 96.4875C108.303 96.5644 108.472 96.6771 108.615 96.8192C108.757 96.9612 108.87 97.1299 108.948 97.3155C109.025 97.5011 109.064 97.7 109.064 97.9009C109.064 98.1018 109.025 98.3007 108.948 98.4863C108.87 98.6719 108.757 98.8405 108.615 98.9826C108.472 99.1246 108.303 99.2373 108.117 99.3142C107.931 99.3911 107.731 99.4307 107.53 99.4307H107.53Z" fill="#68837E" />
    </g>
    <g filter="url(#filter9_d_2884_714)">
        <path d="M54.7364 54.4506C57.732 54.4506 60.1603 52.0298 60.1603 49.0436C60.1603 46.0575 57.732 43.6367 54.7364 43.6367C51.7409 43.6367 49.3125 46.0575 49.3125 49.0436C49.3125 52.0298 51.7409 54.4506 54.7364 54.4506Z" fill="#FF783E" />
    </g>
    <g filter="url(#filter10_d_2884_714)">
        <path d="M54.2011 51.1044C54.079 51.1046 53.9603 51.0653 53.8626 50.9923L53.8566 50.9878L52.5819 50.0157C52.5227 49.9707 52.4731 49.9144 52.4357 49.8502C52.3984 49.786 52.3741 49.715 52.3643 49.6414C52.3545 49.5679 52.3593 49.4931 52.3786 49.4213C52.3978 49.3496 52.431 49.2824 52.4763 49.2235C52.5216 49.1646 52.5781 49.1152 52.6426 49.078C52.7071 49.0409 52.7783 49.0168 52.8521 49.0072C52.9259 48.9975 53.0009 49.0024 53.0729 49.0217C53.1448 49.041 53.2122 49.0742 53.2712 49.1194L54.0968 49.7506L56.0479 47.2132C56.0931 47.1544 56.1495 47.105 56.2139 47.0679C56.2783 47.0308 56.3494 47.0068 56.4231 46.997C56.4968 46.9873 56.5717 46.9922 56.6435 47.0114C56.7154 47.0305 56.7827 47.0636 56.8417 47.1087L56.8419 47.1088L56.8298 47.1256L56.8422 47.1088C56.9613 47.2 57.0392 47.3346 57.0588 47.483C57.0784 47.6314 57.0382 47.7815 56.947 47.9004L54.6521 50.8835C54.599 50.9523 54.5308 51.0079 54.4526 51.0461C54.3745 51.0843 54.2886 51.104 54.2016 51.1038L54.2011 51.1044Z" fill="white" />
    </g>
    <g filter="url(#filter11_d_2884_714)">
        <path d="M54.7364 77.5873C57.732 77.5873 60.1603 75.1665 60.1603 72.1804C60.1603 69.1942 57.732 66.7734 54.7364 66.7734C51.7409 66.7734 49.3125 69.1942 49.3125 72.1804C49.3125 75.1665 51.7409 77.5873 54.7364 77.5873Z" fill="#DAEBE8" />
    </g>
    <g filter="url(#filter12_d_2884_714)">
        <path d="M54.2004 74.2451C54.0783 74.2453 53.9596 74.2059 53.8619 74.1329L53.8559 74.1284L52.5812 73.1564C52.462 73.0652 52.3839 72.9306 52.3643 72.7822C52.3446 72.6337 52.3849 72.4835 52.4763 72.3646C52.5677 72.2458 52.7027 72.168 52.8517 72.1484C53.0006 72.1288 53.1513 72.1689 53.2705 72.2601L54.0961 72.8912L56.0472 70.3538C56.0924 70.295 56.1488 70.2456 56.2132 70.2086C56.2776 70.1715 56.3487 70.1474 56.4224 70.1377C56.4961 70.128 56.571 70.1328 56.6429 70.152C56.7147 70.1711 56.782 70.2042 56.841 70.2493L56.8412 70.2494L56.8291 70.2662L56.8415 70.2494C56.9606 70.3407 57.0385 70.4752 57.0581 70.6236C57.0777 70.772 57.0375 70.9221 56.9463 71.041L54.6514 74.0242C54.5983 74.0929 54.5301 74.1485 54.4519 74.1867C54.3738 74.2249 54.2879 74.2446 54.2009 74.2444L54.2004 74.2451Z" fill="white" />
    </g>
    <g filter="url(#filter13_d_2884_714)">
        <path d="M54.7364 100.728C57.732 100.728 60.1603 98.3072 60.1603 95.321C60.1603 92.3348 57.732 89.9141 54.7364 89.9141C51.7409 89.9141 49.3125 92.3348 49.3125 95.321C49.3125 98.3072 51.7409 100.728 54.7364 100.728Z" fill="#DAEBE8" />
    </g>
    <g filter="url(#filter14_d_2884_714)">
        <path d="M54.2011 97.3818C54.079 97.382 53.9603 97.3426 53.8626 97.2696L53.8566 97.2651L52.5819 96.2931C52.5227 96.248 52.4731 96.1917 52.4357 96.1275C52.3984 96.0633 52.3741 95.9924 52.3643 95.9188C52.3545 95.8452 52.3593 95.7704 52.3786 95.6987C52.3978 95.627 52.431 95.5597 52.4763 95.5008C52.5216 95.4419 52.5781 95.3925 52.6426 95.3554C52.7071 95.3183 52.7783 95.2942 52.8521 95.2845C52.9259 95.2748 53.0009 95.2798 53.0729 95.299C53.1448 95.3183 53.2122 95.3515 53.2712 95.3968L54.0968 96.0279L56.0479 93.4906C56.0931 93.4317 56.1495 93.3824 56.2139 93.3453C56.2783 93.3082 56.3494 93.2841 56.4231 93.2744C56.4968 93.2647 56.5717 93.2696 56.6435 93.2887C56.7154 93.3079 56.7827 93.3409 56.8417 93.386L56.8419 93.3862L56.8298 93.4029L56.8422 93.3862C56.9613 93.4774 57.0392 93.6119 57.0588 93.7603C57.0784 93.9087 57.0382 94.0588 56.947 94.1777L54.6521 97.1609C54.599 97.2296 54.5308 97.2852 54.4526 97.3234C54.3745 97.3616 54.2886 97.3813 54.2016 97.3811L54.2011 97.3818Z" fill="white" />
    </g>
    <g filter="url(#filter15_d_2884_714)">
        <path d="M130.999 131C130.693 131.159 130.381 131.31 130.065 131.453C129.776 131.583 129.484 131.705 129.186 131.819C129.077 131.86 128.967 131.901 128.856 131.943C127.982 132.259 127.084 132.506 126.171 132.681C125.719 132.769 125.261 132.839 124.797 132.889C124.414 132.933 124.027 132.964 123.636 132.982C123.358 132.996 123.079 133.002 122.799 133.002C121.688 133.002 120.58 132.899 119.49 132.693C119.205 132.641 118.927 132.58 118.648 132.514C117.302 132.192 115.998 131.712 114.765 131.085C114.654 131.029 114.543 130.97 114.433 130.913C114.269 130.827 114.109 130.736 113.949 130.642C114.026 130.535 114.109 130.431 114.194 130.329C115.118 129.187 116.273 128.253 117.583 127.586C118.894 126.919 120.33 126.536 121.8 126.459C123.269 126.383 124.738 126.617 126.11 127.144C127.483 127.672 128.729 128.482 129.767 129.522C130.127 129.882 130.461 130.267 130.766 130.675C130.847 130.781 130.924 130.89 130.999 131Z" fill="#FF783E" />
    </g>
    <g filter="url(#filter16_d_2884_714)">
        <path d="M123.193 122.352C127.981 122.352 131.863 118.482 131.863 113.709C131.863 108.936 127.981 105.066 123.193 105.066C118.405 105.066 114.523 108.936 114.523 113.709C114.523 118.482 118.405 122.352 123.193 122.352Z" fill="#2F2E41" />
    </g>
    <g filter="url(#filter17_d_2884_714)">
        <path d="M125.497 122.363C128.624 120.659 129.773 116.751 128.064 113.634C126.354 110.516 122.434 109.371 119.306 111.075C116.179 112.779 115.03 116.687 116.74 119.804C118.449 122.922 122.37 124.067 125.497 122.363Z" fill="#A0616A" />
    </g>
    <g filter="url(#filter18_d_2884_714)">
        <path d="M129.184 112.675C127.709 113.688 125.959 114.227 124.168 114.22C124.807 114.662 125.534 114.96 126.3 115.094C123.919 115.604 121.458 115.617 119.071 115.135C118.541 115.05 118.029 114.875 117.558 114.617C117.323 114.486 117.119 114.308 116.958 114.093C116.797 113.879 116.683 113.633 116.624 113.372C116.465 112.468 117.171 111.648 117.905 111.095C119.028 110.261 120.324 109.687 121.697 109.413C123.07 109.14 124.487 109.174 125.846 109.513C126.733 109.742 127.621 110.128 128.197 110.838C128.774 111.548 128.944 112.643 128.395 113.374L129.184 112.675Z" fill="#2F2E41" />
    </g>
    <g filter="url(#filter19_d_2884_714)">
        <path d="M124.097 97.6172C123.956 97.6066 123.813 97.598 123.67 97.5916C123.381 97.5767 123.09 97.5703 122.797 97.5703C119.883 97.5704 117.014 98.2848 114.442 99.6507C111.87 101.017 109.675 102.992 108.049 105.403C106.424 107.814 105.418 110.586 105.12 113.476C104.823 116.365 105.243 119.284 106.343 121.973C106.401 122.116 106.461 122.259 106.525 122.4C107.995 125.72 110.445 128.514 113.549 130.409L113.663 130.475C113.759 130.533 113.853 130.588 113.947 130.64C114.108 130.735 114.268 130.825 114.431 130.912C114.542 130.97 114.653 131.028 114.762 131.083C115.996 131.711 117.3 132.191 118.647 132.512C118.925 132.58 119.203 132.64 119.488 132.691C120.579 132.897 121.686 133 122.797 133C123.077 133 123.355 132.994 123.635 132.981C124.025 132.964 124.412 132.932 124.795 132.889C125.259 132.838 125.717 132.768 126.17 132.68C127.083 132.504 127.981 132.258 128.855 131.942C128.966 131.9 129.077 131.859 129.184 131.817C129.484 131.704 129.774 131.582 130.063 131.452C130.38 131.309 130.691 131.158 130.998 130.998C134.071 129.392 136.612 126.933 138.312 123.918C138.319 123.902 138.328 123.886 138.337 123.871C139.785 121.271 140.552 118.349 140.568 115.376C140.584 112.402 139.849 109.472 138.43 106.856C137.012 104.241 134.955 102.023 132.45 100.408C129.945 98.7936 127.072 97.8337 124.097 97.6172L124.097 97.6172ZM139.867 118.536C139.523 120.325 138.897 122.048 138.012 123.641C137.997 123.669 137.982 123.696 137.967 123.722C136.302 126.693 133.798 129.111 130.765 130.674C130.461 130.831 130.154 130.979 129.843 131.117C129.584 131.232 129.319 131.343 129.052 131.446C128.94 131.488 128.825 131.533 128.711 131.571C127.956 131.846 127.182 132.067 126.395 132.232C125.811 132.357 125.221 132.449 124.628 132.51C124.262 132.55 123.892 132.578 123.518 132.591C123.278 132.601 123.039 132.608 122.797 132.608C121.722 132.608 120.65 132.508 119.595 132.309C118.952 132.192 118.317 132.037 117.693 131.844C116.742 131.552 115.818 131.179 114.931 130.729C114.829 130.676 114.726 130.622 114.625 130.567C114.48 130.49 114.334 130.411 114.193 130.328C114.086 130.268 113.979 130.205 113.875 130.143C113.813 130.106 113.753 130.07 113.691 130.032C110.736 128.211 108.391 125.554 106.957 122.4C106.893 122.259 106.831 122.116 106.771 121.973C105.665 119.341 105.229 116.477 105.502 113.636C105.775 110.796 106.747 108.066 108.333 105.69C109.919 103.314 112.069 101.366 114.592 100.018C117.116 98.6703 119.934 97.965 122.797 97.9648C123.09 97.9648 123.381 97.9712 123.67 97.9883C123.813 97.9925 123.956 98.0032 124.097 98.0139C126.538 98.1983 128.913 98.8943 131.065 100.056C133.217 101.219 135.099 102.821 136.588 104.758C138.077 106.695 139.138 108.924 139.703 111.298C140.268 113.672 140.324 116.139 139.867 118.536L139.867 118.536Z" fill="#3F3D56" />
    </g>
    <g filter="url(#filter20_d_2884_714)">
        <path d="M118.802 105.188C118.709 104.21 117.507 103.608 116.567 103.904C115.628 104.199 115.011 105.142 114.824 106.107C114.734 106.513 114.726 106.933 114.799 107.342C114.873 107.752 115.026 108.143 115.252 108.493C115.727 109.174 116.6 109.599 117.414 109.426C118.343 109.229 118.987 108.324 119.171 107.395C119.356 106.466 119.173 105.508 118.99 104.578L118.802 105.188Z" fill="#2F2E41" />
    </g>
    <g filter="url(#filter21_d_2884_714)">
        <path d="M132.025 106.583C131.931 105.605 130.73 105.003 129.79 105.298C128.85 105.593 128.233 106.537 128.047 107.501C127.957 107.907 127.949 108.327 128.022 108.737C128.095 109.146 128.249 109.537 128.474 109.887C128.949 110.569 129.822 110.994 130.636 110.821C131.566 110.624 132.21 109.719 132.394 108.79C132.578 107.86 132.395 106.902 132.213 105.972L132.025 106.583Z" fill="#2F2E41" />
    </g>
    <g filter="url(#filter22_d_2884_714)">
        <path d="M88.8737 32.4666C86.123 34.2225 82.936 35.18 79.6701 35.2317C76.4041 35.2835 73.1882 34.4276 70.3828 32.7598C70.8763 31.8441 71.5017 31.0052 72.2389 30.27C73.3764 29.1306 74.7608 28.2663 76.2857 27.7436C77.8105 27.2208 79.4353 27.0534 81.0352 27.2543C82.6351 27.4552 84.1675 28.0191 85.5147 28.9025C86.8619 29.7859 87.988 30.9654 88.8065 32.3504C88.8282 32.3878 88.852 32.4272 88.8737 32.4666Z" fill="#1B403A" />
    </g>
    <g filter="url(#filter23_d_2884_714)">
        <path d="M78.8563 23.0526C83.6764 23.0526 87.5838 19.1574 87.5838 14.3525C87.5838 9.54752 83.6764 5.65234 78.8563 5.65234C74.0363 5.65234 70.1289 9.54752 70.1289 14.3525C70.1289 19.1574 74.0363 23.0526 78.8563 23.0526Z" fill="#2F2E41" />
    </g>
    <g filter="url(#filter24_d_2884_714)">
        <path d="M84.4953 20.4871C86.2161 17.3492 85.0592 13.4148 81.9114 11.6995C78.7636 9.9841 74.8169 11.1373 73.0961 14.2753C71.3754 17.4132 72.5323 21.3476 75.6801 23.063C78.8279 24.7783 82.7746 23.6251 84.4953 20.4871Z" fill="#FFB8B8" />
    </g>
    <g filter="url(#filter25_d_2884_714)">
        <path d="M72.8281 13.3112C74.3125 14.3311 76.0743 14.8738 77.877 14.8667C77.2339 15.3111 76.5019 15.6114 75.7312 15.7467C78.1281 16.2592 80.6053 16.2731 83.0078 15.7875C83.5418 15.7021 84.0571 15.5257 84.531 15.2659C84.7672 15.1344 84.973 14.9549 85.135 14.7389C85.297 14.5229 85.4115 14.2754 85.4713 14.0124C85.6309 13.1032 84.9203 12.2772 84.1817 11.7205C83.051 10.8812 81.7472 10.303 80.3648 10.0276C78.9824 9.7522 77.5558 9.78658 76.1883 10.1282C75.2954 10.3583 74.4009 10.7471 73.8209 11.4619C73.241 12.1767 73.0692 13.2788 73.6217 14.0149L72.8281 13.3112Z" fill="#2F2E41" />
    </g>
    <g filter="url(#filter26_d_2884_714)">
        <path d="M79.3927 0C74.6814 0.00522198 70.1644 1.8731 66.8328 5.19389C63.5012 8.51468 61.6269 13.0172 61.6211 17.7138C61.6218 19.1465 61.7985 20.5738 62.1473 21.9637C62.1837 22.1065 62.22 22.2494 62.2585 22.3902C63.2836 26.1367 65.5164 29.443 68.6128 31.7994C71.7092 34.1559 75.4971 35.4315 79.3927 35.4298C83.289 35.4297 87.0774 34.1535 90.1751 31.7975C93.2727 29.4415 95.5082 26.1363 96.5375 22.3902C96.576 22.2473 96.6124 22.1065 96.6465 21.9637C97.291 19.3542 97.3318 16.6328 96.7659 14.0053C96.2001 11.3778 95.0423 8.91292 93.3802 6.7971C91.7181 4.68128 89.5951 2.96988 87.1719 1.79233C84.7486 0.614771 82.0885 0.00188004 79.3927 0ZM96.2401 21.9637C96.2059 22.1065 96.1674 22.2494 96.1268 22.3902C95.4051 24.9525 94.101 27.3147 92.3158 29.2936C90.5306 31.2725 88.3121 32.8149 85.8324 33.8012C83.3527 34.7876 80.6785 35.1913 78.017 34.9811C75.3556 34.771 72.7785 33.9526 70.4855 32.5894C66.6746 30.3033 63.8798 26.6565 62.6692 22.3902C62.6286 22.2473 62.5901 22.1065 62.5537 21.9637C62.1972 20.575 62.0169 19.1472 62.0169 17.7138C62.0196 15.2602 62.5453 12.8351 63.5591 10.5992C64.5729 8.36336 66.0517 6.36774 67.8975 4.74455C69.7433 3.12135 71.914 1.90763 74.2658 1.18377C76.6176 0.459905 79.0969 0.242427 81.5394 0.545737C83.9819 0.849046 86.3319 1.66622 88.4336 2.94313C90.5354 4.22005 92.3411 5.92756 93.731 7.95257C95.1209 9.97757 96.0634 12.2739 96.496 14.6893C96.9285 17.1048 96.8413 19.5843 96.2401 21.9637H96.2401Z" fill="#3F3D56" />
    </g>
    <g filter="url(#filter27_d_2884_714)">
        <path d="M31.2559 93.908C28.5054 95.664 25.3186 96.6217 22.0527 96.6736C18.7869 96.7256 15.571 95.8699 12.7656 94.2023C12.7955 94.1447 12.8276 94.0871 12.8618 94.0317C13.7617 92.4147 15.0731 91.0626 16.664 90.1116C18.2549 89.1606 20.0691 88.6443 21.9239 88.6146C23.7786 88.585 25.6085 89.0431 27.2291 89.9428C28.8498 90.8425 30.204 92.1521 31.1553 93.7396C31.1682 93.7566 31.1788 93.7758 31.1896 93.7929C31.211 93.8291 31.2345 93.8696 31.2559 93.908Z" fill="#FF783E" />
    </g>
    <g filter="url(#filter28_d_2884_714)">
        <path d="M29.9627 75.794C29.9627 77.5148 29.4509 79.1968 28.4919 80.6275C27.5329 82.0583 26.1698 83.1734 24.5751 83.8319C22.9804 84.4904 21.2256 84.6627 19.5326 84.327C17.8396 83.9912 16.2846 83.1626 15.064 81.9459C13.8435 80.7292 13.0123 79.1789 12.6755 77.4913C12.3388 75.8036 12.5116 74.0543 13.1722 72.4646C13.8327 70.8748 14.9513 69.5161 16.3866 68.5601C17.8218 67.6041 19.5091 67.0938 21.2353 67.0938C22.3829 67.0884 23.5203 67.3097 24.5816 67.745C25.643 68.1803 26.6072 68.8209 27.4188 69.6299C28.2303 70.4389 28.8729 71.4001 29.3096 72.4582C29.7462 73.5162 29.9682 74.65 29.9627 75.794Z" fill="#2F2E41" />
    </g>
    <g filter="url(#filter29_d_2884_714)">
        <path d="M28.0748 81.1995C27.9749 81.45 27.8599 81.6942 27.7304 81.9309C26.904 83.4377 25.5111 84.5556 23.8579 85.0386C22.2048 85.5217 20.4269 85.3304 18.9152 84.5068C18.1661 84.0993 17.5049 83.5486 16.9694 82.8863C16.4339 82.2239 16.0345 81.4628 15.7942 80.6465C15.5538 79.8303 15.4772 78.9748 15.5687 78.1289C15.6601 77.2831 15.9179 76.4635 16.3272 75.7171C16.7365 74.9706 17.2894 74.3118 17.9542 73.7785C18.6191 73.2451 19.3828 72.8475 20.2018 72.6085C21.0208 72.3695 21.8791 72.2937 22.7275 72.3854C23.5759 72.4772 24.3979 72.7347 25.1464 73.1433C26.535 73.9002 27.5987 75.1364 28.1379 76.6197C28.6771 78.103 28.6547 79.7315 28.0748 81.1995Z" fill="#A0616A" />
    </g>
    <g filter="url(#filter30_d_2884_714)">
        <path d="M34.7093 67.0295C34.5724 66.8803 34.4291 66.7331 34.2815 66.5902C31.9046 64.242 28.9106 62.611 25.6444 61.8852C22.3782 61.1593 18.9727 61.3681 15.8203 62.4874C12.6679 63.6068 9.89692 65.5912 7.82657 68.2121C5.75623 70.8329 4.47077 73.9835 4.11832 77.3009C3.76587 80.6183 4.36076 83.9674 5.83445 86.9624C7.30815 89.9574 9.60068 92.4765 12.4479 94.2293C15.2951 95.9821 18.5812 96.8974 21.9275 96.8697C25.2737 96.8419 28.5441 95.8723 31.3617 94.0725C32.4139 93.3994 33.3925 92.6183 34.2815 91.7418C34.427 91.599 34.5703 91.454 34.7093 91.3047C37.813 88.0207 39.5415 83.679 39.5415 79.1671C39.5415 74.6552 37.813 70.3135 34.7093 67.0295V67.0295ZM34.2815 91.181C33.3421 92.1513 32.2926 93.0094 31.1541 93.7378C31.152 93.7399 31.1498 93.7399 31.1478 93.742C28.4279 95.4779 25.2768 96.4245 22.0476 96.4757C18.8185 96.5269 15.6388 95.6808 12.8649 94.032C12.8628 94.032 12.8628 94.0299 12.8606 94.0299C10.7331 92.7652 8.90152 91.0616 7.48863 89.0334C6.07575 87.0052 5.11425 84.6993 4.66862 82.2703C4.22299 79.8413 4.30354 77.3454 4.90487 74.95C5.50619 72.5546 6.61439 70.315 8.15513 68.3816C9.69587 66.4481 11.6335 64.8654 13.8382 63.7397C16.0428 62.6139 18.4634 61.9711 20.9377 61.8543C23.412 61.7376 25.8827 62.1496 28.1841 63.0628C30.4855 63.976 32.5645 65.3692 34.2815 67.1489C34.4291 67.2982 34.5703 67.4517 34.7093 67.6074C37.5659 70.7835 39.1458 74.8992 39.1458 79.165C39.1458 83.4308 37.5659 87.5464 34.7093 90.7226C34.5724 90.8782 34.4291 91.0318 34.2815 91.181Z" fill="#3F3D56" />
    </g>
    <g filter="url(#filter31_d_2884_714)">
        <path d="M28.3119 68.5683C27.8819 67.8408 27.2587 67.2459 26.5109 66.8493C25.7632 66.4527 24.92 66.2698 24.0745 66.3209C23.1871 66.3871 22.3428 66.7131 21.5137 67.0355L17.2987 68.6745C16.208 69.0986 15.0135 69.6181 14.5402 70.6856C14.101 71.6763 14.4287 72.8205 14.7604 73.852L16.3374 78.755C16.5535 77.6536 16.773 76.5413 17.2311 75.5162C17.6892 74.491 18.4137 73.5458 19.4153 73.0335C20.5102 72.4736 21.8006 72.4852 23.0297 72.5442C24.7704 72.6277 26.663 72.8485 27.8998 74.0724C28.5563 74.7675 29.0015 75.6341 29.1834 76.5714C29.3624 77.5038 29.4526 78.4509 29.4526 79.4001C30.1664 78.177 30.7677 76.8919 31.2491 75.5607C31.6451 74.5694 31.8707 73.5188 31.9166 72.4528C31.926 71.3882 31.6237 70.29 30.9116 69.4966C30.1995 68.7033 29.0392 68.2749 28.0188 68.589" fill="#2F2E41" />
    </g>
    <g filter="url(#filter32_d_2884_714)">
        <path d="M15.0176 45.1741L14.5898 45.1691C14.5949 44.7426 14.6073 44.3098 14.6265 43.8828L15.0539 43.902C15.0349 44.3243 15.0227 44.7523 15.0176 45.1741Z" fill="#DAEBE8" />
    </g>
    <g filter="url(#filter33_d_2884_714)">
        <path d="M15.2417 41.466L14.8164 41.4197C14.9057 40.6046 15.0227 39.7824 15.1641 38.9762L15.5856 39.0497C15.4457 39.8469 15.33 40.6598 15.2417 41.466ZM16.085 36.6605L15.6692 36.5601C15.8628 35.7637 16.0851 34.9634 16.33 34.1813L16.7384 34.3084C16.4963 35.0817 16.2764 35.8731 16.085 36.6605ZM17.5444 32.0008L17.1451 31.8476C17.4406 31.0825 17.7652 30.3169 18.1099 29.572L18.4984 29.7507C18.1575 30.4872 17.8365 31.2443 17.5444 32.0008ZM19.5962 27.5669L19.2201 27.3637C19.6118 26.6436 20.0325 25.9263 20.4706 25.2317L20.8328 25.4587C20.3996 26.1456 19.9835 26.8549 19.5962 27.567L19.5962 27.5669ZM22.2025 23.4343L21.8556 23.1846C22.337 22.5202 22.8463 21.8627 23.3693 21.2304L23.6994 21.5017C23.1821 22.1271 22.6785 22.7772 22.2025 23.4343V23.4343ZM25.317 19.6688L25.005 19.377C25.5671 18.7798 26.1562 18.1926 26.756 17.6317L27.0487 17.9429C26.4555 18.4975 25.8729 19.0782 25.317 19.6688V19.6688ZM28.8872 16.3308L28.615 16.0018C29.2492 15.4806 29.9084 14.9732 30.5745 14.4938L30.825 14.8395C30.1663 15.3137 29.5143 15.8155 28.8872 16.3309V16.3308ZM32.8543 13.4753L32.6266 13.1142C33.3224 12.6782 34.0412 12.2593 34.763 11.8692L34.9669 12.244C34.2532 12.6299 33.5424 13.0441 32.8543 13.4753V13.4753ZM37.1541 11.1512L36.9749 10.7639C37.7204 10.4211 38.4869 10.098 39.2532 9.80361L39.407 10.2016C38.6493 10.4926 37.8913 10.8121 37.1541 11.1513V11.1512ZM41.716 9.39931L41.5884 8.9922C42.3725 8.74782 43.1753 8.52584 43.9743 8.33249L44.0752 8.74689C43.2851 8.93817 42.4914 9.15765 41.716 9.39932V9.39931ZM46.4717 8.24805L46.3978 7.82802C47.2064 7.68673 48.031 7.5698 48.8489 7.48047L48.8955 7.90445C48.0867 7.99275 47.2712 8.10843 46.4717 8.24805V8.24805Z" fill="#DAEBE8" />
    </g>
    <g filter="url(#filter34_d_2884_714)">
        <path d="M51.3552 7.71652L51.3359 7.29046C51.7645 7.2713 52.1986 7.25901 52.6262 7.25391L52.6314 7.68039C52.2083 7.68538 51.779 7.69757 51.3552 7.71652Z" fill="#DAEBE8" />
    </g>
    <g filter="url(#filter35_d_2884_714)">
        <path d="M16.5994 43.8009L16.2937 43.5022L14.819 45.0057L13.4222 43.4297L13.1016 43.7127L14.8032 45.6318L16.5994 43.8009Z" fill="#DAEBE8" />
    </g>
    <g filter="url(#filter36_d_2884_714)">
        <path d="M51.2552 9.25252L50.9555 8.9478L52.4638 7.47773L50.8828 6.08527L51.1667 5.76562L53.0919 7.46195L51.2552 9.25252Z" fill="#DAEBE8" />
    </g>
    <g filter="url(#filter37_d_2884_714)">
        <path d="M115.259 11.9325C114.883 11.7349 114.503 11.5408 114.121 11.3501L114.313 10.9688C114.697 11.1607 115.079 11.3561 115.458 11.555L115.259 11.9325Z" fill="#E6E6E6" />
    </g>
    <g filter="url(#filter38_d_2884_714)">
        <path d="M144.331 90.6434L143.935 90.4817C144.257 89.6988 144.566 88.9001 144.855 88.1077L145.257 88.2532C144.966 89.051 144.655 89.8552 144.331 90.6434ZM146.084 85.8272L145.677 85.6982C145.933 84.8929 146.176 84.0716 146.399 83.2571L146.812 83.3694C146.587 84.1895 146.343 85.0164 146.084 85.8272ZM147.437 80.8837L147.02 80.7884C147.21 79.9643 147.384 79.1258 147.539 78.2962L147.96 78.3742C147.804 79.2095 147.628 80.0538 147.437 80.8837V80.8837ZM148.377 75.8454L147.954 75.7847C148.074 74.9485 148.179 74.0984 148.265 73.2582L148.69 73.3014C148.604 74.1474 148.499 75.0034 148.377 75.8454V75.8454ZM148.898 70.7466L148.471 70.7209C148.522 69.8781 148.556 69.0223 148.572 68.1773L149 68.1855C148.983 69.0362 148.949 69.8979 148.898 70.7466ZM148.996 65.6223L148.568 65.6317C148.56 65.2607 148.548 64.8901 148.533 64.5198C148.514 64.045 148.489 63.5632 148.459 63.088L148.886 63.0612C148.917 63.5396 148.942 64.0246 148.961 64.5028C148.976 64.8755 148.987 65.2487 148.996 65.6223L148.996 65.6223ZM148.246 60.5524C148.158 59.7121 148.052 58.8625 147.929 58.0272L148.353 57.9655C148.476 58.8066 148.583 59.662 148.672 60.5081L148.246 60.5524ZM147.509 55.5166C147.353 54.687 147.177 53.8488 146.987 53.0251L147.403 52.9293C147.595 53.7586 147.772 54.6026 147.93 55.4379L147.509 55.5166ZM146.363 50.5566C146.139 49.7412 145.895 48.9199 145.638 48.1153L146.046 47.986C146.304 48.7961 146.55 49.6231 146.775 50.4441L146.363 50.5566ZM144.815 45.7053C144.525 44.911 144.216 44.1119 143.894 43.3302L144.29 43.1683C144.613 43.9555 144.925 44.76 145.217 45.5596L144.815 45.7053ZM142.876 40.9943C142.523 40.226 142.149 39.4546 141.764 38.7015L142.146 38.5081C142.533 39.2663 142.909 40.0429 143.265 40.8165L142.876 40.9943ZM140.559 36.4557C140.144 35.7188 139.708 34.9804 139.263 34.2608L139.627 34.037C140.075 34.7615 140.515 35.505 140.932 36.247L140.559 36.4557ZM137.878 32.1204C137.403 31.4194 136.908 30.7188 136.406 30.0382L136.75 29.7854C137.256 30.4706 137.755 31.1761 138.233 31.882L137.878 32.1204ZM134.848 28.0177C134.318 27.3574 133.766 26.6997 133.209 26.0628L133.532 25.7825C134.092 26.4238 134.648 27.0861 135.182 27.7509L134.848 28.0177ZM131.49 24.1766C130.906 23.562 130.302 22.9517 129.694 22.3625L129.992 22.0568C130.604 22.65 131.213 23.2646 131.801 23.8833L131.49 24.1766ZM127.824 20.6236C127.192 20.0593 126.539 19.5005 125.884 18.9629L126.156 18.6336C126.815 19.175 127.473 19.7376 128.11 20.3059L127.824 20.6236ZM123.876 17.3833C123.201 16.8746 122.505 16.3721 121.808 15.8898L122.051 15.5393C122.754 16.025 123.454 16.531 124.134 17.0431L123.876 17.3833ZM119.68 14.4822C118.966 14.0304 118.231 13.5863 117.496 13.1621L117.71 12.793C118.45 13.2201 119.19 13.6673 119.909 14.1221L119.68 14.4822Z" fill="#DAEBE8" />
    </g>
    <g filter="url(#filter39_d_2884_714)">
        <path d="M142.76 94.1596L142.375 93.9743C142.561 93.5906 142.742 93.206 142.919 92.8203L143.308 92.9978C143.13 93.3861 142.947 93.7734 142.76 94.1596Z" fill="#DAEBE8" />
    </g>
    <g filter="url(#filter40_d_2884_714)">
        <path d="M114.657 13.3676L115.061 13.2258L114.357 11.2433L116.393 10.6889L116.279 10.2773L113.801 10.9529L114.657 13.3676Z" fill="#DAEBE8" />
    </g>
    <g filter="url(#filter41_d_2884_714)">
        <path d="M141.559 92.0515L141.965 91.918L142.623 93.9158L144.574 93.1157L144.737 93.5107L142.36 94.4847L141.559 92.0515Z" fill="#DAEBE8" />
    </g>
    <defs>
        <filter id="filter0_d_2884_714" x="30.2812" y="21.9648" width="97.8164" height="108.438" filterUnits="userSpaceOnUse" color-interpolation-filters="sRGB">
            <feFlood flood-opacity="0" result="BackgroundImageFix" />
            <feColorMatrix in="SourceAlpha" type="matrix" values="0 0 0 0 0 0 0 0 0 0 0 0 0 0 0 0 0 0 127 0" result="hardAlpha" />
            <feOffset dy="4" />
            <feGaussianBlur stdDeviation="2" />
            <feComposite in2="hardAlpha" operator="out" />
            <feColorMatrix type="matrix" values="0 0 0 0 0 0 0 0 0 0 0 0 0 0 0 0 0 0 0.25 0" />
            <feBlend mode="normal" in2="BackgroundImageFix" result="effect1_dropShadow_2884_714" />
            <feBlend mode="normal" in="SourceGraphic" in2="effect1_dropShadow_2884_714" result="shape" />
        </filter>
        <filter id="filter1_d_2884_714" x="105.113" y="22.3828" width="22.4102" height="19.4609" filterUnits="userSpaceOnUse" color-interpolation-filters="sRGB">
            <feFlood flood-opacity="0" result="BackgroundImageFix" />
            <feColorMatrix in="SourceAlpha" type="matrix" values="0 0 0 0 0 0 0 0 0 0 0 0 0 0 0 0 0 0 127 0" result="hardAlpha" />
            <feOffset dy="4" />
            <feGaussianBlur stdDeviation="2" />
            <feComposite in2="hardAlpha" operator="out" />
            <feColorMatrix type="matrix" values="0 0 0 0 0 0 0 0 0 0 0 0 0 0 0 0 0 0 0.25 0" />
            <feBlend mode="normal" in2="BackgroundImageFix" result="effect1_dropShadow_2884_714" />
            <feBlend mode="normal" in="SourceGraphic" in2="effect1_dropShadow_2884_714" result="shape" />
        </filter>
        <filter id="filter2_d_2884_714" x="104.898" y="22.168" width="22.8398" height="19.8867" filterUnits="userSpaceOnUse" color-interpolation-filters="sRGB">
            <feFlood flood-opacity="0" result="BackgroundImageFix" />
            <feColorMatrix in="SourceAlpha" type="matrix" values="0 0 0 0 0 0 0 0 0 0 0 0 0 0 0 0 0 0 127 0" result="hardAlpha" />
            <feOffset dy="4" />
            <feGaussianBlur stdDeviation="2" />
            <feComposite in2="hardAlpha" operator="out" />
            <feColorMatrix type="matrix" values="0 0 0 0 0 0 0 0 0 0 0 0 0 0 0 0 0 0 0.25 0" />
            <feBlend mode="normal" in2="BackgroundImageFix" result="effect1_dropShadow_2884_714" />
            <feBlend mode="normal" in="SourceGraphic" in2="effect1_dropShadow_2884_714" result="shape" />
        </filter>
        <filter id="filter3_d_2884_714" x="62.8633" y="44.9336" width="43.8711" height="11.0586" filterUnits="userSpaceOnUse" color-interpolation-filters="sRGB">
            <feFlood flood-opacity="0" result="BackgroundImageFix" />
            <feColorMatrix in="SourceAlpha" type="matrix" values="0 0 0 0 0 0 0 0 0 0 0 0 0 0 0 0 0 0 127 0" result="hardAlpha" />
            <feOffset dy="4" />
            <feGaussianBlur stdDeviation="2" />
            <feComposite in2="hardAlpha" operator="out" />
            <feColorMatrix type="matrix" values="0 0 0 0 0 0 0 0 0 0 0 0 0 0 0 0 0 0 0.25 0" />
            <feBlend mode="normal" in2="BackgroundImageFix" result="effect1_dropShadow_2884_714" />
            <feBlend mode="normal" in="SourceGraphic" in2="effect1_dropShadow_2884_714" result="shape" />
        </filter>
        <filter id="filter4_d_2884_714" x="62.8633" y="50.0938" width="50.1992" height="11.0586" filterUnits="userSpaceOnUse" color-interpolation-filters="sRGB">
            <feFlood flood-opacity="0" result="BackgroundImageFix" />
            <feColorMatrix in="SourceAlpha" type="matrix" values="0 0 0 0 0 0 0 0 0 0 0 0 0 0 0 0 0 0 127 0" result="hardAlpha" />
            <feOffset dy="4" />
            <feGaussianBlur stdDeviation="2" />
            <feComposite in2="hardAlpha" operator="out" />
            <feColorMatrix type="matrix" values="0 0 0 0 0 0 0 0 0 0 0 0 0 0 0 0 0 0 0.25 0" />
            <feBlend mode="normal" in2="BackgroundImageFix" result="effect1_dropShadow_2884_714" />
            <feBlend mode="normal" in="SourceGraphic" in2="effect1_dropShadow_2884_714" result="shape" />
        </filter>
        <filter id="filter5_d_2884_714" x="62.8633" y="68.0703" width="43.8711" height="11.0586" filterUnits="userSpaceOnUse" color-interpolation-filters="sRGB">
            <feFlood flood-opacity="0" result="BackgroundImageFix" />
            <feColorMatrix in="SourceAlpha" type="matrix" values="0 0 0 0 0 0 0 0 0 0 0 0 0 0 0 0 0 0 127 0" result="hardAlpha" />
            <feOffset dy="4" />
            <feGaussianBlur stdDeviation="2" />
            <feComposite in2="hardAlpha" operator="out" />
            <feColorMatrix type="matrix" values="0 0 0 0 0 0 0 0 0 0 0 0 0 0 0 0 0 0 0.25 0" />
            <feBlend mode="normal" in2="BackgroundImageFix" result="effect1_dropShadow_2884_714" />
            <feBlend mode="normal" in="SourceGraphic" in2="effect1_dropShadow_2884_714" result="shape" />
        </filter>
        <filter id="filter6_d_2884_714" x="62.8633" y="73.2344" width="50.1992" height="11.0586" filterUnits="userSpaceOnUse" color-interpolation-filters="sRGB">
            <feFlood flood-opacity="0" result="BackgroundImageFix" />
            <feColorMatrix in="SourceAlpha" type="matrix" values="0 0 0 0 0 0 0 0 0 0 0 0 0 0 0 0 0 0 127 0" result="hardAlpha" />
            <feOffset dy="4" />
            <feGaussianBlur stdDeviation="2" />
            <feComposite in2="hardAlpha" operator="out" />
            <feColorMatrix type="matrix" values="0 0 0 0 0 0 0 0 0 0 0 0 0 0 0 0 0 0 0.25 0" />
            <feBlend mode="normal" in2="BackgroundImageFix" result="effect1_dropShadow_2884_714" />
            <feBlend mode="normal" in="SourceGraphic" in2="effect1_dropShadow_2884_714" result="shape" />
        </filter>
        <filter id="filter7_d_2884_714" x="62.8633" y="91.207" width="43.8711" height="11.0586" filterUnits="userSpaceOnUse" color-interpolation-filters="sRGB">
            <feFlood flood-opacity="0" result="BackgroundImageFix" />
            <feColorMatrix in="SourceAlpha" type="matrix" values="0 0 0 0 0 0 0 0 0 0 0 0 0 0 0 0 0 0 127 0" result="hardAlpha" />
            <feOffset dy="4" />
            <feGaussianBlur stdDeviation="2" />
            <feComposite in2="hardAlpha" operator="out" />
            <feColorMatrix type="matrix" values="0 0 0 0 0 0 0 0 0 0 0 0 0 0 0 0 0 0 0.25 0" />
            <feBlend mode="normal" in2="BackgroundImageFix" result="effect1_dropShadow_2884_714" />
            <feBlend mode="normal" in="SourceGraphic" in2="effect1_dropShadow_2884_714" result="shape" />
        </filter>
        <filter id="filter8_d_2884_714" x="62.8633" y="96.3711" width="50.1992" height="11.0586" filterUnits="userSpaceOnUse" color-interpolation-filters="sRGB">
            <feFlood flood-opacity="0" result="BackgroundImageFix" />
            <feColorMatrix in="SourceAlpha" type="matrix" values="0 0 0 0 0 0 0 0 0 0 0 0 0 0 0 0 0 0 127 0" result="hardAlpha" />
            <feOffset dy="4" />
            <feGaussianBlur stdDeviation="2" />
            <feComposite in2="hardAlpha" operator="out" />
            <feColorMatrix type="matrix" values="0 0 0 0 0 0 0 0 0 0 0 0 0 0 0 0 0 0 0.25 0" />
            <feBlend mode="normal" in2="BackgroundImageFix" result="effect1_dropShadow_2884_714" />
            <feBlend mode="normal" in="SourceGraphic" in2="effect1_dropShadow_2884_714" result="shape" />
        </filter>
        <filter id="filter9_d_2884_714" x="45.3125" y="43.6367" width="18.8477" height="18.8125" filterUnits="userSpaceOnUse" color-interpolation-filters="sRGB">
            <feFlood flood-opacity="0" result="BackgroundImageFix" />
            <feColorMatrix in="SourceAlpha" type="matrix" values="0 0 0 0 0 0 0 0 0 0 0 0 0 0 0 0 0 0 127 0" result="hardAlpha" />
            <feOffset dy="4" />
            <feGaussianBlur stdDeviation="2" />
            <feComposite in2="hardAlpha" operator="out" />
            <feColorMatrix type="matrix" values="0 0 0 0 0 0 0 0 0 0 0 0 0 0 0 0 0 0 0.25 0" />
            <feBlend mode="normal" in2="BackgroundImageFix" result="effect1_dropShadow_2884_714" />
            <feBlend mode="normal" in="SourceGraphic" in2="effect1_dropShadow_2884_714" result="shape" />
        </filter>
        <filter id="filter10_d_2884_714" x="48.3594" y="46.9922" width="12.7031" height="12.1133" filterUnits="userSpaceOnUse" color-interpolation-filters="sRGB">
            <feFlood flood-opacity="0" result="BackgroundImageFix" />
            <feColorMatrix in="SourceAlpha" type="matrix" values="0 0 0 0 0 0 0 0 0 0 0 0 0 0 0 0 0 0 127 0" result="hardAlpha" />
            <feOffset dy="4" />
            <feGaussianBlur stdDeviation="2" />
            <feComposite in2="hardAlpha" operator="out" />
            <feColorMatrix type="matrix" values="0 0 0 0 0 0 0 0 0 0 0 0 0 0 0 0 0 0 0.25 0" />
            <feBlend mode="normal" in2="BackgroundImageFix" result="effect1_dropShadow_2884_714" />
            <feBlend mode="normal" in="SourceGraphic" in2="effect1_dropShadow_2884_714" result="shape" />
        </filter>
        <filter id="filter11_d_2884_714" x="45.3125" y="66.7734" width="18.8477" height="18.8125" filterUnits="userSpaceOnUse" color-interpolation-filters="sRGB">
            <feFlood flood-opacity="0" result="BackgroundImageFix" />
            <feColorMatrix in="SourceAlpha" type="matrix" values="0 0 0 0 0 0 0 0 0 0 0 0 0 0 0 0 0 0 127 0" result="hardAlpha" />
            <feOffset dy="4" />
            <feGaussianBlur stdDeviation="2" />
            <feComposite in2="hardAlpha" operator="out" />
            <feColorMatrix type="matrix" values="0 0 0 0 0 0 0 0 0 0 0 0 0 0 0 0 0 0 0.25 0" />
            <feBlend mode="normal" in2="BackgroundImageFix" result="effect1_dropShadow_2884_714" />
            <feBlend mode="normal" in="SourceGraphic" in2="effect1_dropShadow_2884_714" result="shape" />
        </filter>
        <filter id="filter12_d_2884_714" x="48.3594" y="70.1328" width="12.7031" height="12.1133" filterUnits="userSpaceOnUse" color-interpolation-filters="sRGB">
            <feFlood flood-opacity="0" result="BackgroundImageFix" />
            <feColorMatrix in="SourceAlpha" type="matrix" values="0 0 0 0 0 0 0 0 0 0 0 0 0 0 0 0 0 0 127 0" result="hardAlpha" />
            <feOffset dy="4" />
            <feGaussianBlur stdDeviation="2" />
            <feComposite in2="hardAlpha" operator="out" />
            <feColorMatrix type="matrix" values="0 0 0 0 0 0 0 0 0 0 0 0 0 0 0 0 0 0 0.25 0" />
            <feBlend mode="normal" in2="BackgroundImageFix" result="effect1_dropShadow_2884_714" />
            <feBlend mode="normal" in="SourceGraphic" in2="effect1_dropShadow_2884_714" result="shape" />
        </filter>
        <filter id="filter13_d_2884_714" x="45.3125" y="89.9141" width="18.8477" height="18.8125" filterUnits="userSpaceOnUse" color-interpolation-filters="sRGB">
            <feFlood flood-opacity="0" result="BackgroundImageFix" />
            <feColorMatrix in="SourceAlpha" type="matrix" values="0 0 0 0 0 0 0 0 0 0 0 0 0 0 0 0 0 0 127 0" result="hardAlpha" />
            <feOffset dy="4" />
            <feGaussianBlur stdDeviation="2" />
            <feComposite in2="hardAlpha" operator="out" />
            <feColorMatrix type="matrix" values="0 0 0 0 0 0 0 0 0 0 0 0 0 0 0 0 0 0 0.25 0" />
            <feBlend mode="normal" in2="BackgroundImageFix" result="effect1_dropShadow_2884_714" />
            <feBlend mode="normal" in="SourceGraphic" in2="effect1_dropShadow_2884_714" result="shape" />
        </filter>
        <filter id="filter14_d_2884_714" x="48.3594" y="93.2695" width="12.7031" height="12.1133" filterUnits="userSpaceOnUse" color-interpolation-filters="sRGB">
            <feFlood flood-opacity="0" result="BackgroundImageFix" />
            <feColorMatrix in="SourceAlpha" type="matrix" values="0 0 0 0 0 0 0 0 0 0 0 0 0 0 0 0 0 0 127 0" result="hardAlpha" />
            <feOffset dy="4" />
            <feGaussianBlur stdDeviation="2" />
            <feComposite in2="hardAlpha" operator="out" />
            <feColorMatrix type="matrix" values="0 0 0 0 0 0 0 0 0 0 0 0 0 0 0 0 0 0 0.25 0" />
            <feBlend mode="normal" in2="BackgroundImageFix" result="effect1_dropShadow_2884_714" />
            <feBlend mode="normal" in="SourceGraphic" in2="effect1_dropShadow_2884_714" result="shape" />
        </filter>
        <filter id="filter15_d_2884_714" x="109.949" y="126.445" width="25.0508" height="14.5547" filterUnits="userSpaceOnUse" color-interpolation-filters="sRGB">
            <feFlood flood-opacity="0" result="BackgroundImageFix" />
            <feColorMatrix in="SourceAlpha" type="matrix" values="0 0 0 0 0 0 0 0 0 0 0 0 0 0 0 0 0 0 127 0" result="hardAlpha" />
            <feOffset dy="4" />
            <feGaussianBlur stdDeviation="2" />
            <feComposite in2="hardAlpha" operator="out" />
            <feColorMatrix type="matrix" values="0 0 0 0 0 0 0 0 0 0 0 0 0 0 0 0 0 0 0.25 0" />
            <feBlend mode="normal" in2="BackgroundImageFix" result="effect1_dropShadow_2884_714" />
            <feBlend mode="normal" in="SourceGraphic" in2="effect1_dropShadow_2884_714" result="shape" />
        </filter>
        <filter id="filter16_d_2884_714" x="110.523" y="105.066" width="25.3398" height="25.2852" filterUnits="userSpaceOnUse" color-interpolation-filters="sRGB">
            <feFlood flood-opacity="0" result="BackgroundImageFix" />
            <feColorMatrix in="SourceAlpha" type="matrix" values="0 0 0 0 0 0 0 0 0 0 0 0 0 0 0 0 0 0 127 0" result="hardAlpha" />
            <feOffset dy="4" />
            <feGaussianBlur stdDeviation="2" />
            <feComposite in2="hardAlpha" operator="out" />
            <feColorMatrix type="matrix" values="0 0 0 0 0 0 0 0 0 0 0 0 0 0 0 0 0 0 0.25 0" />
            <feBlend mode="normal" in2="BackgroundImageFix" result="effect1_dropShadow_2884_714" />
            <feBlend mode="normal" in="SourceGraphic" in2="effect1_dropShadow_2884_714" result="shape" />
        </filter>
        <filter id="filter17_d_2884_714" x="111.949" y="110.285" width="20.9062" height="20.8672" filterUnits="userSpaceOnUse" color-interpolation-filters="sRGB">
            <feFlood flood-opacity="0" result="BackgroundImageFix" />
            <feColorMatrix in="SourceAlpha" type="matrix" values="0 0 0 0 0 0 0 0 0 0 0 0 0 0 0 0 0 0 127 0" result="hardAlpha" />
            <feOffset dy="4" />
            <feGaussianBlur stdDeviation="2" />
            <feComposite in2="hardAlpha" operator="out" />
            <feColorMatrix type="matrix" values="0 0 0 0 0 0 0 0 0 0 0 0 0 0 0 0 0 0 0.25 0" />
            <feBlend mode="normal" in2="BackgroundImageFix" result="effect1_dropShadow_2884_714" />
            <feBlend mode="normal" in="SourceGraphic" in2="effect1_dropShadow_2884_714" result="shape" />
        </filter>
        <filter id="filter18_d_2884_714" x="112.602" y="109.23" width="20.582" height="14.2578" filterUnits="userSpaceOnUse" color-interpolation-filters="sRGB">
            <feFlood flood-opacity="0" result="BackgroundImageFix" />
            <feColorMatrix in="SourceAlpha" type="matrix" values="0 0 0 0 0 0 0 0 0 0 0 0 0 0 0 0 0 0 127 0" result="hardAlpha" />
            <feOffset dy="4" />
            <feGaussianBlur stdDeviation="2" />
            <feComposite in2="hardAlpha" operator="out" />
            <feColorMatrix type="matrix" values="0 0 0 0 0 0 0 0 0 0 0 0 0 0 0 0 0 0 0.25 0" />
            <feBlend mode="normal" in2="BackgroundImageFix" result="effect1_dropShadow_2884_714" />
            <feBlend mode="normal" in="SourceGraphic" in2="effect1_dropShadow_2884_714" result="shape" />
        </filter>
        <filter id="filter19_d_2884_714" x="101.027" y="97.5703" width="43.5391" height="43.4297" filterUnits="userSpaceOnUse" color-interpolation-filters="sRGB">
            <feFlood flood-opacity="0" result="BackgroundImageFix" />
            <feColorMatrix in="SourceAlpha" type="matrix" values="0 0 0 0 0 0 0 0 0 0 0 0 0 0 0 0 0 0 127 0" result="hardAlpha" />
            <feOffset dy="4" />
            <feGaussianBlur stdDeviation="2" />
            <feComposite in2="hardAlpha" operator="out" />
            <feColorMatrix type="matrix" values="0 0 0 0 0 0 0 0 0 0 0 0 0 0 0 0 0 0 0.25 0" />
            <feBlend mode="normal" in2="BackgroundImageFix" result="effect1_dropShadow_2884_714" />
            <feBlend mode="normal" in="SourceGraphic" in2="effect1_dropShadow_2884_714" result="shape" />
        </filter>
        <filter id="filter20_d_2884_714" x="110.75" y="103.828" width="12.4961" height="13.6367" filterUnits="userSpaceOnUse" color-interpolation-filters="sRGB">
            <feFlood flood-opacity="0" result="BackgroundImageFix" />
            <feColorMatrix in="SourceAlpha" type="matrix" values="0 0 0 0 0 0 0 0 0 0 0 0 0 0 0 0 0 0 127 0" result="hardAlpha" />
            <feOffset dy="4" />
            <feGaussianBlur stdDeviation="2" />
            <feComposite in2="hardAlpha" operator="out" />
            <feColorMatrix type="matrix" values="0 0 0 0 0 0 0 0 0 0 0 0 0 0 0 0 0 0 0.25 0" />
            <feBlend mode="normal" in2="BackgroundImageFix" result="effect1_dropShadow_2884_714" />
            <feBlend mode="normal" in="SourceGraphic" in2="effect1_dropShadow_2884_714" result="shape" />
        </filter>
        <filter id="filter21_d_2884_714" x="123.973" y="105.223" width="12.4961" height="13.6367" filterUnits="userSpaceOnUse" color-interpolation-filters="sRGB">
            <feFlood flood-opacity="0" result="BackgroundImageFix" />
            <feColorMatrix in="SourceAlpha" type="matrix" values="0 0 0 0 0 0 0 0 0 0 0 0 0 0 0 0 0 0 127 0" result="hardAlpha" />
            <feOffset dy="4" />
            <feGaussianBlur stdDeviation="2" />
            <feComposite in2="hardAlpha" operator="out" />
            <feColorMatrix type="matrix" values="0 0 0 0 0 0 0 0 0 0 0 0 0 0 0 0 0 0 0.25 0" />
            <feBlend mode="normal" in2="BackgroundImageFix" result="effect1_dropShadow_2884_714" />
            <feBlend mode="normal" in="SourceGraphic" in2="effect1_dropShadow_2884_714" result="shape" />
        </filter>
        <filter id="filter22_d_2884_714" x="66.3828" y="27.1719" width="26.4922" height="16.0625" filterUnits="userSpaceOnUse" color-interpolation-filters="sRGB">
            <feFlood flood-opacity="0" result="BackgroundImageFix" />
            <feColorMatrix in="SourceAlpha" type="matrix" values="0 0 0 0 0 0 0 0 0 0 0 0 0 0 0 0 0 0 127 0" result="hardAlpha" />
            <feOffset dy="4" />
            <feGaussianBlur stdDeviation="2" />
            <feComposite in2="hardAlpha" operator="out" />
            <feColorMatrix type="matrix" values="0 0 0 0 0 0 0 0 0 0 0 0 0 0 0 0 0 0 0.25 0" />
            <feBlend mode="normal" in2="BackgroundImageFix" result="effect1_dropShadow_2884_714" />
            <feBlend mode="normal" in="SourceGraphic" in2="effect1_dropShadow_2884_714" result="shape" />
        </filter>
        <filter id="filter23_d_2884_714" x="66.1289" y="5.65234" width="25.4531" height="25.3984" filterUnits="userSpaceOnUse" color-interpolation-filters="sRGB">
            <feFlood flood-opacity="0" result="BackgroundImageFix" />
            <feColorMatrix in="SourceAlpha" type="matrix" values="0 0 0 0 0 0 0 0 0 0 0 0 0 0 0 0 0 0 127 0" result="hardAlpha" />
            <feOffset dy="4" />
            <feGaussianBlur stdDeviation="2" />
            <feComposite in2="hardAlpha" operator="out" />
            <feColorMatrix type="matrix" values="0 0 0 0 0 0 0 0 0 0 0 0 0 0 0 0 0 0 0.25 0" />
            <feBlend mode="normal" in2="BackgroundImageFix" result="effect1_dropShadow_2884_714" />
            <feBlend mode="normal" in="SourceGraphic" in2="effect1_dropShadow_2884_714" result="shape" />
        </filter>
        <filter id="filter24_d_2884_714" x="68.3008" y="10.9062" width="20.9922" height="20.9531" filterUnits="userSpaceOnUse" color-interpolation-filters="sRGB">
            <feFlood flood-opacity="0" result="BackgroundImageFix" />
            <feColorMatrix in="SourceAlpha" type="matrix" values="0 0 0 0 0 0 0 0 0 0 0 0 0 0 0 0 0 0 127 0" result="hardAlpha" />
            <feOffset dy="4" />
            <feGaussianBlur stdDeviation="2" />
            <feComposite in2="hardAlpha" operator="out" />
            <feColorMatrix type="matrix" values="0 0 0 0 0 0 0 0 0 0 0 0 0 0 0 0 0 0 0.25 0" />
            <feBlend mode="normal" in2="BackgroundImageFix" result="effect1_dropShadow_2884_714" />
            <feBlend mode="normal" in="SourceGraphic" in2="effect1_dropShadow_2884_714" result="shape" />
        </filter>
        <filter id="filter25_d_2884_714" x="68.8281" y="9.84375" width="20.6641" height="14.2969" filterUnits="userSpaceOnUse" color-interpolation-filters="sRGB">
            <feFlood flood-opacity="0" result="BackgroundImageFix" />
            <feColorMatrix in="SourceAlpha" type="matrix" values="0 0 0 0 0 0 0 0 0 0 0 0 0 0 0 0 0 0 127 0" result="hardAlpha" />
            <feOffset dy="4" />
            <feGaussianBlur stdDeviation="2" />
            <feComposite in2="hardAlpha" operator="out" />
            <feColorMatrix type="matrix" values="0 0 0 0 0 0 0 0 0 0 0 0 0 0 0 0 0 0 0.25 0" />
            <feBlend mode="normal" in2="BackgroundImageFix" result="effect1_dropShadow_2884_714" />
            <feBlend mode="normal" in="SourceGraphic" in2="effect1_dropShadow_2884_714" result="shape" />
        </filter>
        <filter id="filter26_d_2884_714" x="57.6211" y="0" width="43.5391" height="43.4297" filterUnits="userSpaceOnUse" color-interpolation-filters="sRGB">
            <feFlood flood-opacity="0" result="BackgroundImageFix" />
            <feColorMatrix in="SourceAlpha" type="matrix" values="0 0 0 0 0 0 0 0 0 0 0 0 0 0 0 0 0 0 127 0" result="hardAlpha" />
            <feOffset dy="4" />
            <feGaussianBlur stdDeviation="2" />
            <feComposite in2="hardAlpha" operator="out" />
            <feColorMatrix type="matrix" values="0 0 0 0 0 0 0 0 0 0 0 0 0 0 0 0 0 0 0.25 0" />
            <feBlend mode="normal" in2="BackgroundImageFix" result="effect1_dropShadow_2884_714" />
            <feBlend mode="normal" in="SourceGraphic" in2="effect1_dropShadow_2884_714" result="shape" />
        </filter>
        <filter id="filter27_d_2884_714" x="8.76562" y="88.6133" width="26.4922" height="16.0625" filterUnits="userSpaceOnUse" color-interpolation-filters="sRGB">
            <feFlood flood-opacity="0" result="BackgroundImageFix" />
            <feColorMatrix in="SourceAlpha" type="matrix" values="0 0 0 0 0 0 0 0 0 0 0 0 0 0 0 0 0 0 127 0" result="hardAlpha" />
            <feOffset dy="4" />
            <feGaussianBlur stdDeviation="2" />
            <feComposite in2="hardAlpha" operator="out" />
            <feColorMatrix type="matrix" values="0 0 0 0 0 0 0 0 0 0 0 0 0 0 0 0 0 0 0.25 0" />
            <feBlend mode="normal" in2="BackgroundImageFix" result="effect1_dropShadow_2884_714" />
            <feBlend mode="normal" in="SourceGraphic" in2="effect1_dropShadow_2884_714" result="shape" />
        </filter>
        <filter id="filter28_d_2884_714" x="8.50781" y="67.0938" width="25.4531" height="25.3984" filterUnits="userSpaceOnUse" color-interpolation-filters="sRGB">
            <feFlood flood-opacity="0" result="BackgroundImageFix" />
            <feColorMatrix in="SourceAlpha" type="matrix" values="0 0 0 0 0 0 0 0 0 0 0 0 0 0 0 0 0 0 127 0" result="hardAlpha" />
            <feOffset dy="4" />
            <feGaussianBlur stdDeviation="2" />
            <feComposite in2="hardAlpha" operator="out" />
            <feColorMatrix type="matrix" values="0 0 0 0 0 0 0 0 0 0 0 0 0 0 0 0 0 0 0.25 0" />
            <feBlend mode="normal" in2="BackgroundImageFix" result="effect1_dropShadow_2884_714" />
            <feBlend mode="normal" in="SourceGraphic" in2="effect1_dropShadow_2884_714" result="shape" />
        </filter>
        <filter id="filter29_d_2884_714" x="11.5312" y="72.3477" width="20.9961" height="20.9531" filterUnits="userSpaceOnUse" color-interpolation-filters="sRGB">
            <feFlood flood-opacity="0" result="BackgroundImageFix" />
            <feColorMatrix in="SourceAlpha" type="matrix" values="0 0 0 0 0 0 0 0 0 0 0 0 0 0 0 0 0 0 127 0" result="hardAlpha" />
            <feOffset dy="4" />
            <feGaussianBlur stdDeviation="2" />
            <feComposite in2="hardAlpha" operator="out" />
            <feColorMatrix type="matrix" values="0 0 0 0 0 0 0 0 0 0 0 0 0 0 0 0 0 0 0.25 0" />
            <feBlend mode="normal" in2="BackgroundImageFix" result="effect1_dropShadow_2884_714" />
            <feBlend mode="normal" in="SourceGraphic" in2="effect1_dropShadow_2884_714" result="shape" />
        </filter>
        <filter id="filter30_d_2884_714" x="0.0195312" y="61.4609" width="43.5234" height="43.4102" filterUnits="userSpaceOnUse" color-interpolation-filters="sRGB">
            <feFlood flood-opacity="0" result="BackgroundImageFix" />
            <feColorMatrix in="SourceAlpha" type="matrix" values="0 0 0 0 0 0 0 0 0 0 0 0 0 0 0 0 0 0 127 0" result="hardAlpha" />
            <feOffset dy="4" />
            <feGaussianBlur stdDeviation="2" />
            <feComposite in2="hardAlpha" operator="out" />
            <feColorMatrix type="matrix" values="0 0 0 0 0 0 0 0 0 0 0 0 0 0 0 0 0 0 0.25 0" />
            <feBlend mode="normal" in2="BackgroundImageFix" result="effect1_dropShadow_2884_714" />
            <feBlend mode="normal" in="SourceGraphic" in2="effect1_dropShadow_2884_714" result="shape" />
        </filter>
        <filter id="filter31_d_2884_714" x="10.3281" y="66.3125" width="25.5898" height="21.0859" filterUnits="userSpaceOnUse" color-interpolation-filters="sRGB">
            <feFlood flood-opacity="0" result="BackgroundImageFix" />
            <feColorMatrix in="SourceAlpha" type="matrix" values="0 0 0 0 0 0 0 0 0 0 0 0 0 0 0 0 0 0 127 0" result="hardAlpha" />
            <feOffset dy="4" />
            <feGaussianBlur stdDeviation="2" />
            <feComposite in2="hardAlpha" operator="out" />
            <feColorMatrix type="matrix" values="0 0 0 0 0 0 0 0 0 0 0 0 0 0 0 0 0 0 0.25 0" />
            <feBlend mode="normal" in2="BackgroundImageFix" result="effect1_dropShadow_2884_714" />
            <feBlend mode="normal" in="SourceGraphic" in2="effect1_dropShadow_2884_714" result="shape" />
        </filter>
        <filter id="filter32_d_2884_714" x="10.5898" y="43.8828" width="8.46484" height="9.29297" filterUnits="userSpaceOnUse" color-interpolation-filters="sRGB">
            <feFlood flood-opacity="0" result="BackgroundImageFix" />
            <feColorMatrix in="SourceAlpha" type="matrix" values="0 0 0 0 0 0 0 0 0 0 0 0 0 0 0 0 0 0 127 0" result="hardAlpha" />
            <feOffset dy="4" />
            <feGaussianBlur stdDeviation="2" />
            <feComposite in2="hardAlpha" operator="out" />
            <feColorMatrix type="matrix" values="0 0 0 0 0 0 0 0 0 0 0 0 0 0 0 0 0 0 0.25 0" />
            <feBlend mode="normal" in2="BackgroundImageFix" result="effect1_dropShadow_2884_714" />
            <feBlend mode="normal" in="SourceGraphic" in2="effect1_dropShadow_2884_714" result="shape" />
        </filter>
        <filter id="filter33_d_2884_714" x="10.8164" y="7.48047" width="42.0781" height="41.9844" filterUnits="userSpaceOnUse" color-interpolation-filters="sRGB">
            <feFlood flood-opacity="0" result="BackgroundImageFix" />
            <feColorMatrix in="SourceAlpha" type="matrix" values="0 0 0 0 0 0 0 0 0 0 0 0 0 0 0 0 0 0 127 0" result="hardAlpha" />
            <feOffset dy="4" />
            <feGaussianBlur stdDeviation="2" />
            <feComposite in2="hardAlpha" operator="out" />
            <feColorMatrix type="matrix" values="0 0 0 0 0 0 0 0 0 0 0 0 0 0 0 0 0 0 0.25 0" />
            <feBlend mode="normal" in2="BackgroundImageFix" result="effect1_dropShadow_2884_714" />
            <feBlend mode="normal" in="SourceGraphic" in2="effect1_dropShadow_2884_714" result="shape" />
        </filter>
        <filter id="filter34_d_2884_714" x="47.3359" y="7.25391" width="9.29688" height="8.46094" filterUnits="userSpaceOnUse" color-interpolation-filters="sRGB">
            <feFlood flood-opacity="0" result="BackgroundImageFix" />
            <feColorMatrix in="SourceAlpha" type="matrix" values="0 0 0 0 0 0 0 0 0 0 0 0 0 0 0 0 0 0 127 0" result="hardAlpha" />
            <feOffset dy="4" />
            <feGaussianBlur stdDeviation="2" />
            <feComposite in2="hardAlpha" operator="out" />
            <feColorMatrix type="matrix" values="0 0 0 0 0 0 0 0 0 0 0 0 0 0 0 0 0 0 0.25 0" />
            <feBlend mode="normal" in2="BackgroundImageFix" result="effect1_dropShadow_2884_714" />
            <feBlend mode="normal" in="SourceGraphic" in2="effect1_dropShadow_2884_714" result="shape" />
        </filter>
        <filter id="filter35_d_2884_714" x="9.10156" y="43.4297" width="11.4961" height="10.2031" filterUnits="userSpaceOnUse" color-interpolation-filters="sRGB">
            <feFlood flood-opacity="0" result="BackgroundImageFix" />
            <feColorMatrix in="SourceAlpha" type="matrix" values="0 0 0 0 0 0 0 0 0 0 0 0 0 0 0 0 0 0 127 0" result="hardAlpha" />
            <feOffset dy="4" />
            <feGaussianBlur stdDeviation="2" />
            <feComposite in2="hardAlpha" operator="out" />
            <feColorMatrix type="matrix" values="0 0 0 0 0 0 0 0 0 0 0 0 0 0 0 0 0 0 0.25 0" />
            <feBlend mode="normal" in2="BackgroundImageFix" result="effect1_dropShadow_2884_714" />
            <feBlend mode="normal" in="SourceGraphic" in2="effect1_dropShadow_2884_714" result="shape" />
        </filter>
        <filter id="filter36_d_2884_714" x="46.8828" y="5.76562" width="10.2109" height="11.4883" filterUnits="userSpaceOnUse" color-interpolation-filters="sRGB">
            <feFlood flood-opacity="0" result="BackgroundImageFix" />
            <feColorMatrix in="SourceAlpha" type="matrix" values="0 0 0 0 0 0 0 0 0 0 0 0 0 0 0 0 0 0 127 0" result="hardAlpha" />
            <feOffset dy="4" />
            <feGaussianBlur stdDeviation="2" />
            <feComposite in2="hardAlpha" operator="out" />
            <feColorMatrix type="matrix" values="0 0 0 0 0 0 0 0 0 0 0 0 0 0 0 0 0 0 0.25 0" />
            <feBlend mode="normal" in2="BackgroundImageFix" result="effect1_dropShadow_2884_714" />
            <feBlend mode="normal" in="SourceGraphic" in2="effect1_dropShadow_2884_714" result="shape" />
        </filter>
        <filter id="filter37_d_2884_714" x="110.121" y="10.9688" width="9.33594" height="8.96484" filterUnits="userSpaceOnUse" color-interpolation-filters="sRGB">
            <feFlood flood-opacity="0" result="BackgroundImageFix" />
            <feColorMatrix in="SourceAlpha" type="matrix" values="0 0 0 0 0 0 0 0 0 0 0 0 0 0 0 0 0 0 127 0" result="hardAlpha" />
            <feOffset dy="4" />
            <feGaussianBlur stdDeviation="2" />
            <feComposite in2="hardAlpha" operator="out" />
            <feColorMatrix type="matrix" values="0 0 0 0 0 0 0 0 0 0 0 0 0 0 0 0 0 0 0.25 0" />
            <feBlend mode="normal" in2="BackgroundImageFix" result="effect1_dropShadow_2884_714" />
            <feBlend mode="normal" in="SourceGraphic" in2="effect1_dropShadow_2884_714" result="shape" />
        </filter>
        <filter id="filter38_d_2884_714" x="113.496" y="12.793" width="39.5039" height="85.8516" filterUnits="userSpaceOnUse" color-interpolation-filters="sRGB">
            <feFlood flood-opacity="0" result="BackgroundImageFix" />
            <feColorMatrix in="SourceAlpha" type="matrix" values="0 0 0 0 0 0 0 0 0 0 0 0 0 0 0 0 0 0 127 0" result="hardAlpha" />
            <feOffset dy="4" />
            <feGaussianBlur stdDeviation="2" />
            <feComposite in2="hardAlpha" operator="out" />
            <feColorMatrix type="matrix" values="0 0 0 0 0 0 0 0 0 0 0 0 0 0 0 0 0 0 0.25 0" />
            <feBlend mode="normal" in2="BackgroundImageFix" result="effect1_dropShadow_2884_714" />
            <feBlend mode="normal" in="SourceGraphic" in2="effect1_dropShadow_2884_714" result="shape" />
        </filter>
        <filter id="filter39_d_2884_714" x="138.375" y="92.8203" width="8.93359" height="9.33984" filterUnits="userSpaceOnUse" color-interpolation-filters="sRGB">
            <feFlood flood-opacity="0" result="BackgroundImageFix" />
            <feColorMatrix in="SourceAlpha" type="matrix" values="0 0 0 0 0 0 0 0 0 0 0 0 0 0 0 0 0 0 127 0" result="hardAlpha" />
            <feOffset dy="4" />
            <feGaussianBlur stdDeviation="2" />
            <feComposite in2="hardAlpha" operator="out" />
            <feColorMatrix type="matrix" values="0 0 0 0 0 0 0 0 0 0 0 0 0 0 0 0 0 0 0.25 0" />
            <feBlend mode="normal" in2="BackgroundImageFix" result="effect1_dropShadow_2884_714" />
            <feBlend mode="normal" in="SourceGraphic" in2="effect1_dropShadow_2884_714" result="shape" />
        </filter>
        <filter id="filter40_d_2884_714" x="109.801" y="10.2773" width="10.5898" height="11.0898" filterUnits="userSpaceOnUse" color-interpolation-filters="sRGB">
            <feFlood flood-opacity="0" result="BackgroundImageFix" />
            <feColorMatrix in="SourceAlpha" type="matrix" values="0 0 0 0 0 0 0 0 0 0 0 0 0 0 0 0 0 0 127 0" result="hardAlpha" />
            <feOffset dy="4" />
            <feGaussianBlur stdDeviation="2" />
            <feComposite in2="hardAlpha" operator="out" />
            <feColorMatrix type="matrix" values="0 0 0 0 0 0 0 0 0 0 0 0 0 0 0 0 0 0 0.25 0" />
            <feBlend mode="normal" in2="BackgroundImageFix" result="effect1_dropShadow_2884_714" />
            <feBlend mode="normal" in="SourceGraphic" in2="effect1_dropShadow_2884_714" result="shape" />
        </filter>
        <filter id="filter41_d_2884_714" x="137.559" y="91.918" width="11.1797" height="10.5664" filterUnits="userSpaceOnUse" color-interpolation-filters="sRGB">
            <feFlood flood-opacity="0" result="BackgroundImageFix" />
            <feColorMatrix in="SourceAlpha" type="matrix" values="0 0 0 0 0 0 0 0 0 0 0 0 0 0 0 0 0 0 127 0" result="hardAlpha" />
            <feOffset dy="4" />
            <feGaussianBlur stdDeviation="2" />
            <feComposite in2="hardAlpha" operator="out" />
            <feColorMatrix type="matrix" values="0 0 0 0 0 0 0 0 0 0 0 0 0 0 0 0 0 0 0.25 0" />
            <feBlend mode="normal" in2="BackgroundImageFix" result="effect1_dropShadow_2884_714" />
            <feBlend mode="normal" in="SourceGraphic" in2="effect1_dropShadow_2884_714" result="shape" />
        </filter>
    </defs>
</svg>