<svg width="23" height="32" viewBox="0 0 23 32" fill="none" xmlns="http://www.w3.org/2000/svg">
<path d="M10.4049 0.100956C9.22397 0.486822 8.45502 1.4423 8.45502 2.53865V2.92451H7.9607C7.38398 2.92451 7.09563 3.04089 6.87593 3.3655C6.75921 3.537 6.73861 3.67787 6.73861 4.22298V4.87222L4.52788 4.90284C2.74282 4.92122 2.24849 4.94572 1.9876 5.02534C1.08134 5.29483 0.374177 5.92569 0.113283 6.69742C-0.037761 7.15066 -0.037761 29.1389 0.113283 29.5921C0.381042 30.3761 1.19119 31.0744 2.06999 31.2765C2.30342 31.3316 4.70639 31.3438 11.5102 31.3316L20.6415 31.3132L21.0878 31.1234C21.8842 30.7804 22.454 30.1434 22.6394 29.3839C22.7767 28.7898 22.7767 7.49978 22.6394 6.90567C22.3854 5.85832 21.4242 5.08046 20.209 4.93959C19.9549 4.91509 18.9045 4.89059 17.8815 4.88447H16.0072V4.28423C16.0003 3.26138 15.6983 2.92451 14.792 2.92451H14.3183L14.2427 2.3794C14.1123 1.37493 13.5287 0.603195 12.5813 0.205078C12.1831 0.0397072 12.0457 0.0152073 11.4416 0.00295639C10.9061 -0.0092926 10.6795 0.0152073 10.4049 0.100956ZM11.7299 2.01803C11.9222 2.10378 12.0938 2.42228 12.0938 2.70402V2.92451H11.3729H10.652V2.63052C10.652 2.04866 11.1532 1.76692 11.7299 2.01803ZM13.8102 5.86444V6.90567H11.3386H8.86696V5.86444V4.82322H11.3386H13.8102V5.86444ZM6.73861 7.54265C6.73861 8.16126 6.75235 8.25926 6.89652 8.44301C7.21921 8.87787 7.08876 8.86562 11.3798 8.86562H15.2314L15.458 8.72475C15.9111 8.45526 15.9729 8.32051 15.9935 7.54265L16.0209 6.83829L18.0806 6.85667L20.1403 6.87505L20.3394 7.07716L20.5385 7.27316V18.1448V29.0164L20.3394 29.2124L20.1403 29.4145L11.4828 29.4329C1.87088 29.4513 2.43387 29.4696 2.24163 29.0532C2.09058 28.7285 2.09058 7.56103 2.24163 7.23641C2.41327 6.86892 2.54372 6.85055 4.76818 6.84442H6.73861V7.54265Z" fill="#1B403A"/>
<path d="M17.0441 11.7256C16.948 11.744 16.5086 12.0747 16.028 12.4973L15.1835 13.2323L14.8127 12.9199C14.3939 12.5647 14.0919 12.4789 13.6525 12.6014C12.9796 12.7791 12.6844 13.465 13.0414 14.0408C13.0826 14.1082 13.4465 14.4573 13.8584 14.8125C14.442 15.3331 14.6617 15.4801 14.8951 15.5352C15.4924 15.6822 15.5748 15.6394 17.0166 14.3531C18.1357 13.3609 18.3417 13.1466 18.4103 12.9199C18.5614 12.4054 18.2387 11.8848 17.6826 11.7501C17.408 11.6827 17.3324 11.6766 17.0441 11.7256Z" fill="#1B403A"/>
<path d="M4.78894 13.7858C4.09552 14.1349 4.08865 14.9924 4.76835 15.4456C4.96058 15.5681 5.02924 15.5742 7.69997 15.5742C10.357 15.5742 10.4394 15.5681 10.6247 15.4456C10.9337 15.2435 11.0847 15.0169 11.1191 14.6984C11.1602 14.3125 10.9543 13.9634 10.5835 13.7735C10.3295 13.651 10.2471 13.6449 7.6931 13.6449C5.09103 13.6449 5.04984 13.651 4.78894 13.7858Z" fill="#1B403A"/>
<path d="M16.9684 16.8923C16.8723 16.9229 16.4398 17.272 16.0072 17.6579L15.2108 18.3561L14.9774 18.1357C14.3114 17.5232 13.4395 17.5415 13.0276 18.1724C12.8285 18.4725 12.8559 18.9074 13.0894 19.2136C13.3502 19.5444 14.5243 20.5488 14.7371 20.6223C14.998 20.7081 15.5061 20.6958 15.7189 20.5978C15.8219 20.5488 16.4466 20.016 17.1195 19.4157C18.1287 18.5031 18.3416 18.2827 18.4033 18.0622C18.6368 17.2843 17.7992 16.5983 16.9684 16.8923Z" fill="#1B403A"/>
<path d="M4.82168 18.899C4.46467 19.0583 4.31363 19.2849 4.28617 19.6891C4.25184 20.1056 4.39602 20.369 4.75989 20.565C4.97273 20.6814 5.11004 20.6875 7.70525 20.6875C10.4172 20.6875 10.424 20.6875 10.6575 20.5466C11.3234 20.1485 11.2548 19.1379 10.5408 18.8745C10.3554 18.8072 9.7718 18.7888 7.68465 18.7888C5.31601 18.7888 5.03452 18.801 4.82168 18.899Z" fill="#1B403A"/>
<path d="M16.8666 22.0716C16.7568 22.1206 16.3311 22.4575 15.9261 22.8188L15.1846 23.4681L14.8962 23.217C14.5117 22.8923 14.3676 22.8311 13.9831 22.8311C13.2622 22.8311 12.7816 23.3395 12.8983 23.9887C12.9326 24.1663 13.0906 24.3501 13.7359 24.9319C14.1753 25.3362 14.6147 25.6975 14.7177 25.7465C15.0267 25.8935 15.4592 25.8568 15.8093 25.6547C15.9741 25.5628 16.6126 25.0299 17.2237 24.4787C18.1368 23.6457 18.3428 23.4252 18.4045 23.2108C18.5487 22.7392 18.329 22.2799 17.8553 22.0655C17.6013 21.9491 17.1275 21.9491 16.8666 22.0716Z" fill="#1B403A"/>
<path d="M5.11197 23.9272C4.80301 23.9946 4.56272 24.1538 4.39794 24.3804C4.21257 24.6438 4.2469 25.1767 4.45973 25.4462C4.76182 25.8259 4.80301 25.832 7.70031 25.832C10.5976 25.832 10.6388 25.8259 10.9478 25.44C11.0645 25.293 11.0988 25.1644 11.0988 24.8704C11.0988 24.4417 10.9683 24.2334 10.577 24.0252C10.3573 23.9088 10.2063 23.9027 7.83762 23.8905C6.45763 23.8843 5.22868 23.9027 5.11197 23.9272Z" fill="#1B403A"/>
</svg>
