<svg width="17" height="17" viewBox="0 0 17 17" fill="none" xmlns="http://www.w3.org/2000/svg">
<path d="M13.8477 0.125977C13.5257 0.236682 12.7205 1.01162 10.0233 3.75912L6.61161 7.25137L6.12853 9.26419C5.86686 10.3712 5.65552 11.2971 5.67564 11.3072C5.69577 11.3273 6.62167 11.1261 7.72872 10.8543L9.76167 10.3712L13.113 7.08028C14.9548 5.26874 16.565 3.65848 16.6858 3.48739C17.2292 2.71245 17.0682 1.92745 16.1826 1.00156C15.2667 0.0354002 14.6931 -0.175946 13.8477 0.125977ZM15.1258 1.857C15.3875 2.11867 15.6089 2.41053 15.6089 2.50111C15.6089 2.60175 14.1396 4.12143 12.3381 5.88265L9.06725 9.08304L8.3527 9.26419C7.9602 9.36483 7.61802 9.42522 7.58783 9.39503C7.55763 9.36483 7.60795 9.03272 7.70859 8.65028L7.87968 7.94579L11.1002 4.66489C12.8715 2.86342 14.3912 1.38399 14.4817 1.38399C14.5723 1.38399 14.8642 1.59534 15.1258 1.857Z" fill="#1B403A"/>
<path d="M1.2203 2.69825C0.768023 2.86184 0.315746 3.266 0.142533 3.67979C0.0366812 3.92998 0.0078125 5.07511 0.0078125 9.79034C0.0078125 15.2177 0.0270583 15.6218 0.190648 15.9779C0.402352 16.4398 0.614056 16.6419 1.0952 16.8439C1.39351 16.969 2.24033 16.9883 7.225 16.9883C11.8632 16.9883 13.0661 16.9594 13.3163 16.8536C13.7301 16.69 14.2112 16.1222 14.3363 15.6699C14.4614 15.2465 14.4807 7.36536 14.3652 7.36536C14.3267 7.36536 13.9129 7.74066 13.451 8.21218L12.6138 9.04938V12.1576V15.2562L7.20575 15.2369L1.78805 15.208L1.75918 9.79034L1.73994 4.38226H4.83852H7.94672L8.78391 3.54507C9.25543 3.08317 9.63073 2.66938 9.63073 2.63089C9.63073 2.58278 7.82162 2.55391 5.61797 2.55391C2.45203 2.56353 1.51861 2.5924 1.2203 2.69825Z" fill="#1B403A"/>
</svg>
