<svg width="15" height="14" viewBox="0 0 15 14" fill="none" xmlns="http://www.w3.org/2000/svg">
    <path
        d="M0.396628 0.0565968C-0.0822806 0.262129 -0.13975 0.899575 0.291268 1.17958C0.418977 1.26298 0.434941 1.26596 0.897886 1.27489L1.37041 1.28383V2.54979V3.81277H0.955355C0.498795 3.81277 0.374279 3.84255 0.208257 3.98553C-0.0982442 4.2566 -0.0567388 4.76894 0.291268 4.99234L0.42217 5.07872H1.37041H2.31865L2.44955 4.99234C2.53256 4.93872 2.61238 4.85234 2.66346 4.75702C2.74328 4.60809 2.74328 4.59617 2.74328 3.89617V3.18723H3.07852H3.41375V7V10.8128H3.07852H2.74328V10.1038C2.74328 9.40383 2.74328 9.39192 2.66346 9.24298C2.61238 9.14766 2.53256 9.06128 2.44955 9.00766L2.31865 8.92128H1.37041H0.42217L0.291268 9.00766C-0.0471606 9.22511 -0.0982442 9.71064 0.182716 9.99064C0.345544 10.1515 0.479639 10.1872 0.948969 10.1872H1.37041V11.4502V12.7162L0.897886 12.7251C0.434941 12.734 0.418977 12.737 0.291268 12.8204C-0.0567388 13.0438 -0.0982442 13.5591 0.208257 13.8272C0.393435 13.9881 0.463675 14 1.37041 14C2.27714 14 2.34738 13.9881 2.53256 13.8272C2.72732 13.6574 2.74328 13.58 2.74328 12.7996V12.0936H3.49357C4.31091 12.0936 4.39073 12.0817 4.5759 11.9209C4.62699 11.8762 4.69403 11.7868 4.72596 11.7213C4.78024 11.6081 4.78662 11.486 4.78662 9.62723V7.65532H5.18252H5.57842L5.61673 7.76255C5.68059 7.94426 5.96793 8.30766 6.16588 8.46255C6.39895 8.64426 6.73099 8.80213 6.99599 8.8617C7.23544 8.91234 7.71754 8.9183 7.9538 8.87362C8.20922 8.82298 8.61151 8.6383 8.82861 8.46553C9.03295 8.30766 9.3171 7.94426 9.38414 7.76255L9.42246 7.65532H9.81835H10.2143V9.62723C10.2143 11.486 10.2206 11.6081 10.2749 11.7213C10.3068 11.7868 10.3739 11.8762 10.425 11.9209C10.6102 12.0817 10.69 12.0936 11.5073 12.0936H12.2576V12.7996C12.2576 13.58 12.2736 13.6574 12.4683 13.8272C12.6535 13.9911 12.7237 14 13.6369 14C14.5627 14 14.633 13.9881 14.8182 13.8034C15.0991 13.5234 15.048 13.0379 14.7096 12.8204C14.5819 12.737 14.5659 12.734 14.103 12.7251L13.6305 12.7162V11.4502V10.1872H14.0551C14.5212 10.1872 14.6553 10.1515 14.8182 9.99064C15.0991 9.71064 15.048 9.22511 14.7096 9.00766L14.5787 8.92128H13.6305H12.6822L12.5513 9.00766C12.4683 9.06128 12.3885 9.14766 12.3374 9.24298C12.2576 9.39192 12.2576 9.40383 12.2576 10.1038V10.8128H11.9224H11.5871V7V3.18723H11.9224H12.2576V3.89617C12.2576 4.59617 12.2576 4.60809 12.3374 4.75702C12.3885 4.85234 12.4683 4.93872 12.5513 4.99234L12.6822 5.07872H13.6305H14.5787L14.7096 4.99234C15.048 4.77489 15.0991 4.28936 14.8182 4.00936C14.6553 3.84851 14.5212 3.81277 14.0551 3.81277H13.6305V2.54979V1.28383L14.103 1.27489C14.5659 1.26596 14.5819 1.26298 14.7096 1.17958C15.048 0.962129 15.0991 0.476596 14.8182 0.196596C14.633 0.0119152 14.5627 0 13.6305 0C12.6982 0 12.628 0.0119152 12.4428 0.196596C12.2704 0.369362 12.2576 0.443831 12.2576 1.20638V1.90638H11.5073C10.69 1.90638 10.6102 1.9183 10.425 2.07915C10.3739 2.12383 10.3068 2.21319 10.2749 2.27872C10.2206 2.39192 10.2143 2.51404 10.2143 4.36979V6.34468H9.81835H9.42246L9.38414 6.23745C9.32029 6.05575 9.03295 5.69234 8.835 5.53745C8.44229 5.23362 8.02404 5.09362 7.50044 5.09362C6.97683 5.09362 6.55858 5.23362 6.16588 5.53745C5.96793 5.69234 5.68059 6.05575 5.61673 6.23745L5.57842 6.34468H5.18252H4.78662V4.37872C4.78662 2.23106 4.79301 2.29362 4.60145 2.10298C4.41946 1.92128 4.33645 1.90638 3.50315 1.90638H2.74328V1.19745C2.74328 0.42 2.72732 0.342553 2.53256 0.172766C2.34738 0.00893593 2.27714 0 1.36402 0C0.613733 0 0.511566 0.00595856 0.396628 0.0565968ZM7.83887 6.47872C8.2635 6.71106 8.25711 7.29191 7.8261 7.52723C7.2546 7.84 6.5969 7.23234 6.93533 6.69617C7.12689 6.39234 7.51002 6.3 7.83887 6.47872Z"
        fill="#1b403a" />
</svg>
    