<svg width="16" height="11" viewBox="0 0 16 11" fill="none" xmlns="http://www.w3.org/2000/svg">
<path d="M11.5395 0.0632267C12.7296 0.302794 13.8163 1.20898 14.2199 2.30266C14.489 3.02136 14.5097 4.22962 14.2717 4.86499C14.1682 5.11497 13.9094 5.56286 13.6818 5.87534C13.3402 6.34406 13.2988 6.44822 13.4334 6.52113C13.837 6.75028 15.3086 7.91771 15.4938 8.25C15.679 8.58229 15.679 8.64286 15.679 8.64286L15.9142 9.42857H15.9156L14.655 8.64286L15.9142 9.42857L16 9.98756V10.2667L15.9971 10.5L16 10.6333V11H15.6347H15.2694H14.5614L14.4994 10.5C14.3855 9.72925 13.8784 8.7814 13.2885 8.23977C11.9224 7.00027 9.81112 7.00027 8.44501 8.23977C7.8551 8.7814 7.34799 9.72925 7.23415 10.5L7.17205 11L6.47865 10.9688L5.7956 10.9375L5.76455 10.5938L5.7335 10.2605H2.82535L0 10.2365V9.7605C0.144891 8.73973 0.848643 7.63564 1.68694 7.11484C1.88357 6.98985 2.32859 6.81278 2.67011 6.71904L3.28072 6.55238L2.86675 6.42739C2.33893 6.26073 1.65589 5.53161 1.50065 4.94832C1.29366 4.16712 1.52135 3.38592 2.14231 2.79221C2.58733 2.36516 2.92884 2.24016 3.65329 2.24016C4.79171 2.24016 5.64036 3.05261 5.72315 4.20878C5.79559 5.2608 5.23674 6.10449 4.2225 6.46905C3.94307 6.5628 3.89133 6.60446 4.05692 6.61488C4.57438 6.62529 5.45407 7.06276 6.03363 7.60439L6.63389 8.15644L6.88227 7.78146C7.1203 7.44815 7.8965 6.75028 8.31047 6.52113C8.44501 6.4378 8.42431 6.37531 8.14488 6.01075C7.27554 4.91707 7.04786 3.54216 7.52393 2.27141C8.08279 0.750681 9.93531 -0.270084 11.5395 0.0632267ZM10.3079 1.51105C9.83182 1.64645 9.3454 2.0006 9.06597 2.40682C7.9586 4.03171 9.45924 6.22948 11.3532 5.7816C11.912 5.64619 12.5847 5.12539 12.8228 4.64626C13.6714 2.9797 12.0776 1.00066 10.3079 1.51105Z" fill="white"/>
</svg>
