<svg width="14" height="18" viewBox="0 0 14 18" fill="none" xmlns="http://www.w3.org/2000/svg">
    <path
        d="M1.27627 3.46688C1.27627 4.1404 1.8596 4.73064 2.63521 4.73064C3.41081 4.73064 3.99414 4.1404 3.99414 3.46688C3.99414 2.79337 3.41081 2.20312 2.63521 2.20312C1.8596 2.20312 1.27627 2.79337 1.27627 3.46688Z"
        fill="#1b403a" stroke="#1b403a" />
    <path
        d="M8.41224 2.12501C8.41224 2.99804 9.16604 3.75002 10.1519 3.75002C11.1378 3.75002 11.8916 2.99804 11.8916 2.12501C11.8916 1.25198 11.1378 0.5 10.1519 0.5C9.16604 0.5 8.41224 1.25198 8.41224 2.12501Z"
        stroke="#1b403a" />
    <path
        d="M4.87695 7.95312C4.87695 7.1247 4.20538 6.45312 3.37695 6.45312H2.00172C1.17329 6.45312 0.501719 7.1247 0.501719 7.95312V10.7532C0.501719 11.5816 1.17329 12.2532 2.00172 12.2532H3.37695C4.20538 12.2532 4.87695 11.5816 4.87695 10.7532V7.95312Z"
        fill="#1b403a" stroke="#1b403a" />
    <path
        d="M12.7891 7.09375C12.7891 6.26532 12.1175 5.59375 11.2891 5.59375H9.01796C8.18953 5.59375 7.51796 6.26532 7.51796 7.09375V10.7438C7.51796 11.5722 8.18953 12.2438 9.01796 12.2438H11.2891C12.1175 12.2438 12.7891 11.5722 12.7891 10.7438V7.09375Z"
        stroke="#1b403a" />
    <rect x="-0.5" y="0.5" width="2.58349" height="4.10002" rx="0.5"
        transform="matrix(-1 0 0 1 3.49414 11.0469)" fill="#1b403a" stroke="#1b403a" />
    <rect x="-0.5" y="0.5" width="3.47936" height="4.10002" rx="0.5"
        transform="matrix(-1 0 0 1 11.3916 11.9062)" stroke="#1b403a" />
</svg>
    