<svg width="21" height="17" viewBox="0 0 21 17" fill="none" xmlns="http://www.w3.org/2000/svg">
    <path
        d="M10.5384 0.0474997C10.5928 0.0750208 10.672 0.138318 10.7115 0.190607C10.7536 0.242896 11.0924 0.974943 11.4658 1.81982C11.9876 3.00046 12.1558 3.35822 12.1954 3.36648C12.2226 3.37474 12.9125 3.48482 13.7286 3.61417C14.5448 3.74626 15.2446 3.8646 15.2842 3.88112C15.3881 3.9279 15.4919 4.03248 15.5463 4.15357C15.6007 4.26916 15.6131 4.50858 15.5711 4.63793C15.5562 4.68196 15.0641 5.24338 14.4063 5.96718L13.2687 7.21936L13.5283 8.89812C13.6742 9.82006 13.7905 10.6071 13.7905 10.6457C13.7905 11.0557 13.4047 11.3309 13.056 11.1741C13.0016 11.1493 12.371 10.7833 11.6587 10.3622C10.944 9.9439 10.3455 9.59989 10.3282 9.59989C10.3109 9.59989 9.71244 9.9439 8.99773 10.3622C8.2855 10.7833 7.65487 11.1493 7.60046 11.1741C7.25177 11.3309 6.86597 11.053 6.86597 10.6457C6.86597 10.6071 6.98221 9.82006 7.12564 8.89812L7.38778 7.21936L6.24771 5.96718C5.58989 5.24338 5.10022 4.68196 5.08539 4.63793C5.04829 4.51959 5.05571 4.26916 5.10022 4.17008C5.15463 4.05174 5.22882 3.96368 5.32032 3.90864C5.36731 3.88112 5.96826 3.77103 6.94758 3.61417C7.80078 3.47381 8.50312 3.35547 8.50807 3.34997C8.51302 3.34446 8.82709 2.64544 9.20299 1.79781C9.57889 0.950174 9.91523 0.22088 9.95232 0.176847C10.0982 0.00346661 10.3455 -0.0515747 10.5384 0.0474997Z"
        fill="#1b403a" />
    <path d="M6.08496 13.9141H14.5587" stroke="#1b403a" stroke-linecap="round" />
    <path d="M13.7212 16.0078H19.6528" stroke="#1b403a" stroke-linecap="round" />
    <path d="M1 16.0078L6.9316 16.0078" stroke="#1b403a" stroke-linecap="round" />
</svg>
    