<svg width="18" height="15" viewBox="0 0 18 15" fill="none" xmlns="http://www.w3.org/2000/svg">
<path d="M0.75 10.0547C0.75 9.5024 1.19772 9.05469 1.75 9.05469H4.78852C5.3408 9.05469 5.78852 9.5024 5.78852 10.0547V13.9975C5.78852 14.5498 5.3408 14.9975 4.78852 14.9975H1.75C1.19772 14.9975 0.75 14.5498 0.75 13.9975V10.0547Z" fill="white"/>
<path d="M6.50293 6.33984C6.50293 5.78756 6.95064 5.33984 7.50293 5.33984H10.5414C11.0937 5.33984 11.5414 5.78756 11.5414 6.33984V13.997C11.5414 14.5493 11.0937 14.997 10.5414 14.997H7.50293C6.95065 14.997 6.50293 14.5493 6.50293 13.997V6.33984Z" fill="white"/>
<path d="M12.7695 2.62109C12.7695 2.34495 12.9934 2.12109 13.2695 2.12109H16.308C16.5842 2.12109 16.808 2.34495 16.808 2.62109V13.9925C16.808 14.2686 16.5842 14.4925 16.308 14.4925H13.2695C12.9934 14.4925 12.7695 14.2686 12.7695 13.9925V2.62109Z" stroke="white"/>
<path d="M12.6265 0.507812H16.9452" stroke="white" stroke-linecap="round"/>
</svg>
