<svg width="18" height="18" viewBox="0 0 18 18" fill="none" xmlns="http://www.w3.org/2000/svg">
    <path fill-rule="evenodd" clip-rule="evenodd"
        d="M5.4 7.61902V10.381C5.4 12.2771 7.40688 13.0088 8.69479 12.3485L11.3881 10.9675C13.004 10.1389 13.004 7.86105 11.3881 7.03252L8.69479 5.65154C7.40687 4.99116 5.4 5.72292 5.4 7.61902ZM7.2 10.381C7.2 10.7 7.2 11.1417 7.87352 10.7467L10.5668 9.36576C10.8777 9.20634 11.5 9 10.5668 8.63424L7.87352 7.25326C7.2 6.96961 7.2 7.29998 7.2 7.61902V10.381Z"
        fill="#1b403a" />
    <path fill-rule="evenodd" clip-rule="evenodd"
        d="M4.5 0C2.01472 0 0 2.01472 0 4.5V13.5C0 15.9853 2.01472 18 4.5 18H13.5C15.9853 18 18 15.9853 18 13.5V4.5C18 2.01472 15.9853 0 13.5 0H4.5ZM1.8 4.5C1.8 3.00883 3.00883 1.8 4.5 1.8H13.5C14.9912 1.8 16.2 3.00883 16.2 4.5V13.5C16.2 14.9912 14.9912 16.2 13.5 16.2H4.5C3.00883 16.2 1.8 14.9912 1.8 13.5V4.5Z"
        fill="#1b403a" />
</svg>
    