<svg width="24" height="24" viewBox="0 0 24 24" fill="none" xmlns="http://www.w3.org/2000/svg">
<path d="M11.9688 22C17.4917 22 21.9688 17.523 21.9688 12C21.9688 6.477 17.4917 2 11.9688 2C6.44575 2 1.96875 6.477 1.96875 12C1.96875 17.523 6.44575 22 11.9688 22Z" stroke="#1B403A" stroke-width="1.5" stroke-linecap="round" stroke-linejoin="round"/>
<path d="M12.0034 16.2334C13.1253 16.2334 14.2012 15.7878 14.9945 14.9945C15.7878 14.2012 16.2334 13.1253 16.2334 12.0034C16.2334 10.8816 15.7878 9.80566 14.9945 9.01238C14.2012 8.2191 13.1253 7.77344 12.0034 7.77344C10.8816 7.77344 9.80566 8.2191 9.01238 9.01238C8.2191 9.80566 7.77344 10.8816 7.77344 12.0034C7.77344 13.1253 8.2191 14.2012 9.01238 14.9945C9.80566 15.7878 10.8816 16.2334 12.0034 16.2334Z" stroke="#1B403A" stroke-width="1.5" stroke-miterlimit="10" stroke-linecap="round" stroke-linejoin="round"/>
</svg>
