<svg width="24" height="24" viewBox="0 0 24 24" fill="none" xmlns="http://www.w3.org/2000/svg">
<path d="M21.0802 8.58V15.42C21.0802 16.54 20.4802 17.58 19.5102 18.15L13.5702 21.58C12.6002 22.14 11.4002 22.14 10.4202 21.58L4.48016 18.15C4.00193 17.8727 3.60509 17.4745 3.32951 16.9953C3.05392 16.5161 2.9093 15.9728 2.91016 15.42V8.58C2.91016 7.46 3.51016 6.42 4.48016 5.85L10.4202 2.42C11.3902 1.86 12.5902 1.86 13.5702 2.42L19.5102 5.85C20.4802 6.42 21.0802 7.45 21.0802 8.58Z" stroke="#1B403A" stroke-width="1.5" stroke-linecap="round" stroke-linejoin="round"/>
<path d="M9.75 11.9999V10.7999C9.75 9.25992 10.84 8.62992 12.17 9.39992L13.21 9.99992L14.25 10.5999C15.58 11.3699 15.58 12.6299 14.25 13.3999L13.21 13.9999L12.17 14.5999C10.84 15.3699 9.75 14.7399 9.75 13.1999V11.9999Z" stroke="#1B403A" stroke-width="1.5" stroke-miterlimit="10" stroke-linecap="round" stroke-linejoin="round"/>
</svg>
